%TF.GenerationSoftware,KiCad,Pcbnew,8.0.4*%
%TF.CreationDate,2024-08-21T00:11:00-04:00*%
%TF.ProjectId,Drone_Motherboard,44726f6e-655f-44d6-9f74-686572626f61,rev?*%
%TF.SameCoordinates,Original*%
%TF.FileFunction,Plated,1,2,PTH,Drill*%
%TF.FilePolarity,Positive*%
%FSLAX46Y46*%
G04 Gerber Fmt 4.6, Leading zero omitted, Abs format (unit mm)*
G04 Created by KiCad (PCBNEW 8.0.4) date 2024-08-21 00:11:00*
%MOMM*%
%LPD*%
G01*
G04 APERTURE LIST*
%TA.AperFunction,ViaDrill*%
%ADD10C,0.300000*%
%TD*%
%TA.AperFunction,ComponentDrill*%
%ADD11C,1.000000*%
%TD*%
G04 APERTURE END LIST*
D10*
X117848000Y-109466000D03*
X117848000Y-110482000D03*
X118610000Y-111244000D03*
X119626000Y-111244000D03*
X120642000Y-132580000D03*
X120642000Y-133596000D03*
X121404000Y-134358000D03*
X122420000Y-134358000D03*
X123944000Y-134358000D03*
X124960000Y-134358000D03*
X125722000Y-132580000D03*
X125722000Y-133596000D03*
X130302000Y-108712000D03*
X130810000Y-111252000D03*
X131056000Y-117848000D03*
X133350000Y-120142000D03*
X134612000Y-132072000D03*
X134612000Y-133342000D03*
X134612000Y-134612000D03*
X137152000Y-118356000D03*
X137152000Y-119118000D03*
X137152000Y-132072000D03*
X137152000Y-133342000D03*
X137152000Y-134612000D03*
X141470000Y-132326000D03*
X141470000Y-133088000D03*
X141732000Y-118872000D03*
X142232000Y-133596000D03*
X149852000Y-133596000D03*
X150614000Y-132326000D03*
X150614000Y-133088000D03*
X158750000Y-110482000D03*
X159512000Y-109212000D03*
X159512000Y-109974000D03*
D11*
%TO.C,ESC_DEBUG1*%
X119111000Y-107437000D03*
X119111000Y-109977000D03*
X121651000Y-107437000D03*
X121651000Y-109977000D03*
%TO.C,VBUCK1*%
X121925000Y-130561000D03*
X121925000Y-133101000D03*
%TO.C,ESC_DEBUG1*%
X124191000Y-107437000D03*
X124191000Y-109977000D03*
%TO.C,VBUCK1*%
X124465000Y-130561000D03*
X124465000Y-133101000D03*
%TO.C,XIAO_L1*%
X140970000Y-107442000D03*
X140970000Y-109982000D03*
X140970000Y-112522000D03*
X140970000Y-115062000D03*
X140970000Y-117602000D03*
X140970000Y-120142000D03*
X140970000Y-122682000D03*
%TO.C,JETSON_PWR1*%
X144785000Y-130551000D03*
X144785000Y-133091000D03*
X147325000Y-130551000D03*
X147325000Y-133091000D03*
%TO.C,SPI1*%
X154945000Y-130551000D03*
X154945000Y-133091000D03*
%TO.C,XIAO_R1*%
X156210000Y-107442000D03*
X156210000Y-109982000D03*
X156210000Y-112522000D03*
X156210000Y-115062000D03*
X156210000Y-117602000D03*
X156210000Y-120142000D03*
X156210000Y-122682000D03*
%TO.C,SPI1*%
X157485000Y-130551000D03*
X157485000Y-133091000D03*
M02*
