%TF.GenerationSoftware,KiCad,Pcbnew,9.0.0*%
%TF.CreationDate,2025-05-03T14:05:23-04:00*%
%TF.ProjectId,Drone_ESC_Bridge,44726f6e-655f-4455-9343-5f4272696467,v1.1*%
%TF.SameCoordinates,Original*%
%TF.FileFunction,Legend,Bot*%
%TF.FilePolarity,Positive*%
%FSLAX46Y46*%
G04 Gerber Fmt 4.6, Leading zero omitted, Abs format (unit mm)*
G04 Created by KiCad (PCBNEW 9.0.0) date 2025-05-03 14:05:23*
%MOMM*%
%LPD*%
G01*
G04 APERTURE LIST*
%ADD10C,0.100000*%
%ADD11C,0.200000*%
G04 APERTURE END LIST*
D10*
X140000000Y-124122000D02*
X145080000Y-124122000D01*
X145080000Y-127678000D01*
X140000000Y-127678000D01*
X140000000Y-124122000D01*
X151900000Y-124144000D02*
X151900000Y-127700000D01*
X147836000Y-124144000D02*
X155964000Y-124144000D01*
X155964000Y-127700000D01*
X147836000Y-127700000D01*
X147836000Y-124144000D01*
X124980000Y-112822000D02*
X116344000Y-112822000D01*
X122440000Y-111044000D02*
X122440000Y-114600000D01*
X155964000Y-125922000D02*
X147836000Y-125922000D01*
X119900000Y-111044000D02*
X119900000Y-114600000D01*
X116344000Y-111044000D02*
X124980000Y-111044000D01*
X124980000Y-114600000D01*
X116344000Y-114600000D01*
X116344000Y-111044000D01*
X124700000Y-126100000D02*
X119620000Y-126100000D01*
X119620000Y-124322000D02*
X124700000Y-124322000D01*
X124700000Y-127878000D01*
X119620000Y-127878000D01*
X119620000Y-124322000D01*
X145080000Y-125900000D02*
X140000000Y-125900000D01*
X122921904Y-126544038D02*
X123017142Y-126496419D01*
X123017142Y-126496419D02*
X123159999Y-126496419D01*
X123159999Y-126496419D02*
X123302856Y-126544038D01*
X123302856Y-126544038D02*
X123398094Y-126639276D01*
X123398094Y-126639276D02*
X123445713Y-126734514D01*
X123445713Y-126734514D02*
X123493332Y-126924990D01*
X123493332Y-126924990D02*
X123493332Y-127067847D01*
X123493332Y-127067847D02*
X123445713Y-127258323D01*
X123445713Y-127258323D02*
X123398094Y-127353561D01*
X123398094Y-127353561D02*
X123302856Y-127448800D01*
X123302856Y-127448800D02*
X123159999Y-127496419D01*
X123159999Y-127496419D02*
X123064761Y-127496419D01*
X123064761Y-127496419D02*
X122921904Y-127448800D01*
X122921904Y-127448800D02*
X122874285Y-127401180D01*
X122874285Y-127401180D02*
X122874285Y-127067847D01*
X122874285Y-127067847D02*
X123064761Y-127067847D01*
X122445713Y-127496419D02*
X122445713Y-126496419D01*
X122445713Y-126496419D02*
X121874285Y-127496419D01*
X121874285Y-127496419D02*
X121874285Y-126496419D01*
X121398094Y-127496419D02*
X121398094Y-126496419D01*
X121398094Y-126496419D02*
X121159999Y-126496419D01*
X121159999Y-126496419D02*
X121017142Y-126544038D01*
X121017142Y-126544038D02*
X120921904Y-126639276D01*
X120921904Y-126639276D02*
X120874285Y-126734514D01*
X120874285Y-126734514D02*
X120826666Y-126924990D01*
X120826666Y-126924990D02*
X120826666Y-127067847D01*
X120826666Y-127067847D02*
X120874285Y-127258323D01*
X120874285Y-127258323D02*
X120921904Y-127353561D01*
X120921904Y-127353561D02*
X121017142Y-127448800D01*
X121017142Y-127448800D02*
X121159999Y-127496419D01*
X121159999Y-127496419D02*
X121398094Y-127496419D01*
X122350476Y-124718419D02*
X122826666Y-124718419D01*
X122826666Y-124718419D02*
X122874285Y-125194609D01*
X122874285Y-125194609D02*
X122826666Y-125146990D01*
X122826666Y-125146990D02*
X122731428Y-125099371D01*
X122731428Y-125099371D02*
X122493333Y-125099371D01*
X122493333Y-125099371D02*
X122398095Y-125146990D01*
X122398095Y-125146990D02*
X122350476Y-125194609D01*
X122350476Y-125194609D02*
X122302857Y-125289847D01*
X122302857Y-125289847D02*
X122302857Y-125527942D01*
X122302857Y-125527942D02*
X122350476Y-125623180D01*
X122350476Y-125623180D02*
X122398095Y-125670800D01*
X122398095Y-125670800D02*
X122493333Y-125718419D01*
X122493333Y-125718419D02*
X122731428Y-125718419D01*
X122731428Y-125718419D02*
X122826666Y-125670800D01*
X122826666Y-125670800D02*
X122874285Y-125623180D01*
X122017142Y-124718419D02*
X121683809Y-125718419D01*
X121683809Y-125718419D02*
X121350476Y-124718419D01*
X124519523Y-112440419D02*
X124519523Y-111440419D01*
X124519523Y-111440419D02*
X124186190Y-112154704D01*
X124186190Y-112154704D02*
X123852857Y-111440419D01*
X123852857Y-111440419D02*
X123852857Y-112440419D01*
X123424285Y-111535657D02*
X123376666Y-111488038D01*
X123376666Y-111488038D02*
X123281428Y-111440419D01*
X123281428Y-111440419D02*
X123043333Y-111440419D01*
X123043333Y-111440419D02*
X122948095Y-111488038D01*
X122948095Y-111488038D02*
X122900476Y-111535657D01*
X122900476Y-111535657D02*
X122852857Y-111630895D01*
X122852857Y-111630895D02*
X122852857Y-111726133D01*
X122852857Y-111726133D02*
X122900476Y-111868990D01*
X122900476Y-111868990D02*
X123471904Y-112440419D01*
X123471904Y-112440419D02*
X122852857Y-112440419D01*
X150034666Y-127223180D02*
X150082285Y-127270800D01*
X150082285Y-127270800D02*
X150225142Y-127318419D01*
X150225142Y-127318419D02*
X150320380Y-127318419D01*
X150320380Y-127318419D02*
X150463237Y-127270800D01*
X150463237Y-127270800D02*
X150558475Y-127175561D01*
X150558475Y-127175561D02*
X150606094Y-127080323D01*
X150606094Y-127080323D02*
X150653713Y-126889847D01*
X150653713Y-126889847D02*
X150653713Y-126746990D01*
X150653713Y-126746990D02*
X150606094Y-126556514D01*
X150606094Y-126556514D02*
X150558475Y-126461276D01*
X150558475Y-126461276D02*
X150463237Y-126366038D01*
X150463237Y-126366038D02*
X150320380Y-126318419D01*
X150320380Y-126318419D02*
X150225142Y-126318419D01*
X150225142Y-126318419D02*
X150082285Y-126366038D01*
X150082285Y-126366038D02*
X150034666Y-126413657D01*
X149653713Y-127270800D02*
X149510856Y-127318419D01*
X149510856Y-127318419D02*
X149272761Y-127318419D01*
X149272761Y-127318419D02*
X149177523Y-127270800D01*
X149177523Y-127270800D02*
X149129904Y-127223180D01*
X149129904Y-127223180D02*
X149082285Y-127127942D01*
X149082285Y-127127942D02*
X149082285Y-127032704D01*
X149082285Y-127032704D02*
X149129904Y-126937466D01*
X149129904Y-126937466D02*
X149177523Y-126889847D01*
X149177523Y-126889847D02*
X149272761Y-126842228D01*
X149272761Y-126842228D02*
X149463237Y-126794609D01*
X149463237Y-126794609D02*
X149558475Y-126746990D01*
X149558475Y-126746990D02*
X149606094Y-126699371D01*
X149606094Y-126699371D02*
X149653713Y-126604133D01*
X149653713Y-126604133D02*
X149653713Y-126508895D01*
X149653713Y-126508895D02*
X149606094Y-126413657D01*
X149606094Y-126413657D02*
X149558475Y-126366038D01*
X149558475Y-126366038D02*
X149463237Y-126318419D01*
X149463237Y-126318419D02*
X149225142Y-126318419D01*
X149225142Y-126318419D02*
X149082285Y-126366038D01*
D11*
X131583961Y-122067219D02*
X131583961Y-121067219D01*
X131583961Y-121067219D02*
X131345866Y-121067219D01*
X131345866Y-121067219D02*
X131203009Y-121114838D01*
X131203009Y-121114838D02*
X131107771Y-121210076D01*
X131107771Y-121210076D02*
X131060152Y-121305314D01*
X131060152Y-121305314D02*
X131012533Y-121495790D01*
X131012533Y-121495790D02*
X131012533Y-121638647D01*
X131012533Y-121638647D02*
X131060152Y-121829123D01*
X131060152Y-121829123D02*
X131107771Y-121924361D01*
X131107771Y-121924361D02*
X131203009Y-122019600D01*
X131203009Y-122019600D02*
X131345866Y-122067219D01*
X131345866Y-122067219D02*
X131583961Y-122067219D01*
X130583961Y-122067219D02*
X130583961Y-121400552D01*
X130583961Y-121591028D02*
X130536342Y-121495790D01*
X130536342Y-121495790D02*
X130488723Y-121448171D01*
X130488723Y-121448171D02*
X130393485Y-121400552D01*
X130393485Y-121400552D02*
X130298247Y-121400552D01*
X129822056Y-122067219D02*
X129917294Y-122019600D01*
X129917294Y-122019600D02*
X129964913Y-121971980D01*
X129964913Y-121971980D02*
X130012532Y-121876742D01*
X130012532Y-121876742D02*
X130012532Y-121591028D01*
X130012532Y-121591028D02*
X129964913Y-121495790D01*
X129964913Y-121495790D02*
X129917294Y-121448171D01*
X129917294Y-121448171D02*
X129822056Y-121400552D01*
X129822056Y-121400552D02*
X129679199Y-121400552D01*
X129679199Y-121400552D02*
X129583961Y-121448171D01*
X129583961Y-121448171D02*
X129536342Y-121495790D01*
X129536342Y-121495790D02*
X129488723Y-121591028D01*
X129488723Y-121591028D02*
X129488723Y-121876742D01*
X129488723Y-121876742D02*
X129536342Y-121971980D01*
X129536342Y-121971980D02*
X129583961Y-122019600D01*
X129583961Y-122019600D02*
X129679199Y-122067219D01*
X129679199Y-122067219D02*
X129822056Y-122067219D01*
X129060151Y-121400552D02*
X129060151Y-122067219D01*
X129060151Y-121495790D02*
X129012532Y-121448171D01*
X129012532Y-121448171D02*
X128917294Y-121400552D01*
X128917294Y-121400552D02*
X128774437Y-121400552D01*
X128774437Y-121400552D02*
X128679199Y-121448171D01*
X128679199Y-121448171D02*
X128631580Y-121543409D01*
X128631580Y-121543409D02*
X128631580Y-122067219D01*
X127774437Y-122019600D02*
X127869675Y-122067219D01*
X127869675Y-122067219D02*
X128060151Y-122067219D01*
X128060151Y-122067219D02*
X128155389Y-122019600D01*
X128155389Y-122019600D02*
X128203008Y-121924361D01*
X128203008Y-121924361D02*
X128203008Y-121543409D01*
X128203008Y-121543409D02*
X128155389Y-121448171D01*
X128155389Y-121448171D02*
X128060151Y-121400552D01*
X128060151Y-121400552D02*
X127869675Y-121400552D01*
X127869675Y-121400552D02*
X127774437Y-121448171D01*
X127774437Y-121448171D02*
X127726818Y-121543409D01*
X127726818Y-121543409D02*
X127726818Y-121638647D01*
X127726818Y-121638647D02*
X128203008Y-121733885D01*
X126536341Y-122067219D02*
X126536341Y-121067219D01*
X126536341Y-121067219D02*
X126203008Y-121781504D01*
X126203008Y-121781504D02*
X125869675Y-121067219D01*
X125869675Y-121067219D02*
X125869675Y-122067219D01*
X125250627Y-122067219D02*
X125345865Y-122019600D01*
X125345865Y-122019600D02*
X125393484Y-121971980D01*
X125393484Y-121971980D02*
X125441103Y-121876742D01*
X125441103Y-121876742D02*
X125441103Y-121591028D01*
X125441103Y-121591028D02*
X125393484Y-121495790D01*
X125393484Y-121495790D02*
X125345865Y-121448171D01*
X125345865Y-121448171D02*
X125250627Y-121400552D01*
X125250627Y-121400552D02*
X125107770Y-121400552D01*
X125107770Y-121400552D02*
X125012532Y-121448171D01*
X125012532Y-121448171D02*
X124964913Y-121495790D01*
X124964913Y-121495790D02*
X124917294Y-121591028D01*
X124917294Y-121591028D02*
X124917294Y-121876742D01*
X124917294Y-121876742D02*
X124964913Y-121971980D01*
X124964913Y-121971980D02*
X125012532Y-122019600D01*
X125012532Y-122019600D02*
X125107770Y-122067219D01*
X125107770Y-122067219D02*
X125250627Y-122067219D01*
X124631579Y-121400552D02*
X124250627Y-121400552D01*
X124488722Y-121067219D02*
X124488722Y-121924361D01*
X124488722Y-121924361D02*
X124441103Y-122019600D01*
X124441103Y-122019600D02*
X124345865Y-122067219D01*
X124345865Y-122067219D02*
X124250627Y-122067219D01*
X123917293Y-122067219D02*
X123917293Y-121067219D01*
X123488722Y-122067219D02*
X123488722Y-121543409D01*
X123488722Y-121543409D02*
X123536341Y-121448171D01*
X123536341Y-121448171D02*
X123631579Y-121400552D01*
X123631579Y-121400552D02*
X123774436Y-121400552D01*
X123774436Y-121400552D02*
X123869674Y-121448171D01*
X123869674Y-121448171D02*
X123917293Y-121495790D01*
X122631579Y-122019600D02*
X122726817Y-122067219D01*
X122726817Y-122067219D02*
X122917293Y-122067219D01*
X122917293Y-122067219D02*
X123012531Y-122019600D01*
X123012531Y-122019600D02*
X123060150Y-121924361D01*
X123060150Y-121924361D02*
X123060150Y-121543409D01*
X123060150Y-121543409D02*
X123012531Y-121448171D01*
X123012531Y-121448171D02*
X122917293Y-121400552D01*
X122917293Y-121400552D02*
X122726817Y-121400552D01*
X122726817Y-121400552D02*
X122631579Y-121448171D01*
X122631579Y-121448171D02*
X122583960Y-121543409D01*
X122583960Y-121543409D02*
X122583960Y-121638647D01*
X122583960Y-121638647D02*
X123060150Y-121733885D01*
X122155388Y-122067219D02*
X122155388Y-121400552D01*
X122155388Y-121591028D02*
X122107769Y-121495790D01*
X122107769Y-121495790D02*
X122060150Y-121448171D01*
X122060150Y-121448171D02*
X121964912Y-121400552D01*
X121964912Y-121400552D02*
X121869674Y-121400552D01*
X121536340Y-122067219D02*
X121536340Y-121067219D01*
X121536340Y-121448171D02*
X121441102Y-121400552D01*
X121441102Y-121400552D02*
X121250626Y-121400552D01*
X121250626Y-121400552D02*
X121155388Y-121448171D01*
X121155388Y-121448171D02*
X121107769Y-121495790D01*
X121107769Y-121495790D02*
X121060150Y-121591028D01*
X121060150Y-121591028D02*
X121060150Y-121876742D01*
X121060150Y-121876742D02*
X121107769Y-121971980D01*
X121107769Y-121971980D02*
X121155388Y-122019600D01*
X121155388Y-122019600D02*
X121250626Y-122067219D01*
X121250626Y-122067219D02*
X121441102Y-122067219D01*
X121441102Y-122067219D02*
X121536340Y-122019600D01*
X120488721Y-122067219D02*
X120583959Y-122019600D01*
X120583959Y-122019600D02*
X120631578Y-121971980D01*
X120631578Y-121971980D02*
X120679197Y-121876742D01*
X120679197Y-121876742D02*
X120679197Y-121591028D01*
X120679197Y-121591028D02*
X120631578Y-121495790D01*
X120631578Y-121495790D02*
X120583959Y-121448171D01*
X120583959Y-121448171D02*
X120488721Y-121400552D01*
X120488721Y-121400552D02*
X120345864Y-121400552D01*
X120345864Y-121400552D02*
X120250626Y-121448171D01*
X120250626Y-121448171D02*
X120203007Y-121495790D01*
X120203007Y-121495790D02*
X120155388Y-121591028D01*
X120155388Y-121591028D02*
X120155388Y-121876742D01*
X120155388Y-121876742D02*
X120203007Y-121971980D01*
X120203007Y-121971980D02*
X120250626Y-122019600D01*
X120250626Y-122019600D02*
X120345864Y-122067219D01*
X120345864Y-122067219D02*
X120488721Y-122067219D01*
X119298245Y-122067219D02*
X119298245Y-121543409D01*
X119298245Y-121543409D02*
X119345864Y-121448171D01*
X119345864Y-121448171D02*
X119441102Y-121400552D01*
X119441102Y-121400552D02*
X119631578Y-121400552D01*
X119631578Y-121400552D02*
X119726816Y-121448171D01*
X119298245Y-122019600D02*
X119393483Y-122067219D01*
X119393483Y-122067219D02*
X119631578Y-122067219D01*
X119631578Y-122067219D02*
X119726816Y-122019600D01*
X119726816Y-122019600D02*
X119774435Y-121924361D01*
X119774435Y-121924361D02*
X119774435Y-121829123D01*
X119774435Y-121829123D02*
X119726816Y-121733885D01*
X119726816Y-121733885D02*
X119631578Y-121686266D01*
X119631578Y-121686266D02*
X119393483Y-121686266D01*
X119393483Y-121686266D02*
X119298245Y-121638647D01*
X118822054Y-122067219D02*
X118822054Y-121400552D01*
X118822054Y-121591028D02*
X118774435Y-121495790D01*
X118774435Y-121495790D02*
X118726816Y-121448171D01*
X118726816Y-121448171D02*
X118631578Y-121400552D01*
X118631578Y-121400552D02*
X118536340Y-121400552D01*
X117774435Y-122067219D02*
X117774435Y-121067219D01*
X117774435Y-122019600D02*
X117869673Y-122067219D01*
X117869673Y-122067219D02*
X118060149Y-122067219D01*
X118060149Y-122067219D02*
X118155387Y-122019600D01*
X118155387Y-122019600D02*
X118203006Y-121971980D01*
X118203006Y-121971980D02*
X118250625Y-121876742D01*
X118250625Y-121876742D02*
X118250625Y-121591028D01*
X118250625Y-121591028D02*
X118203006Y-121495790D01*
X118203006Y-121495790D02*
X118155387Y-121448171D01*
X118155387Y-121448171D02*
X118060149Y-121400552D01*
X118060149Y-121400552D02*
X117869673Y-121400552D01*
X117869673Y-121400552D02*
X117774435Y-121448171D01*
X116631577Y-121400552D02*
X116393482Y-122067219D01*
X116393482Y-122067219D02*
X116155387Y-121400552D01*
X115250625Y-122067219D02*
X115822053Y-122067219D01*
X115536339Y-122067219D02*
X115536339Y-121067219D01*
X115536339Y-121067219D02*
X115631577Y-121210076D01*
X115631577Y-121210076D02*
X115726815Y-121305314D01*
X115726815Y-121305314D02*
X115822053Y-121352933D01*
X114822053Y-121971980D02*
X114774434Y-122019600D01*
X114774434Y-122019600D02*
X114822053Y-122067219D01*
X114822053Y-122067219D02*
X114869672Y-122019600D01*
X114869672Y-122019600D02*
X114822053Y-121971980D01*
X114822053Y-121971980D02*
X114822053Y-122067219D01*
X113822054Y-122067219D02*
X114393482Y-122067219D01*
X114107768Y-122067219D02*
X114107768Y-121067219D01*
X114107768Y-121067219D02*
X114203006Y-121210076D01*
X114203006Y-121210076D02*
X114298244Y-121305314D01*
X114298244Y-121305314D02*
X114393482Y-121352933D01*
D10*
X155217713Y-125492800D02*
X155074856Y-125540419D01*
X155074856Y-125540419D02*
X154836761Y-125540419D01*
X154836761Y-125540419D02*
X154741523Y-125492800D01*
X154741523Y-125492800D02*
X154693904Y-125445180D01*
X154693904Y-125445180D02*
X154646285Y-125349942D01*
X154646285Y-125349942D02*
X154646285Y-125254704D01*
X154646285Y-125254704D02*
X154693904Y-125159466D01*
X154693904Y-125159466D02*
X154741523Y-125111847D01*
X154741523Y-125111847D02*
X154836761Y-125064228D01*
X154836761Y-125064228D02*
X155027237Y-125016609D01*
X155027237Y-125016609D02*
X155122475Y-124968990D01*
X155122475Y-124968990D02*
X155170094Y-124921371D01*
X155170094Y-124921371D02*
X155217713Y-124826133D01*
X155217713Y-124826133D02*
X155217713Y-124730895D01*
X155217713Y-124730895D02*
X155170094Y-124635657D01*
X155170094Y-124635657D02*
X155122475Y-124588038D01*
X155122475Y-124588038D02*
X155027237Y-124540419D01*
X155027237Y-124540419D02*
X154789142Y-124540419D01*
X154789142Y-124540419D02*
X154646285Y-124588038D01*
X153646285Y-125445180D02*
X153693904Y-125492800D01*
X153693904Y-125492800D02*
X153836761Y-125540419D01*
X153836761Y-125540419D02*
X153931999Y-125540419D01*
X153931999Y-125540419D02*
X154074856Y-125492800D01*
X154074856Y-125492800D02*
X154170094Y-125397561D01*
X154170094Y-125397561D02*
X154217713Y-125302323D01*
X154217713Y-125302323D02*
X154265332Y-125111847D01*
X154265332Y-125111847D02*
X154265332Y-124968990D01*
X154265332Y-124968990D02*
X154217713Y-124778514D01*
X154217713Y-124778514D02*
X154170094Y-124683276D01*
X154170094Y-124683276D02*
X154074856Y-124588038D01*
X154074856Y-124588038D02*
X153931999Y-124540419D01*
X153931999Y-124540419D02*
X153836761Y-124540419D01*
X153836761Y-124540419D02*
X153693904Y-124588038D01*
X153693904Y-124588038D02*
X153646285Y-124635657D01*
X153217713Y-125540419D02*
X153217713Y-124540419D01*
X152646285Y-125540419D02*
X153074856Y-124968990D01*
X152646285Y-124540419D02*
X153217713Y-125111847D01*
X142730476Y-124518419D02*
X143206666Y-124518419D01*
X143206666Y-124518419D02*
X143254285Y-124994609D01*
X143254285Y-124994609D02*
X143206666Y-124946990D01*
X143206666Y-124946990D02*
X143111428Y-124899371D01*
X143111428Y-124899371D02*
X142873333Y-124899371D01*
X142873333Y-124899371D02*
X142778095Y-124946990D01*
X142778095Y-124946990D02*
X142730476Y-124994609D01*
X142730476Y-124994609D02*
X142682857Y-125089847D01*
X142682857Y-125089847D02*
X142682857Y-125327942D01*
X142682857Y-125327942D02*
X142730476Y-125423180D01*
X142730476Y-125423180D02*
X142778095Y-125470800D01*
X142778095Y-125470800D02*
X142873333Y-125518419D01*
X142873333Y-125518419D02*
X143111428Y-125518419D01*
X143111428Y-125518419D02*
X143206666Y-125470800D01*
X143206666Y-125470800D02*
X143254285Y-125423180D01*
X142397142Y-124518419D02*
X142063809Y-125518419D01*
X142063809Y-125518419D02*
X141730476Y-124518419D01*
X143301904Y-126344038D02*
X143397142Y-126296419D01*
X143397142Y-126296419D02*
X143539999Y-126296419D01*
X143539999Y-126296419D02*
X143682856Y-126344038D01*
X143682856Y-126344038D02*
X143778094Y-126439276D01*
X143778094Y-126439276D02*
X143825713Y-126534514D01*
X143825713Y-126534514D02*
X143873332Y-126724990D01*
X143873332Y-126724990D02*
X143873332Y-126867847D01*
X143873332Y-126867847D02*
X143825713Y-127058323D01*
X143825713Y-127058323D02*
X143778094Y-127153561D01*
X143778094Y-127153561D02*
X143682856Y-127248800D01*
X143682856Y-127248800D02*
X143539999Y-127296419D01*
X143539999Y-127296419D02*
X143444761Y-127296419D01*
X143444761Y-127296419D02*
X143301904Y-127248800D01*
X143301904Y-127248800D02*
X143254285Y-127201180D01*
X143254285Y-127201180D02*
X143254285Y-126867847D01*
X143254285Y-126867847D02*
X143444761Y-126867847D01*
X142825713Y-127296419D02*
X142825713Y-126296419D01*
X142825713Y-126296419D02*
X142254285Y-127296419D01*
X142254285Y-127296419D02*
X142254285Y-126296419D01*
X141778094Y-127296419D02*
X141778094Y-126296419D01*
X141778094Y-126296419D02*
X141539999Y-126296419D01*
X141539999Y-126296419D02*
X141397142Y-126344038D01*
X141397142Y-126344038D02*
X141301904Y-126439276D01*
X141301904Y-126439276D02*
X141254285Y-126534514D01*
X141254285Y-126534514D02*
X141206666Y-126724990D01*
X141206666Y-126724990D02*
X141206666Y-126867847D01*
X141206666Y-126867847D02*
X141254285Y-127058323D01*
X141254285Y-127058323D02*
X141301904Y-127153561D01*
X141301904Y-127153561D02*
X141397142Y-127248800D01*
X141397142Y-127248800D02*
X141539999Y-127296419D01*
X141539999Y-127296419D02*
X141778094Y-127296419D01*
X124519523Y-114218419D02*
X124519523Y-113218419D01*
X124519523Y-113218419D02*
X124186190Y-113932704D01*
X124186190Y-113932704D02*
X123852857Y-113218419D01*
X123852857Y-113218419D02*
X123852857Y-114218419D01*
X122852857Y-114218419D02*
X123424285Y-114218419D01*
X123138571Y-114218419D02*
X123138571Y-113218419D01*
X123138571Y-113218419D02*
X123233809Y-113361276D01*
X123233809Y-113361276D02*
X123329047Y-113456514D01*
X123329047Y-113456514D02*
X123424285Y-113504133D01*
X121979523Y-114218419D02*
X121979523Y-113218419D01*
X121979523Y-113218419D02*
X121646190Y-113932704D01*
X121646190Y-113932704D02*
X121312857Y-113218419D01*
X121312857Y-113218419D02*
X121312857Y-114218419D01*
X120931904Y-113218419D02*
X120312857Y-113218419D01*
X120312857Y-113218419D02*
X120646190Y-113599371D01*
X120646190Y-113599371D02*
X120503333Y-113599371D01*
X120503333Y-113599371D02*
X120408095Y-113646990D01*
X120408095Y-113646990D02*
X120360476Y-113694609D01*
X120360476Y-113694609D02*
X120312857Y-113789847D01*
X120312857Y-113789847D02*
X120312857Y-114027942D01*
X120312857Y-114027942D02*
X120360476Y-114123180D01*
X120360476Y-114123180D02*
X120408095Y-114170800D01*
X120408095Y-114170800D02*
X120503333Y-114218419D01*
X120503333Y-114218419D02*
X120789047Y-114218419D01*
X120789047Y-114218419D02*
X120884285Y-114170800D01*
X120884285Y-114170800D02*
X120931904Y-114123180D01*
X118883904Y-113266038D02*
X118979142Y-113218419D01*
X118979142Y-113218419D02*
X119121999Y-113218419D01*
X119121999Y-113218419D02*
X119264856Y-113266038D01*
X119264856Y-113266038D02*
X119360094Y-113361276D01*
X119360094Y-113361276D02*
X119407713Y-113456514D01*
X119407713Y-113456514D02*
X119455332Y-113646990D01*
X119455332Y-113646990D02*
X119455332Y-113789847D01*
X119455332Y-113789847D02*
X119407713Y-113980323D01*
X119407713Y-113980323D02*
X119360094Y-114075561D01*
X119360094Y-114075561D02*
X119264856Y-114170800D01*
X119264856Y-114170800D02*
X119121999Y-114218419D01*
X119121999Y-114218419D02*
X119026761Y-114218419D01*
X119026761Y-114218419D02*
X118883904Y-114170800D01*
X118883904Y-114170800D02*
X118836285Y-114123180D01*
X118836285Y-114123180D02*
X118836285Y-113789847D01*
X118836285Y-113789847D02*
X119026761Y-113789847D01*
X118407713Y-114218419D02*
X118407713Y-113218419D01*
X118407713Y-113218419D02*
X117836285Y-114218419D01*
X117836285Y-114218419D02*
X117836285Y-113218419D01*
X117360094Y-114218419D02*
X117360094Y-113218419D01*
X117360094Y-113218419D02*
X117121999Y-113218419D01*
X117121999Y-113218419D02*
X116979142Y-113266038D01*
X116979142Y-113266038D02*
X116883904Y-113361276D01*
X116883904Y-113361276D02*
X116836285Y-113456514D01*
X116836285Y-113456514D02*
X116788666Y-113646990D01*
X116788666Y-113646990D02*
X116788666Y-113789847D01*
X116788666Y-113789847D02*
X116836285Y-113980323D01*
X116836285Y-113980323D02*
X116883904Y-114075561D01*
X116883904Y-114075561D02*
X116979142Y-114170800D01*
X116979142Y-114170800D02*
X117121999Y-114218419D01*
X117121999Y-114218419D02*
X117360094Y-114218419D01*
X121979523Y-112440419D02*
X121979523Y-111440419D01*
X121979523Y-111440419D02*
X121646190Y-112154704D01*
X121646190Y-112154704D02*
X121312857Y-111440419D01*
X121312857Y-111440419D02*
X121312857Y-112440419D01*
X120408095Y-111773752D02*
X120408095Y-112440419D01*
X120646190Y-111392800D02*
X120884285Y-112107085D01*
X120884285Y-112107085D02*
X120265238Y-112107085D01*
X155503427Y-127318419D02*
X155503427Y-126318419D01*
X155503427Y-126318419D02*
X155170094Y-127032704D01*
X155170094Y-127032704D02*
X154836761Y-126318419D01*
X154836761Y-126318419D02*
X154836761Y-127318419D01*
X154170094Y-126318419D02*
X153979618Y-126318419D01*
X153979618Y-126318419D02*
X153884380Y-126366038D01*
X153884380Y-126366038D02*
X153789142Y-126461276D01*
X153789142Y-126461276D02*
X153741523Y-126651752D01*
X153741523Y-126651752D02*
X153741523Y-126985085D01*
X153741523Y-126985085D02*
X153789142Y-127175561D01*
X153789142Y-127175561D02*
X153884380Y-127270800D01*
X153884380Y-127270800D02*
X153979618Y-127318419D01*
X153979618Y-127318419D02*
X154170094Y-127318419D01*
X154170094Y-127318419D02*
X154265332Y-127270800D01*
X154265332Y-127270800D02*
X154360570Y-127175561D01*
X154360570Y-127175561D02*
X154408189Y-126985085D01*
X154408189Y-126985085D02*
X154408189Y-126651752D01*
X154408189Y-126651752D02*
X154360570Y-126461276D01*
X154360570Y-126461276D02*
X154265332Y-126366038D01*
X154265332Y-126366038D02*
X154170094Y-126318419D01*
X153360570Y-127270800D02*
X153217713Y-127318419D01*
X153217713Y-127318419D02*
X152979618Y-127318419D01*
X152979618Y-127318419D02*
X152884380Y-127270800D01*
X152884380Y-127270800D02*
X152836761Y-127223180D01*
X152836761Y-127223180D02*
X152789142Y-127127942D01*
X152789142Y-127127942D02*
X152789142Y-127032704D01*
X152789142Y-127032704D02*
X152836761Y-126937466D01*
X152836761Y-126937466D02*
X152884380Y-126889847D01*
X152884380Y-126889847D02*
X152979618Y-126842228D01*
X152979618Y-126842228D02*
X153170094Y-126794609D01*
X153170094Y-126794609D02*
X153265332Y-126746990D01*
X153265332Y-126746990D02*
X153312951Y-126699371D01*
X153312951Y-126699371D02*
X153360570Y-126604133D01*
X153360570Y-126604133D02*
X153360570Y-126508895D01*
X153360570Y-126508895D02*
X153312951Y-126413657D01*
X153312951Y-126413657D02*
X153265332Y-126366038D01*
X153265332Y-126366038D02*
X153170094Y-126318419D01*
X153170094Y-126318419D02*
X152931999Y-126318419D01*
X152931999Y-126318419D02*
X152789142Y-126366038D01*
X152360570Y-127318419D02*
X152360570Y-126318419D01*
X119764856Y-111440419D02*
X119431523Y-112440419D01*
X119431523Y-112440419D02*
X119098190Y-111440419D01*
X118431523Y-111916609D02*
X118288666Y-111964228D01*
X118288666Y-111964228D02*
X118241047Y-112011847D01*
X118241047Y-112011847D02*
X118193428Y-112107085D01*
X118193428Y-112107085D02*
X118193428Y-112249942D01*
X118193428Y-112249942D02*
X118241047Y-112345180D01*
X118241047Y-112345180D02*
X118288666Y-112392800D01*
X118288666Y-112392800D02*
X118383904Y-112440419D01*
X118383904Y-112440419D02*
X118764856Y-112440419D01*
X118764856Y-112440419D02*
X118764856Y-111440419D01*
X118764856Y-111440419D02*
X118431523Y-111440419D01*
X118431523Y-111440419D02*
X118336285Y-111488038D01*
X118336285Y-111488038D02*
X118288666Y-111535657D01*
X118288666Y-111535657D02*
X118241047Y-111630895D01*
X118241047Y-111630895D02*
X118241047Y-111726133D01*
X118241047Y-111726133D02*
X118288666Y-111821371D01*
X118288666Y-111821371D02*
X118336285Y-111868990D01*
X118336285Y-111868990D02*
X118431523Y-111916609D01*
X118431523Y-111916609D02*
X118764856Y-111916609D01*
X117812475Y-112154704D02*
X117336285Y-112154704D01*
X117907713Y-112440419D02*
X117574380Y-111440419D01*
X117574380Y-111440419D02*
X117241047Y-112440419D01*
X117050570Y-111440419D02*
X116479142Y-111440419D01*
X116764856Y-112440419D02*
X116764856Y-111440419D01*
X151439427Y-125535419D02*
X151439427Y-124535419D01*
X151439427Y-124535419D02*
X151106094Y-125249704D01*
X151106094Y-125249704D02*
X150772761Y-124535419D01*
X150772761Y-124535419D02*
X150772761Y-125535419D01*
X150296570Y-125535419D02*
X150296570Y-124535419D01*
X149867999Y-125487800D02*
X149725142Y-125535419D01*
X149725142Y-125535419D02*
X149487047Y-125535419D01*
X149487047Y-125535419D02*
X149391809Y-125487800D01*
X149391809Y-125487800D02*
X149344190Y-125440180D01*
X149344190Y-125440180D02*
X149296571Y-125344942D01*
X149296571Y-125344942D02*
X149296571Y-125249704D01*
X149296571Y-125249704D02*
X149344190Y-125154466D01*
X149344190Y-125154466D02*
X149391809Y-125106847D01*
X149391809Y-125106847D02*
X149487047Y-125059228D01*
X149487047Y-125059228D02*
X149677523Y-125011609D01*
X149677523Y-125011609D02*
X149772761Y-124963990D01*
X149772761Y-124963990D02*
X149820380Y-124916371D01*
X149820380Y-124916371D02*
X149867999Y-124821133D01*
X149867999Y-124821133D02*
X149867999Y-124725895D01*
X149867999Y-124725895D02*
X149820380Y-124630657D01*
X149820380Y-124630657D02*
X149772761Y-124583038D01*
X149772761Y-124583038D02*
X149677523Y-124535419D01*
X149677523Y-124535419D02*
X149439428Y-124535419D01*
X149439428Y-124535419D02*
X149296571Y-124583038D01*
X148677523Y-124535419D02*
X148487047Y-124535419D01*
X148487047Y-124535419D02*
X148391809Y-124583038D01*
X148391809Y-124583038D02*
X148296571Y-124678276D01*
X148296571Y-124678276D02*
X148248952Y-124868752D01*
X148248952Y-124868752D02*
X148248952Y-125202085D01*
X148248952Y-125202085D02*
X148296571Y-125392561D01*
X148296571Y-125392561D02*
X148391809Y-125487800D01*
X148391809Y-125487800D02*
X148487047Y-125535419D01*
X148487047Y-125535419D02*
X148677523Y-125535419D01*
X148677523Y-125535419D02*
X148772761Y-125487800D01*
X148772761Y-125487800D02*
X148867999Y-125392561D01*
X148867999Y-125392561D02*
X148915618Y-125202085D01*
X148915618Y-125202085D02*
X148915618Y-124868752D01*
X148915618Y-124868752D02*
X148867999Y-124678276D01*
X148867999Y-124678276D02*
X148772761Y-124583038D01*
X148772761Y-124583038D02*
X148677523Y-124535419D01*
M02*
