%TF.GenerationSoftware,KiCad,Pcbnew,9.0.0*%
%TF.CreationDate,2025-05-03T14:05:28-04:00*%
%TF.ProjectId,Drone_ESC_Bridge,44726f6e-655f-4455-9343-5f4272696467,v1.1*%
%TF.SameCoordinates,Original*%
%TF.FileFunction,Plated,1,2,PTH,Drill*%
%TF.FilePolarity,Positive*%
%FSLAX46Y46*%
G04 Gerber Fmt 4.6, Leading zero omitted, Abs format (unit mm)*
G04 Created by KiCad (PCBNEW 9.0.0) date 2025-05-03 14:05:28*
%MOMM*%
%LPD*%
G01*
G04 APERTURE LIST*
%TA.AperFunction,ViaDrill*%
%ADD10C,0.300000*%
%TD*%
%TA.AperFunction,ComponentDrill*%
%ADD11C,1.000000*%
%TD*%
G04 APERTURE END LIST*
D10*
X117000000Y-122200000D03*
X117800000Y-122200000D03*
X118500000Y-122800000D03*
X118500000Y-123700000D03*
X118900000Y-122100000D03*
X119672000Y-131898000D03*
X119672000Y-132914000D03*
X119700000Y-122100000D03*
X120434000Y-133676000D03*
X121450000Y-133676000D03*
X122974000Y-133676000D03*
X123990000Y-133676000D03*
X124752000Y-131898000D03*
X124752000Y-132914000D03*
X127800000Y-110900000D03*
X129600000Y-110900000D03*
X130086000Y-117166000D03*
X131300000Y-113700000D03*
X131300000Y-131200000D03*
X131300000Y-132500000D03*
X131300000Y-133800000D03*
X132400000Y-119400000D03*
X133700000Y-131200000D03*
X133700000Y-132500000D03*
X133700000Y-133800000D03*
X136300000Y-117800000D03*
X136300000Y-118500000D03*
X137900000Y-131500000D03*
X137900000Y-132400000D03*
X138700000Y-132700000D03*
X146300000Y-132700000D03*
X147100000Y-131500000D03*
X147100000Y-132400000D03*
X157780000Y-109800000D03*
X158600000Y-108700000D03*
X158600000Y-109500000D03*
D11*
%TO.C,ESC_DEBUG1*%
X118141000Y-106755000D03*
X118141000Y-109295000D03*
X120681000Y-106755000D03*
X120681000Y-109295000D03*
%TO.C,VBUCK1*%
X120955000Y-129879000D03*
X120955000Y-132419000D03*
%TO.C,ESC_DEBUG1*%
X123221000Y-106755000D03*
X123221000Y-109295000D03*
%TO.C,VBUCK1*%
X123495000Y-129879000D03*
X123495000Y-132419000D03*
%TO.C,XIAO_L1*%
X140000000Y-106760000D03*
X140000000Y-109300000D03*
X140000000Y-111840000D03*
X140000000Y-114380000D03*
X140000000Y-116920000D03*
X140000000Y-119460000D03*
X140000000Y-122000000D03*
%TO.C,JETSON_PWR1*%
X141235000Y-129625000D03*
X141235000Y-132165000D03*
X143775000Y-129625000D03*
X143775000Y-132165000D03*
%TO.C,SPI1*%
X150635000Y-129625000D03*
X150635000Y-132165000D03*
X153175000Y-129625000D03*
X153175000Y-132165000D03*
%TO.C,XIAO_R1*%
X155240000Y-106760000D03*
X155240000Y-109300000D03*
X155240000Y-111840000D03*
X155240000Y-114380000D03*
X155240000Y-116920000D03*
X155240000Y-119460000D03*
X155240000Y-122000000D03*
M02*
