%TF.GenerationSoftware,KiCad,Pcbnew,9.0.0*%
%TF.CreationDate,2025-05-03T14:05:23-04:00*%
%TF.ProjectId,Drone_ESC_Bridge,44726f6e-655f-4455-9343-5f4272696467,v1.1*%
%TF.SameCoordinates,Original*%
%TF.FileFunction,Legend,Top*%
%TF.FilePolarity,Positive*%
%FSLAX46Y46*%
G04 Gerber Fmt 4.6, Leading zero omitted, Abs format (unit mm)*
G04 Created by KiCad (PCBNEW 9.0.0) date 2025-05-03 14:05:23*
%MOMM*%
%LPD*%
G01*
G04 APERTURE LIST*
%ADD10C,0.100000*%
%ADD11C,0.150000*%
%ADD12C,0.120000*%
G04 APERTURE END LIST*
D10*
X151900000Y-127674000D02*
X151900000Y-124118000D01*
X155964000Y-125896000D02*
X147836000Y-125896000D01*
X119934000Y-114634000D02*
X119934000Y-111078000D01*
X116378000Y-111078000D02*
X125014000Y-111078000D01*
X125014000Y-114634000D01*
X116378000Y-114634000D01*
X116378000Y-111078000D01*
X124680000Y-126100000D02*
X119600000Y-126100000D01*
X125014000Y-112856000D02*
X116378000Y-112856000D01*
X147836000Y-124118000D02*
X155964000Y-124118000D01*
X155964000Y-127674000D01*
X147836000Y-127674000D01*
X147836000Y-124118000D01*
X140000000Y-124122000D02*
X145080000Y-124122000D01*
X145080000Y-127678000D01*
X140000000Y-127678000D01*
X140000000Y-124122000D01*
X122474000Y-114634000D02*
X122474000Y-111078000D01*
X119600000Y-124322000D02*
X124680000Y-124322000D01*
X124680000Y-127878000D01*
X119600000Y-127878000D01*
X119600000Y-124322000D01*
X145080000Y-125900000D02*
X140000000Y-125900000D01*
X141778095Y-126344038D02*
X141682857Y-126296419D01*
X141682857Y-126296419D02*
X141540000Y-126296419D01*
X141540000Y-126296419D02*
X141397143Y-126344038D01*
X141397143Y-126344038D02*
X141301905Y-126439276D01*
X141301905Y-126439276D02*
X141254286Y-126534514D01*
X141254286Y-126534514D02*
X141206667Y-126724990D01*
X141206667Y-126724990D02*
X141206667Y-126867847D01*
X141206667Y-126867847D02*
X141254286Y-127058323D01*
X141254286Y-127058323D02*
X141301905Y-127153561D01*
X141301905Y-127153561D02*
X141397143Y-127248800D01*
X141397143Y-127248800D02*
X141540000Y-127296419D01*
X141540000Y-127296419D02*
X141635238Y-127296419D01*
X141635238Y-127296419D02*
X141778095Y-127248800D01*
X141778095Y-127248800D02*
X141825714Y-127201180D01*
X141825714Y-127201180D02*
X141825714Y-126867847D01*
X141825714Y-126867847D02*
X141635238Y-126867847D01*
X142254286Y-127296419D02*
X142254286Y-126296419D01*
X142254286Y-126296419D02*
X142825714Y-127296419D01*
X142825714Y-127296419D02*
X142825714Y-126296419D01*
X143301905Y-127296419D02*
X143301905Y-126296419D01*
X143301905Y-126296419D02*
X143540000Y-126296419D01*
X143540000Y-126296419D02*
X143682857Y-126344038D01*
X143682857Y-126344038D02*
X143778095Y-126439276D01*
X143778095Y-126439276D02*
X143825714Y-126534514D01*
X143825714Y-126534514D02*
X143873333Y-126724990D01*
X143873333Y-126724990D02*
X143873333Y-126867847D01*
X143873333Y-126867847D02*
X143825714Y-127058323D01*
X143825714Y-127058323D02*
X143778095Y-127153561D01*
X143778095Y-127153561D02*
X143682857Y-127248800D01*
X143682857Y-127248800D02*
X143540000Y-127296419D01*
X143540000Y-127296419D02*
X143301905Y-127296419D01*
X122934476Y-114252419D02*
X122934476Y-113252419D01*
X122934476Y-113252419D02*
X123267809Y-113966704D01*
X123267809Y-113966704D02*
X123601142Y-113252419D01*
X123601142Y-113252419D02*
X123601142Y-114252419D01*
X124601142Y-114252419D02*
X124029714Y-114252419D01*
X124315428Y-114252419D02*
X124315428Y-113252419D01*
X124315428Y-113252419D02*
X124220190Y-113395276D01*
X124220190Y-113395276D02*
X124124952Y-113490514D01*
X124124952Y-113490514D02*
X124029714Y-113538133D01*
X121378095Y-126544038D02*
X121282857Y-126496419D01*
X121282857Y-126496419D02*
X121140000Y-126496419D01*
X121140000Y-126496419D02*
X120997143Y-126544038D01*
X120997143Y-126544038D02*
X120901905Y-126639276D01*
X120901905Y-126639276D02*
X120854286Y-126734514D01*
X120854286Y-126734514D02*
X120806667Y-126924990D01*
X120806667Y-126924990D02*
X120806667Y-127067847D01*
X120806667Y-127067847D02*
X120854286Y-127258323D01*
X120854286Y-127258323D02*
X120901905Y-127353561D01*
X120901905Y-127353561D02*
X120997143Y-127448800D01*
X120997143Y-127448800D02*
X121140000Y-127496419D01*
X121140000Y-127496419D02*
X121235238Y-127496419D01*
X121235238Y-127496419D02*
X121378095Y-127448800D01*
X121378095Y-127448800D02*
X121425714Y-127401180D01*
X121425714Y-127401180D02*
X121425714Y-127067847D01*
X121425714Y-127067847D02*
X121235238Y-127067847D01*
X121854286Y-127496419D02*
X121854286Y-126496419D01*
X121854286Y-126496419D02*
X122425714Y-127496419D01*
X122425714Y-127496419D02*
X122425714Y-126496419D01*
X122901905Y-127496419D02*
X122901905Y-126496419D01*
X122901905Y-126496419D02*
X123140000Y-126496419D01*
X123140000Y-126496419D02*
X123282857Y-126544038D01*
X123282857Y-126544038D02*
X123378095Y-126639276D01*
X123378095Y-126639276D02*
X123425714Y-126734514D01*
X123425714Y-126734514D02*
X123473333Y-126924990D01*
X123473333Y-126924990D02*
X123473333Y-127067847D01*
X123473333Y-127067847D02*
X123425714Y-127258323D01*
X123425714Y-127258323D02*
X123378095Y-127353561D01*
X123378095Y-127353561D02*
X123282857Y-127448800D01*
X123282857Y-127448800D02*
X123140000Y-127496419D01*
X123140000Y-127496419D02*
X122901905Y-127496419D01*
X121949523Y-124718419D02*
X121473333Y-124718419D01*
X121473333Y-124718419D02*
X121425714Y-125194609D01*
X121425714Y-125194609D02*
X121473333Y-125146990D01*
X121473333Y-125146990D02*
X121568571Y-125099371D01*
X121568571Y-125099371D02*
X121806666Y-125099371D01*
X121806666Y-125099371D02*
X121901904Y-125146990D01*
X121901904Y-125146990D02*
X121949523Y-125194609D01*
X121949523Y-125194609D02*
X121997142Y-125289847D01*
X121997142Y-125289847D02*
X121997142Y-125527942D01*
X121997142Y-125527942D02*
X121949523Y-125623180D01*
X121949523Y-125623180D02*
X121901904Y-125670800D01*
X121901904Y-125670800D02*
X121806666Y-125718419D01*
X121806666Y-125718419D02*
X121568571Y-125718419D01*
X121568571Y-125718419D02*
X121473333Y-125670800D01*
X121473333Y-125670800D02*
X121425714Y-125623180D01*
X122282857Y-124718419D02*
X122616190Y-125718419D01*
X122616190Y-125718419D02*
X122949523Y-124718419D01*
X149701333Y-127197180D02*
X149653714Y-127244800D01*
X149653714Y-127244800D02*
X149510857Y-127292419D01*
X149510857Y-127292419D02*
X149415619Y-127292419D01*
X149415619Y-127292419D02*
X149272762Y-127244800D01*
X149272762Y-127244800D02*
X149177524Y-127149561D01*
X149177524Y-127149561D02*
X149129905Y-127054323D01*
X149129905Y-127054323D02*
X149082286Y-126863847D01*
X149082286Y-126863847D02*
X149082286Y-126720990D01*
X149082286Y-126720990D02*
X149129905Y-126530514D01*
X149129905Y-126530514D02*
X149177524Y-126435276D01*
X149177524Y-126435276D02*
X149272762Y-126340038D01*
X149272762Y-126340038D02*
X149415619Y-126292419D01*
X149415619Y-126292419D02*
X149510857Y-126292419D01*
X149510857Y-126292419D02*
X149653714Y-126340038D01*
X149653714Y-126340038D02*
X149701333Y-126387657D01*
X150082286Y-127244800D02*
X150225143Y-127292419D01*
X150225143Y-127292419D02*
X150463238Y-127292419D01*
X150463238Y-127292419D02*
X150558476Y-127244800D01*
X150558476Y-127244800D02*
X150606095Y-127197180D01*
X150606095Y-127197180D02*
X150653714Y-127101942D01*
X150653714Y-127101942D02*
X150653714Y-127006704D01*
X150653714Y-127006704D02*
X150606095Y-126911466D01*
X150606095Y-126911466D02*
X150558476Y-126863847D01*
X150558476Y-126863847D02*
X150463238Y-126816228D01*
X150463238Y-126816228D02*
X150272762Y-126768609D01*
X150272762Y-126768609D02*
X150177524Y-126720990D01*
X150177524Y-126720990D02*
X150129905Y-126673371D01*
X150129905Y-126673371D02*
X150082286Y-126578133D01*
X150082286Y-126578133D02*
X150082286Y-126482895D01*
X150082286Y-126482895D02*
X150129905Y-126387657D01*
X150129905Y-126387657D02*
X150177524Y-126340038D01*
X150177524Y-126340038D02*
X150272762Y-126292419D01*
X150272762Y-126292419D02*
X150510857Y-126292419D01*
X150510857Y-126292419D02*
X150653714Y-126340038D01*
X152646286Y-125461800D02*
X152789143Y-125509419D01*
X152789143Y-125509419D02*
X153027238Y-125509419D01*
X153027238Y-125509419D02*
X153122476Y-125461800D01*
X153122476Y-125461800D02*
X153170095Y-125414180D01*
X153170095Y-125414180D02*
X153217714Y-125318942D01*
X153217714Y-125318942D02*
X153217714Y-125223704D01*
X153217714Y-125223704D02*
X153170095Y-125128466D01*
X153170095Y-125128466D02*
X153122476Y-125080847D01*
X153122476Y-125080847D02*
X153027238Y-125033228D01*
X153027238Y-125033228D02*
X152836762Y-124985609D01*
X152836762Y-124985609D02*
X152741524Y-124937990D01*
X152741524Y-124937990D02*
X152693905Y-124890371D01*
X152693905Y-124890371D02*
X152646286Y-124795133D01*
X152646286Y-124795133D02*
X152646286Y-124699895D01*
X152646286Y-124699895D02*
X152693905Y-124604657D01*
X152693905Y-124604657D02*
X152741524Y-124557038D01*
X152741524Y-124557038D02*
X152836762Y-124509419D01*
X152836762Y-124509419D02*
X153074857Y-124509419D01*
X153074857Y-124509419D02*
X153217714Y-124557038D01*
X154217714Y-125414180D02*
X154170095Y-125461800D01*
X154170095Y-125461800D02*
X154027238Y-125509419D01*
X154027238Y-125509419D02*
X153932000Y-125509419D01*
X153932000Y-125509419D02*
X153789143Y-125461800D01*
X153789143Y-125461800D02*
X153693905Y-125366561D01*
X153693905Y-125366561D02*
X153646286Y-125271323D01*
X153646286Y-125271323D02*
X153598667Y-125080847D01*
X153598667Y-125080847D02*
X153598667Y-124937990D01*
X153598667Y-124937990D02*
X153646286Y-124747514D01*
X153646286Y-124747514D02*
X153693905Y-124652276D01*
X153693905Y-124652276D02*
X153789143Y-124557038D01*
X153789143Y-124557038D02*
X153932000Y-124509419D01*
X153932000Y-124509419D02*
X154027238Y-124509419D01*
X154027238Y-124509419D02*
X154170095Y-124557038D01*
X154170095Y-124557038D02*
X154217714Y-124604657D01*
X154646286Y-125509419D02*
X154646286Y-124509419D01*
X155217714Y-125509419D02*
X154789143Y-124937990D01*
X155217714Y-124509419D02*
X154646286Y-125080847D01*
X120394476Y-114252419D02*
X120394476Y-113252419D01*
X120394476Y-113252419D02*
X120727809Y-113966704D01*
X120727809Y-113966704D02*
X121061142Y-113252419D01*
X121061142Y-113252419D02*
X121061142Y-114252419D01*
X121442095Y-113252419D02*
X122061142Y-113252419D01*
X122061142Y-113252419D02*
X121727809Y-113633371D01*
X121727809Y-113633371D02*
X121870666Y-113633371D01*
X121870666Y-113633371D02*
X121965904Y-113680990D01*
X121965904Y-113680990D02*
X122013523Y-113728609D01*
X122013523Y-113728609D02*
X122061142Y-113823847D01*
X122061142Y-113823847D02*
X122061142Y-114061942D01*
X122061142Y-114061942D02*
X122013523Y-114157180D01*
X122013523Y-114157180D02*
X121965904Y-114204800D01*
X121965904Y-114204800D02*
X121870666Y-114252419D01*
X121870666Y-114252419D02*
X121584952Y-114252419D01*
X121584952Y-114252419D02*
X121489714Y-114204800D01*
X121489714Y-114204800D02*
X121442095Y-114157180D01*
X148296572Y-125514419D02*
X148296572Y-124514419D01*
X148296572Y-124514419D02*
X148629905Y-125228704D01*
X148629905Y-125228704D02*
X148963238Y-124514419D01*
X148963238Y-124514419D02*
X148963238Y-125514419D01*
X149439429Y-125514419D02*
X149439429Y-124514419D01*
X149868000Y-125466800D02*
X150010857Y-125514419D01*
X150010857Y-125514419D02*
X150248952Y-125514419D01*
X150248952Y-125514419D02*
X150344190Y-125466800D01*
X150344190Y-125466800D02*
X150391809Y-125419180D01*
X150391809Y-125419180D02*
X150439428Y-125323942D01*
X150439428Y-125323942D02*
X150439428Y-125228704D01*
X150439428Y-125228704D02*
X150391809Y-125133466D01*
X150391809Y-125133466D02*
X150344190Y-125085847D01*
X150344190Y-125085847D02*
X150248952Y-125038228D01*
X150248952Y-125038228D02*
X150058476Y-124990609D01*
X150058476Y-124990609D02*
X149963238Y-124942990D01*
X149963238Y-124942990D02*
X149915619Y-124895371D01*
X149915619Y-124895371D02*
X149868000Y-124800133D01*
X149868000Y-124800133D02*
X149868000Y-124704895D01*
X149868000Y-124704895D02*
X149915619Y-124609657D01*
X149915619Y-124609657D02*
X149963238Y-124562038D01*
X149963238Y-124562038D02*
X150058476Y-124514419D01*
X150058476Y-124514419D02*
X150296571Y-124514419D01*
X150296571Y-124514419D02*
X150439428Y-124562038D01*
X151058476Y-124514419D02*
X151248952Y-124514419D01*
X151248952Y-124514419D02*
X151344190Y-124562038D01*
X151344190Y-124562038D02*
X151439428Y-124657276D01*
X151439428Y-124657276D02*
X151487047Y-124847752D01*
X151487047Y-124847752D02*
X151487047Y-125181085D01*
X151487047Y-125181085D02*
X151439428Y-125371561D01*
X151439428Y-125371561D02*
X151344190Y-125466800D01*
X151344190Y-125466800D02*
X151248952Y-125514419D01*
X151248952Y-125514419D02*
X151058476Y-125514419D01*
X151058476Y-125514419D02*
X150963238Y-125466800D01*
X150963238Y-125466800D02*
X150868000Y-125371561D01*
X150868000Y-125371561D02*
X150820381Y-125181085D01*
X150820381Y-125181085D02*
X150820381Y-124847752D01*
X150820381Y-124847752D02*
X150868000Y-124657276D01*
X150868000Y-124657276D02*
X150963238Y-124562038D01*
X150963238Y-124562038D02*
X151058476Y-124514419D01*
X122934476Y-112474419D02*
X122934476Y-111474419D01*
X122934476Y-111474419D02*
X123267809Y-112188704D01*
X123267809Y-112188704D02*
X123601142Y-111474419D01*
X123601142Y-111474419D02*
X123601142Y-112474419D01*
X124029714Y-111569657D02*
X124077333Y-111522038D01*
X124077333Y-111522038D02*
X124172571Y-111474419D01*
X124172571Y-111474419D02*
X124410666Y-111474419D01*
X124410666Y-111474419D02*
X124505904Y-111522038D01*
X124505904Y-111522038D02*
X124553523Y-111569657D01*
X124553523Y-111569657D02*
X124601142Y-111664895D01*
X124601142Y-111664895D02*
X124601142Y-111760133D01*
X124601142Y-111760133D02*
X124553523Y-111902990D01*
X124553523Y-111902990D02*
X123982095Y-112474419D01*
X123982095Y-112474419D02*
X124601142Y-112474419D01*
X120394476Y-112474419D02*
X120394476Y-111474419D01*
X120394476Y-111474419D02*
X120727809Y-112188704D01*
X120727809Y-112188704D02*
X121061142Y-111474419D01*
X121061142Y-111474419D02*
X121061142Y-112474419D01*
X121965904Y-111807752D02*
X121965904Y-112474419D01*
X121727809Y-111426800D02*
X121489714Y-112141085D01*
X121489714Y-112141085D02*
X122108761Y-112141085D01*
X142349523Y-124518419D02*
X141873333Y-124518419D01*
X141873333Y-124518419D02*
X141825714Y-124994609D01*
X141825714Y-124994609D02*
X141873333Y-124946990D01*
X141873333Y-124946990D02*
X141968571Y-124899371D01*
X141968571Y-124899371D02*
X142206666Y-124899371D01*
X142206666Y-124899371D02*
X142301904Y-124946990D01*
X142301904Y-124946990D02*
X142349523Y-124994609D01*
X142349523Y-124994609D02*
X142397142Y-125089847D01*
X142397142Y-125089847D02*
X142397142Y-125327942D01*
X142397142Y-125327942D02*
X142349523Y-125423180D01*
X142349523Y-125423180D02*
X142301904Y-125470800D01*
X142301904Y-125470800D02*
X142206666Y-125518419D01*
X142206666Y-125518419D02*
X141968571Y-125518419D01*
X141968571Y-125518419D02*
X141873333Y-125470800D01*
X141873333Y-125470800D02*
X141825714Y-125423180D01*
X142682857Y-124518419D02*
X143016190Y-125518419D01*
X143016190Y-125518419D02*
X143349523Y-124518419D01*
X117394095Y-113300038D02*
X117298857Y-113252419D01*
X117298857Y-113252419D02*
X117156000Y-113252419D01*
X117156000Y-113252419D02*
X117013143Y-113300038D01*
X117013143Y-113300038D02*
X116917905Y-113395276D01*
X116917905Y-113395276D02*
X116870286Y-113490514D01*
X116870286Y-113490514D02*
X116822667Y-113680990D01*
X116822667Y-113680990D02*
X116822667Y-113823847D01*
X116822667Y-113823847D02*
X116870286Y-114014323D01*
X116870286Y-114014323D02*
X116917905Y-114109561D01*
X116917905Y-114109561D02*
X117013143Y-114204800D01*
X117013143Y-114204800D02*
X117156000Y-114252419D01*
X117156000Y-114252419D02*
X117251238Y-114252419D01*
X117251238Y-114252419D02*
X117394095Y-114204800D01*
X117394095Y-114204800D02*
X117441714Y-114157180D01*
X117441714Y-114157180D02*
X117441714Y-113823847D01*
X117441714Y-113823847D02*
X117251238Y-113823847D01*
X117870286Y-114252419D02*
X117870286Y-113252419D01*
X117870286Y-113252419D02*
X118441714Y-114252419D01*
X118441714Y-114252419D02*
X118441714Y-113252419D01*
X118917905Y-114252419D02*
X118917905Y-113252419D01*
X118917905Y-113252419D02*
X119156000Y-113252419D01*
X119156000Y-113252419D02*
X119298857Y-113300038D01*
X119298857Y-113300038D02*
X119394095Y-113395276D01*
X119394095Y-113395276D02*
X119441714Y-113490514D01*
X119441714Y-113490514D02*
X119489333Y-113680990D01*
X119489333Y-113680990D02*
X119489333Y-113823847D01*
X119489333Y-113823847D02*
X119441714Y-114014323D01*
X119441714Y-114014323D02*
X119394095Y-114109561D01*
X119394095Y-114109561D02*
X119298857Y-114204800D01*
X119298857Y-114204800D02*
X119156000Y-114252419D01*
X119156000Y-114252419D02*
X118917905Y-114252419D01*
X116513143Y-111474419D02*
X116846476Y-112474419D01*
X116846476Y-112474419D02*
X117179809Y-111474419D01*
X117846476Y-111950609D02*
X117989333Y-111998228D01*
X117989333Y-111998228D02*
X118036952Y-112045847D01*
X118036952Y-112045847D02*
X118084571Y-112141085D01*
X118084571Y-112141085D02*
X118084571Y-112283942D01*
X118084571Y-112283942D02*
X118036952Y-112379180D01*
X118036952Y-112379180D02*
X117989333Y-112426800D01*
X117989333Y-112426800D02*
X117894095Y-112474419D01*
X117894095Y-112474419D02*
X117513143Y-112474419D01*
X117513143Y-112474419D02*
X117513143Y-111474419D01*
X117513143Y-111474419D02*
X117846476Y-111474419D01*
X117846476Y-111474419D02*
X117941714Y-111522038D01*
X117941714Y-111522038D02*
X117989333Y-111569657D01*
X117989333Y-111569657D02*
X118036952Y-111664895D01*
X118036952Y-111664895D02*
X118036952Y-111760133D01*
X118036952Y-111760133D02*
X117989333Y-111855371D01*
X117989333Y-111855371D02*
X117941714Y-111902990D01*
X117941714Y-111902990D02*
X117846476Y-111950609D01*
X117846476Y-111950609D02*
X117513143Y-111950609D01*
X118465524Y-112188704D02*
X118941714Y-112188704D01*
X118370286Y-112474419D02*
X118703619Y-111474419D01*
X118703619Y-111474419D02*
X119036952Y-112474419D01*
X119227429Y-111474419D02*
X119798857Y-111474419D01*
X119513143Y-112474419D02*
X119513143Y-111474419D01*
X152360572Y-127292419D02*
X152360572Y-126292419D01*
X152360572Y-126292419D02*
X152693905Y-127006704D01*
X152693905Y-127006704D02*
X153027238Y-126292419D01*
X153027238Y-126292419D02*
X153027238Y-127292419D01*
X153693905Y-126292419D02*
X153884381Y-126292419D01*
X153884381Y-126292419D02*
X153979619Y-126340038D01*
X153979619Y-126340038D02*
X154074857Y-126435276D01*
X154074857Y-126435276D02*
X154122476Y-126625752D01*
X154122476Y-126625752D02*
X154122476Y-126959085D01*
X154122476Y-126959085D02*
X154074857Y-127149561D01*
X154074857Y-127149561D02*
X153979619Y-127244800D01*
X153979619Y-127244800D02*
X153884381Y-127292419D01*
X153884381Y-127292419D02*
X153693905Y-127292419D01*
X153693905Y-127292419D02*
X153598667Y-127244800D01*
X153598667Y-127244800D02*
X153503429Y-127149561D01*
X153503429Y-127149561D02*
X153455810Y-126959085D01*
X153455810Y-126959085D02*
X153455810Y-126625752D01*
X153455810Y-126625752D02*
X153503429Y-126435276D01*
X153503429Y-126435276D02*
X153598667Y-126340038D01*
X153598667Y-126340038D02*
X153693905Y-126292419D01*
X154503429Y-127244800D02*
X154646286Y-127292419D01*
X154646286Y-127292419D02*
X154884381Y-127292419D01*
X154884381Y-127292419D02*
X154979619Y-127244800D01*
X154979619Y-127244800D02*
X155027238Y-127197180D01*
X155027238Y-127197180D02*
X155074857Y-127101942D01*
X155074857Y-127101942D02*
X155074857Y-127006704D01*
X155074857Y-127006704D02*
X155027238Y-126911466D01*
X155027238Y-126911466D02*
X154979619Y-126863847D01*
X154979619Y-126863847D02*
X154884381Y-126816228D01*
X154884381Y-126816228D02*
X154693905Y-126768609D01*
X154693905Y-126768609D02*
X154598667Y-126720990D01*
X154598667Y-126720990D02*
X154551048Y-126673371D01*
X154551048Y-126673371D02*
X154503429Y-126578133D01*
X154503429Y-126578133D02*
X154503429Y-126482895D01*
X154503429Y-126482895D02*
X154551048Y-126387657D01*
X154551048Y-126387657D02*
X154598667Y-126340038D01*
X154598667Y-126340038D02*
X154693905Y-126292419D01*
X154693905Y-126292419D02*
X154932000Y-126292419D01*
X154932000Y-126292419D02*
X155074857Y-126340038D01*
X155503429Y-127292419D02*
X155503429Y-126292419D01*
D11*
X132213333Y-124232819D02*
X131880000Y-123756628D01*
X131641905Y-124232819D02*
X131641905Y-123232819D01*
X131641905Y-123232819D02*
X132022857Y-123232819D01*
X132022857Y-123232819D02*
X132118095Y-123280438D01*
X132118095Y-123280438D02*
X132165714Y-123328057D01*
X132165714Y-123328057D02*
X132213333Y-123423295D01*
X132213333Y-123423295D02*
X132213333Y-123566152D01*
X132213333Y-123566152D02*
X132165714Y-123661390D01*
X132165714Y-123661390D02*
X132118095Y-123709009D01*
X132118095Y-123709009D02*
X132022857Y-123756628D01*
X132022857Y-123756628D02*
X131641905Y-123756628D01*
X133165714Y-124232819D02*
X132594286Y-124232819D01*
X132880000Y-124232819D02*
X132880000Y-123232819D01*
X132880000Y-123232819D02*
X132784762Y-123375676D01*
X132784762Y-123375676D02*
X132689524Y-123470914D01*
X132689524Y-123470914D02*
X132594286Y-123518533D01*
X150400000Y-135117200D02*
X150542857Y-135164819D01*
X150542857Y-135164819D02*
X150780952Y-135164819D01*
X150780952Y-135164819D02*
X150876190Y-135117200D01*
X150876190Y-135117200D02*
X150923809Y-135069580D01*
X150923809Y-135069580D02*
X150971428Y-134974342D01*
X150971428Y-134974342D02*
X150971428Y-134879104D01*
X150971428Y-134879104D02*
X150923809Y-134783866D01*
X150923809Y-134783866D02*
X150876190Y-134736247D01*
X150876190Y-134736247D02*
X150780952Y-134688628D01*
X150780952Y-134688628D02*
X150590476Y-134641009D01*
X150590476Y-134641009D02*
X150495238Y-134593390D01*
X150495238Y-134593390D02*
X150447619Y-134545771D01*
X150447619Y-134545771D02*
X150400000Y-134450533D01*
X150400000Y-134450533D02*
X150400000Y-134355295D01*
X150400000Y-134355295D02*
X150447619Y-134260057D01*
X150447619Y-134260057D02*
X150495238Y-134212438D01*
X150495238Y-134212438D02*
X150590476Y-134164819D01*
X150590476Y-134164819D02*
X150828571Y-134164819D01*
X150828571Y-134164819D02*
X150971428Y-134212438D01*
X151400000Y-135164819D02*
X151400000Y-134164819D01*
X151400000Y-134164819D02*
X151780952Y-134164819D01*
X151780952Y-134164819D02*
X151876190Y-134212438D01*
X151876190Y-134212438D02*
X151923809Y-134260057D01*
X151923809Y-134260057D02*
X151971428Y-134355295D01*
X151971428Y-134355295D02*
X151971428Y-134498152D01*
X151971428Y-134498152D02*
X151923809Y-134593390D01*
X151923809Y-134593390D02*
X151876190Y-134641009D01*
X151876190Y-134641009D02*
X151780952Y-134688628D01*
X151780952Y-134688628D02*
X151400000Y-134688628D01*
X152400000Y-135164819D02*
X152400000Y-134164819D01*
X153399999Y-135164819D02*
X152828571Y-135164819D01*
X153114285Y-135164819D02*
X153114285Y-134164819D01*
X153114285Y-134164819D02*
X153019047Y-134307676D01*
X153019047Y-134307676D02*
X152923809Y-134402914D01*
X152923809Y-134402914D02*
X152828571Y-134450533D01*
X137857142Y-134159819D02*
X137857142Y-134874104D01*
X137857142Y-134874104D02*
X137809523Y-135016961D01*
X137809523Y-135016961D02*
X137714285Y-135112200D01*
X137714285Y-135112200D02*
X137571428Y-135159819D01*
X137571428Y-135159819D02*
X137476190Y-135159819D01*
X138333333Y-134636009D02*
X138666666Y-134636009D01*
X138809523Y-135159819D02*
X138333333Y-135159819D01*
X138333333Y-135159819D02*
X138333333Y-134159819D01*
X138333333Y-134159819D02*
X138809523Y-134159819D01*
X139095238Y-134159819D02*
X139666666Y-134159819D01*
X139380952Y-135159819D02*
X139380952Y-134159819D01*
X139952381Y-135112200D02*
X140095238Y-135159819D01*
X140095238Y-135159819D02*
X140333333Y-135159819D01*
X140333333Y-135159819D02*
X140428571Y-135112200D01*
X140428571Y-135112200D02*
X140476190Y-135064580D01*
X140476190Y-135064580D02*
X140523809Y-134969342D01*
X140523809Y-134969342D02*
X140523809Y-134874104D01*
X140523809Y-134874104D02*
X140476190Y-134778866D01*
X140476190Y-134778866D02*
X140428571Y-134731247D01*
X140428571Y-134731247D02*
X140333333Y-134683628D01*
X140333333Y-134683628D02*
X140142857Y-134636009D01*
X140142857Y-134636009D02*
X140047619Y-134588390D01*
X140047619Y-134588390D02*
X140000000Y-134540771D01*
X140000000Y-134540771D02*
X139952381Y-134445533D01*
X139952381Y-134445533D02*
X139952381Y-134350295D01*
X139952381Y-134350295D02*
X140000000Y-134255057D01*
X140000000Y-134255057D02*
X140047619Y-134207438D01*
X140047619Y-134207438D02*
X140142857Y-134159819D01*
X140142857Y-134159819D02*
X140380952Y-134159819D01*
X140380952Y-134159819D02*
X140523809Y-134207438D01*
X141142857Y-134159819D02*
X141333333Y-134159819D01*
X141333333Y-134159819D02*
X141428571Y-134207438D01*
X141428571Y-134207438D02*
X141523809Y-134302676D01*
X141523809Y-134302676D02*
X141571428Y-134493152D01*
X141571428Y-134493152D02*
X141571428Y-134826485D01*
X141571428Y-134826485D02*
X141523809Y-135016961D01*
X141523809Y-135016961D02*
X141428571Y-135112200D01*
X141428571Y-135112200D02*
X141333333Y-135159819D01*
X141333333Y-135159819D02*
X141142857Y-135159819D01*
X141142857Y-135159819D02*
X141047619Y-135112200D01*
X141047619Y-135112200D02*
X140952381Y-135016961D01*
X140952381Y-135016961D02*
X140904762Y-134826485D01*
X140904762Y-134826485D02*
X140904762Y-134493152D01*
X140904762Y-134493152D02*
X140952381Y-134302676D01*
X140952381Y-134302676D02*
X141047619Y-134207438D01*
X141047619Y-134207438D02*
X141142857Y-134159819D01*
X142000000Y-135159819D02*
X142000000Y-134159819D01*
X142000000Y-134159819D02*
X142571428Y-135159819D01*
X142571428Y-135159819D02*
X142571428Y-134159819D01*
X142809524Y-135255057D02*
X143571428Y-135255057D01*
X143809524Y-135159819D02*
X143809524Y-134159819D01*
X143809524Y-134159819D02*
X144190476Y-134159819D01*
X144190476Y-134159819D02*
X144285714Y-134207438D01*
X144285714Y-134207438D02*
X144333333Y-134255057D01*
X144333333Y-134255057D02*
X144380952Y-134350295D01*
X144380952Y-134350295D02*
X144380952Y-134493152D01*
X144380952Y-134493152D02*
X144333333Y-134588390D01*
X144333333Y-134588390D02*
X144285714Y-134636009D01*
X144285714Y-134636009D02*
X144190476Y-134683628D01*
X144190476Y-134683628D02*
X143809524Y-134683628D01*
X144714286Y-134159819D02*
X144952381Y-135159819D01*
X144952381Y-135159819D02*
X145142857Y-134445533D01*
X145142857Y-134445533D02*
X145333333Y-135159819D01*
X145333333Y-135159819D02*
X145571429Y-134159819D01*
X146523809Y-135159819D02*
X146190476Y-134683628D01*
X145952381Y-135159819D02*
X145952381Y-134159819D01*
X145952381Y-134159819D02*
X146333333Y-134159819D01*
X146333333Y-134159819D02*
X146428571Y-134207438D01*
X146428571Y-134207438D02*
X146476190Y-134255057D01*
X146476190Y-134255057D02*
X146523809Y-134350295D01*
X146523809Y-134350295D02*
X146523809Y-134493152D01*
X146523809Y-134493152D02*
X146476190Y-134588390D01*
X146476190Y-134588390D02*
X146428571Y-134636009D01*
X146428571Y-134636009D02*
X146333333Y-134683628D01*
X146333333Y-134683628D02*
X145952381Y-134683628D01*
X147476190Y-135159819D02*
X146904762Y-135159819D01*
X147190476Y-135159819D02*
X147190476Y-134159819D01*
X147190476Y-134159819D02*
X147095238Y-134302676D01*
X147095238Y-134302676D02*
X147000000Y-134397914D01*
X147000000Y-134397914D02*
X146904762Y-134445533D01*
X129443333Y-104661009D02*
X129776666Y-104661009D01*
X129919523Y-105184819D02*
X129443333Y-105184819D01*
X129443333Y-105184819D02*
X129443333Y-104184819D01*
X129443333Y-104184819D02*
X129919523Y-104184819D01*
X130300476Y-105137200D02*
X130443333Y-105184819D01*
X130443333Y-105184819D02*
X130681428Y-105184819D01*
X130681428Y-105184819D02*
X130776666Y-105137200D01*
X130776666Y-105137200D02*
X130824285Y-105089580D01*
X130824285Y-105089580D02*
X130871904Y-104994342D01*
X130871904Y-104994342D02*
X130871904Y-104899104D01*
X130871904Y-104899104D02*
X130824285Y-104803866D01*
X130824285Y-104803866D02*
X130776666Y-104756247D01*
X130776666Y-104756247D02*
X130681428Y-104708628D01*
X130681428Y-104708628D02*
X130490952Y-104661009D01*
X130490952Y-104661009D02*
X130395714Y-104613390D01*
X130395714Y-104613390D02*
X130348095Y-104565771D01*
X130348095Y-104565771D02*
X130300476Y-104470533D01*
X130300476Y-104470533D02*
X130300476Y-104375295D01*
X130300476Y-104375295D02*
X130348095Y-104280057D01*
X130348095Y-104280057D02*
X130395714Y-104232438D01*
X130395714Y-104232438D02*
X130490952Y-104184819D01*
X130490952Y-104184819D02*
X130729047Y-104184819D01*
X130729047Y-104184819D02*
X130871904Y-104232438D01*
X131871904Y-105089580D02*
X131824285Y-105137200D01*
X131824285Y-105137200D02*
X131681428Y-105184819D01*
X131681428Y-105184819D02*
X131586190Y-105184819D01*
X131586190Y-105184819D02*
X131443333Y-105137200D01*
X131443333Y-105137200D02*
X131348095Y-105041961D01*
X131348095Y-105041961D02*
X131300476Y-104946723D01*
X131300476Y-104946723D02*
X131252857Y-104756247D01*
X131252857Y-104756247D02*
X131252857Y-104613390D01*
X131252857Y-104613390D02*
X131300476Y-104422914D01*
X131300476Y-104422914D02*
X131348095Y-104327676D01*
X131348095Y-104327676D02*
X131443333Y-104232438D01*
X131443333Y-104232438D02*
X131586190Y-104184819D01*
X131586190Y-104184819D02*
X131681428Y-104184819D01*
X131681428Y-104184819D02*
X131824285Y-104232438D01*
X131824285Y-104232438D02*
X131871904Y-104280057D01*
X132824285Y-105184819D02*
X132252857Y-105184819D01*
X132538571Y-105184819D02*
X132538571Y-104184819D01*
X132538571Y-104184819D02*
X132443333Y-104327676D01*
X132443333Y-104327676D02*
X132348095Y-104422914D01*
X132348095Y-104422914D02*
X132252857Y-104470533D01*
X116229580Y-120642666D02*
X116277200Y-120690285D01*
X116277200Y-120690285D02*
X116324819Y-120833142D01*
X116324819Y-120833142D02*
X116324819Y-120928380D01*
X116324819Y-120928380D02*
X116277200Y-121071237D01*
X116277200Y-121071237D02*
X116181961Y-121166475D01*
X116181961Y-121166475D02*
X116086723Y-121214094D01*
X116086723Y-121214094D02*
X115896247Y-121261713D01*
X115896247Y-121261713D02*
X115753390Y-121261713D01*
X115753390Y-121261713D02*
X115562914Y-121214094D01*
X115562914Y-121214094D02*
X115467676Y-121166475D01*
X115467676Y-121166475D02*
X115372438Y-121071237D01*
X115372438Y-121071237D02*
X115324819Y-120928380D01*
X115324819Y-120928380D02*
X115324819Y-120833142D01*
X115324819Y-120833142D02*
X115372438Y-120690285D01*
X115372438Y-120690285D02*
X115420057Y-120642666D01*
X115324819Y-119785523D02*
X115324819Y-119975999D01*
X115324819Y-119975999D02*
X115372438Y-120071237D01*
X115372438Y-120071237D02*
X115420057Y-120118856D01*
X115420057Y-120118856D02*
X115562914Y-120214094D01*
X115562914Y-120214094D02*
X115753390Y-120261713D01*
X115753390Y-120261713D02*
X116134342Y-120261713D01*
X116134342Y-120261713D02*
X116229580Y-120214094D01*
X116229580Y-120214094D02*
X116277200Y-120166475D01*
X116277200Y-120166475D02*
X116324819Y-120071237D01*
X116324819Y-120071237D02*
X116324819Y-119880761D01*
X116324819Y-119880761D02*
X116277200Y-119785523D01*
X116277200Y-119785523D02*
X116229580Y-119737904D01*
X116229580Y-119737904D02*
X116134342Y-119690285D01*
X116134342Y-119690285D02*
X115896247Y-119690285D01*
X115896247Y-119690285D02*
X115801009Y-119737904D01*
X115801009Y-119737904D02*
X115753390Y-119785523D01*
X115753390Y-119785523D02*
X115705771Y-119880761D01*
X115705771Y-119880761D02*
X115705771Y-120071237D01*
X115705771Y-120071237D02*
X115753390Y-120166475D01*
X115753390Y-120166475D02*
X115801009Y-120214094D01*
X115801009Y-120214094D02*
X115896247Y-120261713D01*
X129959580Y-115704166D02*
X130007200Y-115751785D01*
X130007200Y-115751785D02*
X130054819Y-115894642D01*
X130054819Y-115894642D02*
X130054819Y-115989880D01*
X130054819Y-115989880D02*
X130007200Y-116132737D01*
X130007200Y-116132737D02*
X129911961Y-116227975D01*
X129911961Y-116227975D02*
X129816723Y-116275594D01*
X129816723Y-116275594D02*
X129626247Y-116323213D01*
X129626247Y-116323213D02*
X129483390Y-116323213D01*
X129483390Y-116323213D02*
X129292914Y-116275594D01*
X129292914Y-116275594D02*
X129197676Y-116227975D01*
X129197676Y-116227975D02*
X129102438Y-116132737D01*
X129102438Y-116132737D02*
X129054819Y-115989880D01*
X129054819Y-115989880D02*
X129054819Y-115894642D01*
X129054819Y-115894642D02*
X129102438Y-115751785D01*
X129102438Y-115751785D02*
X129150057Y-115704166D01*
X129054819Y-115370832D02*
X129054819Y-114704166D01*
X129054819Y-114704166D02*
X130054819Y-115132737D01*
X126454819Y-115666666D02*
X125978628Y-115999999D01*
X126454819Y-116238094D02*
X125454819Y-116238094D01*
X125454819Y-116238094D02*
X125454819Y-115857142D01*
X125454819Y-115857142D02*
X125502438Y-115761904D01*
X125502438Y-115761904D02*
X125550057Y-115714285D01*
X125550057Y-115714285D02*
X125645295Y-115666666D01*
X125645295Y-115666666D02*
X125788152Y-115666666D01*
X125788152Y-115666666D02*
X125883390Y-115714285D01*
X125883390Y-115714285D02*
X125931009Y-115761904D01*
X125931009Y-115761904D02*
X125978628Y-115857142D01*
X125978628Y-115857142D02*
X125978628Y-116238094D01*
X125454819Y-115333332D02*
X125454819Y-114714285D01*
X125454819Y-114714285D02*
X125835771Y-115047618D01*
X125835771Y-115047618D02*
X125835771Y-114904761D01*
X125835771Y-114904761D02*
X125883390Y-114809523D01*
X125883390Y-114809523D02*
X125931009Y-114761904D01*
X125931009Y-114761904D02*
X126026247Y-114714285D01*
X126026247Y-114714285D02*
X126264342Y-114714285D01*
X126264342Y-114714285D02*
X126359580Y-114761904D01*
X126359580Y-114761904D02*
X126407200Y-114809523D01*
X126407200Y-114809523D02*
X126454819Y-114904761D01*
X126454819Y-114904761D02*
X126454819Y-115190475D01*
X126454819Y-115190475D02*
X126407200Y-115285713D01*
X126407200Y-115285713D02*
X126359580Y-115333332D01*
X135261333Y-115247580D02*
X135213714Y-115295200D01*
X135213714Y-115295200D02*
X135070857Y-115342819D01*
X135070857Y-115342819D02*
X134975619Y-115342819D01*
X134975619Y-115342819D02*
X134832762Y-115295200D01*
X134832762Y-115295200D02*
X134737524Y-115199961D01*
X134737524Y-115199961D02*
X134689905Y-115104723D01*
X134689905Y-115104723D02*
X134642286Y-114914247D01*
X134642286Y-114914247D02*
X134642286Y-114771390D01*
X134642286Y-114771390D02*
X134689905Y-114580914D01*
X134689905Y-114580914D02*
X134737524Y-114485676D01*
X134737524Y-114485676D02*
X134832762Y-114390438D01*
X134832762Y-114390438D02*
X134975619Y-114342819D01*
X134975619Y-114342819D02*
X135070857Y-114342819D01*
X135070857Y-114342819D02*
X135213714Y-114390438D01*
X135213714Y-114390438D02*
X135261333Y-114438057D01*
X135642286Y-114438057D02*
X135689905Y-114390438D01*
X135689905Y-114390438D02*
X135785143Y-114342819D01*
X135785143Y-114342819D02*
X136023238Y-114342819D01*
X136023238Y-114342819D02*
X136118476Y-114390438D01*
X136118476Y-114390438D02*
X136166095Y-114438057D01*
X136166095Y-114438057D02*
X136213714Y-114533295D01*
X136213714Y-114533295D02*
X136213714Y-114628533D01*
X136213714Y-114628533D02*
X136166095Y-114771390D01*
X136166095Y-114771390D02*
X135594667Y-115342819D01*
X135594667Y-115342819D02*
X136213714Y-115342819D01*
X146654580Y-128531666D02*
X146702200Y-128579285D01*
X146702200Y-128579285D02*
X146749819Y-128722142D01*
X146749819Y-128722142D02*
X146749819Y-128817380D01*
X146749819Y-128817380D02*
X146702200Y-128960237D01*
X146702200Y-128960237D02*
X146606961Y-129055475D01*
X146606961Y-129055475D02*
X146511723Y-129103094D01*
X146511723Y-129103094D02*
X146321247Y-129150713D01*
X146321247Y-129150713D02*
X146178390Y-129150713D01*
X146178390Y-129150713D02*
X145987914Y-129103094D01*
X145987914Y-129103094D02*
X145892676Y-129055475D01*
X145892676Y-129055475D02*
X145797438Y-128960237D01*
X145797438Y-128960237D02*
X145749819Y-128817380D01*
X145749819Y-128817380D02*
X145749819Y-128722142D01*
X145749819Y-128722142D02*
X145797438Y-128579285D01*
X145797438Y-128579285D02*
X145845057Y-128531666D01*
X146749819Y-127579285D02*
X146749819Y-128150713D01*
X146749819Y-127864999D02*
X145749819Y-127864999D01*
X145749819Y-127864999D02*
X145892676Y-127960237D01*
X145892676Y-127960237D02*
X145987914Y-128055475D01*
X145987914Y-128055475D02*
X146035533Y-128150713D01*
X119386667Y-134408819D02*
X119720000Y-135408819D01*
X119720000Y-135408819D02*
X120053333Y-134408819D01*
X120720000Y-134885009D02*
X120862857Y-134932628D01*
X120862857Y-134932628D02*
X120910476Y-134980247D01*
X120910476Y-134980247D02*
X120958095Y-135075485D01*
X120958095Y-135075485D02*
X120958095Y-135218342D01*
X120958095Y-135218342D02*
X120910476Y-135313580D01*
X120910476Y-135313580D02*
X120862857Y-135361200D01*
X120862857Y-135361200D02*
X120767619Y-135408819D01*
X120767619Y-135408819D02*
X120386667Y-135408819D01*
X120386667Y-135408819D02*
X120386667Y-134408819D01*
X120386667Y-134408819D02*
X120720000Y-134408819D01*
X120720000Y-134408819D02*
X120815238Y-134456438D01*
X120815238Y-134456438D02*
X120862857Y-134504057D01*
X120862857Y-134504057D02*
X120910476Y-134599295D01*
X120910476Y-134599295D02*
X120910476Y-134694533D01*
X120910476Y-134694533D02*
X120862857Y-134789771D01*
X120862857Y-134789771D02*
X120815238Y-134837390D01*
X120815238Y-134837390D02*
X120720000Y-134885009D01*
X120720000Y-134885009D02*
X120386667Y-134885009D01*
X121386667Y-134408819D02*
X121386667Y-135218342D01*
X121386667Y-135218342D02*
X121434286Y-135313580D01*
X121434286Y-135313580D02*
X121481905Y-135361200D01*
X121481905Y-135361200D02*
X121577143Y-135408819D01*
X121577143Y-135408819D02*
X121767619Y-135408819D01*
X121767619Y-135408819D02*
X121862857Y-135361200D01*
X121862857Y-135361200D02*
X121910476Y-135313580D01*
X121910476Y-135313580D02*
X121958095Y-135218342D01*
X121958095Y-135218342D02*
X121958095Y-134408819D01*
X123005714Y-135313580D02*
X122958095Y-135361200D01*
X122958095Y-135361200D02*
X122815238Y-135408819D01*
X122815238Y-135408819D02*
X122720000Y-135408819D01*
X122720000Y-135408819D02*
X122577143Y-135361200D01*
X122577143Y-135361200D02*
X122481905Y-135265961D01*
X122481905Y-135265961D02*
X122434286Y-135170723D01*
X122434286Y-135170723D02*
X122386667Y-134980247D01*
X122386667Y-134980247D02*
X122386667Y-134837390D01*
X122386667Y-134837390D02*
X122434286Y-134646914D01*
X122434286Y-134646914D02*
X122481905Y-134551676D01*
X122481905Y-134551676D02*
X122577143Y-134456438D01*
X122577143Y-134456438D02*
X122720000Y-134408819D01*
X122720000Y-134408819D02*
X122815238Y-134408819D01*
X122815238Y-134408819D02*
X122958095Y-134456438D01*
X122958095Y-134456438D02*
X123005714Y-134504057D01*
X123434286Y-135408819D02*
X123434286Y-134408819D01*
X124005714Y-135408819D02*
X123577143Y-134837390D01*
X124005714Y-134408819D02*
X123434286Y-134980247D01*
X124958095Y-135408819D02*
X124386667Y-135408819D01*
X124672381Y-135408819D02*
X124672381Y-134408819D01*
X124672381Y-134408819D02*
X124577143Y-134551676D01*
X124577143Y-134551676D02*
X124481905Y-134646914D01*
X124481905Y-134646914D02*
X124386667Y-134694533D01*
X131618095Y-114342819D02*
X131618095Y-115152342D01*
X131618095Y-115152342D02*
X131665714Y-115247580D01*
X131665714Y-115247580D02*
X131713333Y-115295200D01*
X131713333Y-115295200D02*
X131808571Y-115342819D01*
X131808571Y-115342819D02*
X131999047Y-115342819D01*
X131999047Y-115342819D02*
X132094285Y-115295200D01*
X132094285Y-115295200D02*
X132141904Y-115247580D01*
X132141904Y-115247580D02*
X132189523Y-115152342D01*
X132189523Y-115152342D02*
X132189523Y-114342819D01*
X133189523Y-115342819D02*
X132618095Y-115342819D01*
X132903809Y-115342819D02*
X132903809Y-114342819D01*
X132903809Y-114342819D02*
X132808571Y-114485676D01*
X132808571Y-114485676D02*
X132713333Y-114580914D01*
X132713333Y-114580914D02*
X132618095Y-114628533D01*
X124918761Y-119576057D02*
X124823523Y-119528438D01*
X124823523Y-119528438D02*
X124728285Y-119433200D01*
X124728285Y-119433200D02*
X124585428Y-119290342D01*
X124585428Y-119290342D02*
X124490190Y-119242723D01*
X124490190Y-119242723D02*
X124394952Y-119242723D01*
X124442571Y-119480819D02*
X124347333Y-119433200D01*
X124347333Y-119433200D02*
X124252095Y-119337961D01*
X124252095Y-119337961D02*
X124204476Y-119147485D01*
X124204476Y-119147485D02*
X124204476Y-118814152D01*
X124204476Y-118814152D02*
X124252095Y-118623676D01*
X124252095Y-118623676D02*
X124347333Y-118528438D01*
X124347333Y-118528438D02*
X124442571Y-118480819D01*
X124442571Y-118480819D02*
X124633047Y-118480819D01*
X124633047Y-118480819D02*
X124728285Y-118528438D01*
X124728285Y-118528438D02*
X124823523Y-118623676D01*
X124823523Y-118623676D02*
X124871142Y-118814152D01*
X124871142Y-118814152D02*
X124871142Y-119147485D01*
X124871142Y-119147485D02*
X124823523Y-119337961D01*
X124823523Y-119337961D02*
X124728285Y-119433200D01*
X124728285Y-119433200D02*
X124633047Y-119480819D01*
X124633047Y-119480819D02*
X124442571Y-119480819D01*
X125823523Y-119480819D02*
X125252095Y-119480819D01*
X125537809Y-119480819D02*
X125537809Y-118480819D01*
X125537809Y-118480819D02*
X125442571Y-118623676D01*
X125442571Y-118623676D02*
X125347333Y-118718914D01*
X125347333Y-118718914D02*
X125252095Y-118766533D01*
X130047333Y-134477580D02*
X129999714Y-134525200D01*
X129999714Y-134525200D02*
X129856857Y-134572819D01*
X129856857Y-134572819D02*
X129761619Y-134572819D01*
X129761619Y-134572819D02*
X129618762Y-134525200D01*
X129618762Y-134525200D02*
X129523524Y-134429961D01*
X129523524Y-134429961D02*
X129475905Y-134334723D01*
X129475905Y-134334723D02*
X129428286Y-134144247D01*
X129428286Y-134144247D02*
X129428286Y-134001390D01*
X129428286Y-134001390D02*
X129475905Y-133810914D01*
X129475905Y-133810914D02*
X129523524Y-133715676D01*
X129523524Y-133715676D02*
X129618762Y-133620438D01*
X129618762Y-133620438D02*
X129761619Y-133572819D01*
X129761619Y-133572819D02*
X129856857Y-133572819D01*
X129856857Y-133572819D02*
X129999714Y-133620438D01*
X129999714Y-133620438D02*
X130047333Y-133668057D01*
X130952095Y-133572819D02*
X130475905Y-133572819D01*
X130475905Y-133572819D02*
X130428286Y-134049009D01*
X130428286Y-134049009D02*
X130475905Y-134001390D01*
X130475905Y-134001390D02*
X130571143Y-133953771D01*
X130571143Y-133953771D02*
X130809238Y-133953771D01*
X130809238Y-133953771D02*
X130904476Y-134001390D01*
X130904476Y-134001390D02*
X130952095Y-134049009D01*
X130952095Y-134049009D02*
X130999714Y-134144247D01*
X130999714Y-134144247D02*
X130999714Y-134382342D01*
X130999714Y-134382342D02*
X130952095Y-134477580D01*
X130952095Y-134477580D02*
X130904476Y-134525200D01*
X130904476Y-134525200D02*
X130809238Y-134572819D01*
X130809238Y-134572819D02*
X130571143Y-134572819D01*
X130571143Y-134572819D02*
X130475905Y-134525200D01*
X130475905Y-134525200D02*
X130428286Y-134477580D01*
X117539333Y-123629580D02*
X117491714Y-123677200D01*
X117491714Y-123677200D02*
X117348857Y-123724819D01*
X117348857Y-123724819D02*
X117253619Y-123724819D01*
X117253619Y-123724819D02*
X117110762Y-123677200D01*
X117110762Y-123677200D02*
X117015524Y-123581961D01*
X117015524Y-123581961D02*
X116967905Y-123486723D01*
X116967905Y-123486723D02*
X116920286Y-123296247D01*
X116920286Y-123296247D02*
X116920286Y-123153390D01*
X116920286Y-123153390D02*
X116967905Y-122962914D01*
X116967905Y-122962914D02*
X117015524Y-122867676D01*
X117015524Y-122867676D02*
X117110762Y-122772438D01*
X117110762Y-122772438D02*
X117253619Y-122724819D01*
X117253619Y-122724819D02*
X117348857Y-122724819D01*
X117348857Y-122724819D02*
X117491714Y-122772438D01*
X117491714Y-122772438D02*
X117539333Y-122820057D01*
X117872667Y-122724819D02*
X118491714Y-122724819D01*
X118491714Y-122724819D02*
X118158381Y-123105771D01*
X118158381Y-123105771D02*
X118301238Y-123105771D01*
X118301238Y-123105771D02*
X118396476Y-123153390D01*
X118396476Y-123153390D02*
X118444095Y-123201009D01*
X118444095Y-123201009D02*
X118491714Y-123296247D01*
X118491714Y-123296247D02*
X118491714Y-123534342D01*
X118491714Y-123534342D02*
X118444095Y-123629580D01*
X118444095Y-123629580D02*
X118396476Y-123677200D01*
X118396476Y-123677200D02*
X118301238Y-123724819D01*
X118301238Y-123724819D02*
X118015524Y-123724819D01*
X118015524Y-123724819D02*
X117920286Y-123677200D01*
X117920286Y-123677200D02*
X117872667Y-123629580D01*
X139054580Y-128531666D02*
X139102200Y-128579285D01*
X139102200Y-128579285D02*
X139149819Y-128722142D01*
X139149819Y-128722142D02*
X139149819Y-128817380D01*
X139149819Y-128817380D02*
X139102200Y-128960237D01*
X139102200Y-128960237D02*
X139006961Y-129055475D01*
X139006961Y-129055475D02*
X138911723Y-129103094D01*
X138911723Y-129103094D02*
X138721247Y-129150713D01*
X138721247Y-129150713D02*
X138578390Y-129150713D01*
X138578390Y-129150713D02*
X138387914Y-129103094D01*
X138387914Y-129103094D02*
X138292676Y-129055475D01*
X138292676Y-129055475D02*
X138197438Y-128960237D01*
X138197438Y-128960237D02*
X138149819Y-128817380D01*
X138149819Y-128817380D02*
X138149819Y-128722142D01*
X138149819Y-128722142D02*
X138197438Y-128579285D01*
X138197438Y-128579285D02*
X138245057Y-128531666D01*
X138483152Y-127674523D02*
X139149819Y-127674523D01*
X138102200Y-127912618D02*
X138816485Y-128150713D01*
X138816485Y-128150713D02*
X138816485Y-127531666D01*
X116426190Y-104405009D02*
X116759523Y-104405009D01*
X116902380Y-104928819D02*
X116426190Y-104928819D01*
X116426190Y-104928819D02*
X116426190Y-103928819D01*
X116426190Y-103928819D02*
X116902380Y-103928819D01*
X117283333Y-104881200D02*
X117426190Y-104928819D01*
X117426190Y-104928819D02*
X117664285Y-104928819D01*
X117664285Y-104928819D02*
X117759523Y-104881200D01*
X117759523Y-104881200D02*
X117807142Y-104833580D01*
X117807142Y-104833580D02*
X117854761Y-104738342D01*
X117854761Y-104738342D02*
X117854761Y-104643104D01*
X117854761Y-104643104D02*
X117807142Y-104547866D01*
X117807142Y-104547866D02*
X117759523Y-104500247D01*
X117759523Y-104500247D02*
X117664285Y-104452628D01*
X117664285Y-104452628D02*
X117473809Y-104405009D01*
X117473809Y-104405009D02*
X117378571Y-104357390D01*
X117378571Y-104357390D02*
X117330952Y-104309771D01*
X117330952Y-104309771D02*
X117283333Y-104214533D01*
X117283333Y-104214533D02*
X117283333Y-104119295D01*
X117283333Y-104119295D02*
X117330952Y-104024057D01*
X117330952Y-104024057D02*
X117378571Y-103976438D01*
X117378571Y-103976438D02*
X117473809Y-103928819D01*
X117473809Y-103928819D02*
X117711904Y-103928819D01*
X117711904Y-103928819D02*
X117854761Y-103976438D01*
X118854761Y-104833580D02*
X118807142Y-104881200D01*
X118807142Y-104881200D02*
X118664285Y-104928819D01*
X118664285Y-104928819D02*
X118569047Y-104928819D01*
X118569047Y-104928819D02*
X118426190Y-104881200D01*
X118426190Y-104881200D02*
X118330952Y-104785961D01*
X118330952Y-104785961D02*
X118283333Y-104690723D01*
X118283333Y-104690723D02*
X118235714Y-104500247D01*
X118235714Y-104500247D02*
X118235714Y-104357390D01*
X118235714Y-104357390D02*
X118283333Y-104166914D01*
X118283333Y-104166914D02*
X118330952Y-104071676D01*
X118330952Y-104071676D02*
X118426190Y-103976438D01*
X118426190Y-103976438D02*
X118569047Y-103928819D01*
X118569047Y-103928819D02*
X118664285Y-103928819D01*
X118664285Y-103928819D02*
X118807142Y-103976438D01*
X118807142Y-103976438D02*
X118854761Y-104024057D01*
X119045238Y-105024057D02*
X119807142Y-105024057D01*
X120045238Y-104928819D02*
X120045238Y-103928819D01*
X120045238Y-103928819D02*
X120283333Y-103928819D01*
X120283333Y-103928819D02*
X120426190Y-103976438D01*
X120426190Y-103976438D02*
X120521428Y-104071676D01*
X120521428Y-104071676D02*
X120569047Y-104166914D01*
X120569047Y-104166914D02*
X120616666Y-104357390D01*
X120616666Y-104357390D02*
X120616666Y-104500247D01*
X120616666Y-104500247D02*
X120569047Y-104690723D01*
X120569047Y-104690723D02*
X120521428Y-104785961D01*
X120521428Y-104785961D02*
X120426190Y-104881200D01*
X120426190Y-104881200D02*
X120283333Y-104928819D01*
X120283333Y-104928819D02*
X120045238Y-104928819D01*
X121045238Y-104405009D02*
X121378571Y-104405009D01*
X121521428Y-104928819D02*
X121045238Y-104928819D01*
X121045238Y-104928819D02*
X121045238Y-103928819D01*
X121045238Y-103928819D02*
X121521428Y-103928819D01*
X122283333Y-104405009D02*
X122426190Y-104452628D01*
X122426190Y-104452628D02*
X122473809Y-104500247D01*
X122473809Y-104500247D02*
X122521428Y-104595485D01*
X122521428Y-104595485D02*
X122521428Y-104738342D01*
X122521428Y-104738342D02*
X122473809Y-104833580D01*
X122473809Y-104833580D02*
X122426190Y-104881200D01*
X122426190Y-104881200D02*
X122330952Y-104928819D01*
X122330952Y-104928819D02*
X121950000Y-104928819D01*
X121950000Y-104928819D02*
X121950000Y-103928819D01*
X121950000Y-103928819D02*
X122283333Y-103928819D01*
X122283333Y-103928819D02*
X122378571Y-103976438D01*
X122378571Y-103976438D02*
X122426190Y-104024057D01*
X122426190Y-104024057D02*
X122473809Y-104119295D01*
X122473809Y-104119295D02*
X122473809Y-104214533D01*
X122473809Y-104214533D02*
X122426190Y-104309771D01*
X122426190Y-104309771D02*
X122378571Y-104357390D01*
X122378571Y-104357390D02*
X122283333Y-104405009D01*
X122283333Y-104405009D02*
X121950000Y-104405009D01*
X122950000Y-103928819D02*
X122950000Y-104738342D01*
X122950000Y-104738342D02*
X122997619Y-104833580D01*
X122997619Y-104833580D02*
X123045238Y-104881200D01*
X123045238Y-104881200D02*
X123140476Y-104928819D01*
X123140476Y-104928819D02*
X123330952Y-104928819D01*
X123330952Y-104928819D02*
X123426190Y-104881200D01*
X123426190Y-104881200D02*
X123473809Y-104833580D01*
X123473809Y-104833580D02*
X123521428Y-104738342D01*
X123521428Y-104738342D02*
X123521428Y-103928819D01*
X124521428Y-103976438D02*
X124426190Y-103928819D01*
X124426190Y-103928819D02*
X124283333Y-103928819D01*
X124283333Y-103928819D02*
X124140476Y-103976438D01*
X124140476Y-103976438D02*
X124045238Y-104071676D01*
X124045238Y-104071676D02*
X123997619Y-104166914D01*
X123997619Y-104166914D02*
X123950000Y-104357390D01*
X123950000Y-104357390D02*
X123950000Y-104500247D01*
X123950000Y-104500247D02*
X123997619Y-104690723D01*
X123997619Y-104690723D02*
X124045238Y-104785961D01*
X124045238Y-104785961D02*
X124140476Y-104881200D01*
X124140476Y-104881200D02*
X124283333Y-104928819D01*
X124283333Y-104928819D02*
X124378571Y-104928819D01*
X124378571Y-104928819D02*
X124521428Y-104881200D01*
X124521428Y-104881200D02*
X124569047Y-104833580D01*
X124569047Y-104833580D02*
X124569047Y-104500247D01*
X124569047Y-104500247D02*
X124378571Y-104500247D01*
X125521428Y-104928819D02*
X124950000Y-104928819D01*
X125235714Y-104928819D02*
X125235714Y-103928819D01*
X125235714Y-103928819D02*
X125140476Y-104071676D01*
X125140476Y-104071676D02*
X125045238Y-104166914D01*
X125045238Y-104166914D02*
X124950000Y-104214533D01*
X159663580Y-108196666D02*
X159711200Y-108244285D01*
X159711200Y-108244285D02*
X159758819Y-108387142D01*
X159758819Y-108387142D02*
X159758819Y-108482380D01*
X159758819Y-108482380D02*
X159711200Y-108625237D01*
X159711200Y-108625237D02*
X159615961Y-108720475D01*
X159615961Y-108720475D02*
X159520723Y-108768094D01*
X159520723Y-108768094D02*
X159330247Y-108815713D01*
X159330247Y-108815713D02*
X159187390Y-108815713D01*
X159187390Y-108815713D02*
X158996914Y-108768094D01*
X158996914Y-108768094D02*
X158901676Y-108720475D01*
X158901676Y-108720475D02*
X158806438Y-108625237D01*
X158806438Y-108625237D02*
X158758819Y-108482380D01*
X158758819Y-108482380D02*
X158758819Y-108387142D01*
X158758819Y-108387142D02*
X158806438Y-108244285D01*
X158806438Y-108244285D02*
X158854057Y-108196666D01*
X159187390Y-107625237D02*
X159139771Y-107720475D01*
X159139771Y-107720475D02*
X159092152Y-107768094D01*
X159092152Y-107768094D02*
X158996914Y-107815713D01*
X158996914Y-107815713D02*
X158949295Y-107815713D01*
X158949295Y-107815713D02*
X158854057Y-107768094D01*
X158854057Y-107768094D02*
X158806438Y-107720475D01*
X158806438Y-107720475D02*
X158758819Y-107625237D01*
X158758819Y-107625237D02*
X158758819Y-107434761D01*
X158758819Y-107434761D02*
X158806438Y-107339523D01*
X158806438Y-107339523D02*
X158854057Y-107291904D01*
X158854057Y-107291904D02*
X158949295Y-107244285D01*
X158949295Y-107244285D02*
X158996914Y-107244285D01*
X158996914Y-107244285D02*
X159092152Y-107291904D01*
X159092152Y-107291904D02*
X159139771Y-107339523D01*
X159139771Y-107339523D02*
X159187390Y-107434761D01*
X159187390Y-107434761D02*
X159187390Y-107625237D01*
X159187390Y-107625237D02*
X159235009Y-107720475D01*
X159235009Y-107720475D02*
X159282628Y-107768094D01*
X159282628Y-107768094D02*
X159377866Y-107815713D01*
X159377866Y-107815713D02*
X159568342Y-107815713D01*
X159568342Y-107815713D02*
X159663580Y-107768094D01*
X159663580Y-107768094D02*
X159711200Y-107720475D01*
X159711200Y-107720475D02*
X159758819Y-107625237D01*
X159758819Y-107625237D02*
X159758819Y-107434761D01*
X159758819Y-107434761D02*
X159711200Y-107339523D01*
X159711200Y-107339523D02*
X159663580Y-107291904D01*
X159663580Y-107291904D02*
X159568342Y-107244285D01*
X159568342Y-107244285D02*
X159377866Y-107244285D01*
X159377866Y-107244285D02*
X159282628Y-107291904D01*
X159282628Y-107291904D02*
X159235009Y-107339523D01*
X159235009Y-107339523D02*
X159187390Y-107434761D01*
X122815333Y-118136819D02*
X122482000Y-117660628D01*
X122243905Y-118136819D02*
X122243905Y-117136819D01*
X122243905Y-117136819D02*
X122624857Y-117136819D01*
X122624857Y-117136819D02*
X122720095Y-117184438D01*
X122720095Y-117184438D02*
X122767714Y-117232057D01*
X122767714Y-117232057D02*
X122815333Y-117327295D01*
X122815333Y-117327295D02*
X122815333Y-117470152D01*
X122815333Y-117470152D02*
X122767714Y-117565390D01*
X122767714Y-117565390D02*
X122720095Y-117613009D01*
X122720095Y-117613009D02*
X122624857Y-117660628D01*
X122624857Y-117660628D02*
X122243905Y-117660628D01*
X123196286Y-117232057D02*
X123243905Y-117184438D01*
X123243905Y-117184438D02*
X123339143Y-117136819D01*
X123339143Y-117136819D02*
X123577238Y-117136819D01*
X123577238Y-117136819D02*
X123672476Y-117184438D01*
X123672476Y-117184438D02*
X123720095Y-117232057D01*
X123720095Y-117232057D02*
X123767714Y-117327295D01*
X123767714Y-117327295D02*
X123767714Y-117422533D01*
X123767714Y-117422533D02*
X123720095Y-117565390D01*
X123720095Y-117565390D02*
X123148667Y-118136819D01*
X123148667Y-118136819D02*
X123767714Y-118136819D01*
X141994819Y-117165713D02*
X142994819Y-116499047D01*
X141994819Y-116499047D02*
X142994819Y-117165713D01*
X142994819Y-116118094D02*
X141994819Y-116118094D01*
X142709104Y-115689523D02*
X142709104Y-115213333D01*
X142994819Y-115784761D02*
X141994819Y-115451428D01*
X141994819Y-115451428D02*
X142994819Y-115118095D01*
X141994819Y-114594285D02*
X141994819Y-114403809D01*
X141994819Y-114403809D02*
X142042438Y-114308571D01*
X142042438Y-114308571D02*
X142137676Y-114213333D01*
X142137676Y-114213333D02*
X142328152Y-114165714D01*
X142328152Y-114165714D02*
X142661485Y-114165714D01*
X142661485Y-114165714D02*
X142851961Y-114213333D01*
X142851961Y-114213333D02*
X142947200Y-114308571D01*
X142947200Y-114308571D02*
X142994819Y-114403809D01*
X142994819Y-114403809D02*
X142994819Y-114594285D01*
X142994819Y-114594285D02*
X142947200Y-114689523D01*
X142947200Y-114689523D02*
X142851961Y-114784761D01*
X142851961Y-114784761D02*
X142661485Y-114832380D01*
X142661485Y-114832380D02*
X142328152Y-114832380D01*
X142328152Y-114832380D02*
X142137676Y-114784761D01*
X142137676Y-114784761D02*
X142042438Y-114689523D01*
X142042438Y-114689523D02*
X141994819Y-114594285D01*
X143090057Y-113975238D02*
X143090057Y-113213333D01*
X142994819Y-112499047D02*
X142994819Y-112975237D01*
X142994819Y-112975237D02*
X141994819Y-112975237D01*
X142994819Y-111641904D02*
X142994819Y-112213332D01*
X142994819Y-111927618D02*
X141994819Y-111927618D01*
X141994819Y-111927618D02*
X142137676Y-112022856D01*
X142137676Y-112022856D02*
X142232914Y-112118094D01*
X142232914Y-112118094D02*
X142280533Y-112213332D01*
X128254819Y-115666666D02*
X127778628Y-115999999D01*
X128254819Y-116238094D02*
X127254819Y-116238094D01*
X127254819Y-116238094D02*
X127254819Y-115857142D01*
X127254819Y-115857142D02*
X127302438Y-115761904D01*
X127302438Y-115761904D02*
X127350057Y-115714285D01*
X127350057Y-115714285D02*
X127445295Y-115666666D01*
X127445295Y-115666666D02*
X127588152Y-115666666D01*
X127588152Y-115666666D02*
X127683390Y-115714285D01*
X127683390Y-115714285D02*
X127731009Y-115761904D01*
X127731009Y-115761904D02*
X127778628Y-115857142D01*
X127778628Y-115857142D02*
X127778628Y-116238094D01*
X127588152Y-114809523D02*
X128254819Y-114809523D01*
X127207200Y-115047618D02*
X127921485Y-115285713D01*
X127921485Y-115285713D02*
X127921485Y-114666666D01*
X152154819Y-117260951D02*
X153154819Y-116594285D01*
X152154819Y-116594285D02*
X153154819Y-117260951D01*
X153154819Y-116213332D02*
X152154819Y-116213332D01*
X152869104Y-115784761D02*
X152869104Y-115308571D01*
X153154819Y-115879999D02*
X152154819Y-115546666D01*
X152154819Y-115546666D02*
X153154819Y-115213333D01*
X152154819Y-114689523D02*
X152154819Y-114499047D01*
X152154819Y-114499047D02*
X152202438Y-114403809D01*
X152202438Y-114403809D02*
X152297676Y-114308571D01*
X152297676Y-114308571D02*
X152488152Y-114260952D01*
X152488152Y-114260952D02*
X152821485Y-114260952D01*
X152821485Y-114260952D02*
X153011961Y-114308571D01*
X153011961Y-114308571D02*
X153107200Y-114403809D01*
X153107200Y-114403809D02*
X153154819Y-114499047D01*
X153154819Y-114499047D02*
X153154819Y-114689523D01*
X153154819Y-114689523D02*
X153107200Y-114784761D01*
X153107200Y-114784761D02*
X153011961Y-114879999D01*
X153011961Y-114879999D02*
X152821485Y-114927618D01*
X152821485Y-114927618D02*
X152488152Y-114927618D01*
X152488152Y-114927618D02*
X152297676Y-114879999D01*
X152297676Y-114879999D02*
X152202438Y-114784761D01*
X152202438Y-114784761D02*
X152154819Y-114689523D01*
X153250057Y-114070476D02*
X153250057Y-113308571D01*
X153154819Y-112499047D02*
X152678628Y-112832380D01*
X153154819Y-113070475D02*
X152154819Y-113070475D01*
X152154819Y-113070475D02*
X152154819Y-112689523D01*
X152154819Y-112689523D02*
X152202438Y-112594285D01*
X152202438Y-112594285D02*
X152250057Y-112546666D01*
X152250057Y-112546666D02*
X152345295Y-112499047D01*
X152345295Y-112499047D02*
X152488152Y-112499047D01*
X152488152Y-112499047D02*
X152583390Y-112546666D01*
X152583390Y-112546666D02*
X152631009Y-112594285D01*
X152631009Y-112594285D02*
X152678628Y-112689523D01*
X152678628Y-112689523D02*
X152678628Y-113070475D01*
X153154819Y-111546666D02*
X153154819Y-112118094D01*
X153154819Y-111832380D02*
X152154819Y-111832380D01*
X152154819Y-111832380D02*
X152297676Y-111927618D01*
X152297676Y-111927618D02*
X152392914Y-112022856D01*
X152392914Y-112022856D02*
X152440533Y-112118094D01*
X116886095Y-117390819D02*
X116886095Y-118200342D01*
X116886095Y-118200342D02*
X116933714Y-118295580D01*
X116933714Y-118295580D02*
X116981333Y-118343200D01*
X116981333Y-118343200D02*
X117076571Y-118390819D01*
X117076571Y-118390819D02*
X117267047Y-118390819D01*
X117267047Y-118390819D02*
X117362285Y-118343200D01*
X117362285Y-118343200D02*
X117409904Y-118295580D01*
X117409904Y-118295580D02*
X117457523Y-118200342D01*
X117457523Y-118200342D02*
X117457523Y-117390819D01*
X117886095Y-117486057D02*
X117933714Y-117438438D01*
X117933714Y-117438438D02*
X118028952Y-117390819D01*
X118028952Y-117390819D02*
X118267047Y-117390819D01*
X118267047Y-117390819D02*
X118362285Y-117438438D01*
X118362285Y-117438438D02*
X118409904Y-117486057D01*
X118409904Y-117486057D02*
X118457523Y-117581295D01*
X118457523Y-117581295D02*
X118457523Y-117676533D01*
X118457523Y-117676533D02*
X118409904Y-117819390D01*
X118409904Y-117819390D02*
X117838476Y-118390819D01*
X117838476Y-118390819D02*
X118457523Y-118390819D01*
D12*
%TO.C,R1*%
X130852936Y-120132000D02*
X133907064Y-120132000D01*
X130852936Y-122852000D02*
X133907064Y-122852000D01*
%TO.C,SPI1*%
X149305000Y-128295000D02*
X149305000Y-133495000D01*
X151905000Y-128295000D02*
X149305000Y-128295000D01*
X151905000Y-128295000D02*
X151905000Y-130895000D01*
X151905000Y-130895000D02*
X154505000Y-130895000D01*
X153175000Y-128295000D02*
X154505000Y-128295000D01*
X154505000Y-128295000D02*
X154505000Y-129625000D01*
X154505000Y-130895000D02*
X154505000Y-133495000D01*
X154505000Y-133495000D02*
X149305000Y-133495000D01*
%TO.C,JETSON_PWR1*%
X139905000Y-128295000D02*
X139905000Y-133495000D01*
X142505000Y-128295000D02*
X139905000Y-128295000D01*
X142505000Y-128295000D02*
X142505000Y-130895000D01*
X142505000Y-130895000D02*
X145105000Y-130895000D01*
X143775000Y-128295000D02*
X145105000Y-128295000D01*
X145105000Y-128295000D02*
X145105000Y-129625000D01*
X145105000Y-130895000D02*
X145105000Y-133495000D01*
X145105000Y-133495000D02*
X139905000Y-133495000D01*
%TO.C,ESC1*%
X126000000Y-107990000D02*
X126000000Y-109140000D01*
X126000000Y-109140000D02*
X127050000Y-109140000D01*
X127050000Y-109140000D02*
X127050000Y-110130000D01*
X127170000Y-106020000D02*
X135050000Y-106020000D01*
X136220000Y-107990000D02*
X136220000Y-109140000D01*
X136220000Y-109140000D02*
X135170000Y-109140000D01*
%TO.C,C6*%
X116884000Y-120329733D02*
X116884000Y-120622267D01*
X117904000Y-120329733D02*
X117904000Y-120622267D01*
%TO.C,C7*%
X129090000Y-112983767D02*
X129090000Y-112691233D01*
X130110000Y-112983767D02*
X130110000Y-112691233D01*
%TO.C,R3*%
X125477500Y-112545276D02*
X125477500Y-113054724D01*
X126522500Y-112545276D02*
X126522500Y-113054724D01*
%TO.C,C2*%
X134918000Y-117027733D02*
X134918000Y-117320267D01*
X135938000Y-117027733D02*
X135938000Y-117320267D01*
%TO.C,C1*%
X145790000Y-130753733D02*
X145790000Y-131046267D01*
X146810000Y-130753733D02*
X146810000Y-131046267D01*
%TO.C,VBUCK1*%
X119625000Y-133749000D02*
X119625000Y-128549000D01*
X122225000Y-131149000D02*
X122225000Y-133749000D01*
X122225000Y-133749000D02*
X119625000Y-133749000D01*
X124825000Y-128549000D02*
X119625000Y-128549000D01*
X124825000Y-131149000D02*
X122225000Y-131149000D01*
X124825000Y-131149000D02*
X124825000Y-128549000D01*
X124825000Y-132419000D02*
X124825000Y-133749000D01*
X124825000Y-133749000D02*
X123495000Y-133749000D01*
%TO.C,U1*%
X132380000Y-115614000D02*
X131580000Y-115614000D01*
X132380000Y-115614000D02*
X133180000Y-115614000D01*
X132380000Y-118734000D02*
X131580000Y-118734000D01*
X132380000Y-118734000D02*
X133180000Y-118734000D01*
X131080000Y-115664000D02*
X130840000Y-115334000D01*
X131320000Y-115334000D01*
X131080000Y-115664000D01*
G36*
X131080000Y-115664000D02*
G01*
X130840000Y-115334000D01*
X131320000Y-115334000D01*
X131080000Y-115664000D01*
G37*
%TO.C,Q1*%
X125014000Y-119866000D02*
X124214000Y-119866000D01*
X125014000Y-119866000D02*
X125814000Y-119866000D01*
X125014000Y-122986000D02*
X124214000Y-122986000D01*
X125014000Y-122986000D02*
X125814000Y-122986000D01*
X123714000Y-119916000D02*
X123474000Y-119586000D01*
X123954000Y-119586000D01*
X123714000Y-119916000D01*
G36*
X123714000Y-119916000D02*
G01*
X123474000Y-119586000D01*
X123954000Y-119586000D01*
X123714000Y-119916000D01*
G37*
%TO.C,C5*%
X129090000Y-127454437D02*
X129090000Y-133210000D01*
X129090000Y-133210000D02*
X131440000Y-133210000D01*
X130154437Y-126390000D02*
X129090000Y-127454437D01*
X130154437Y-126390000D02*
X131440000Y-126390000D01*
X134347500Y-125362500D02*
X134347500Y-126150000D01*
X134741250Y-125756250D02*
X133953750Y-125756250D01*
X134845563Y-126390000D02*
X133560000Y-126390000D01*
X134845563Y-126390000D02*
X135910000Y-127454437D01*
X135910000Y-127454437D02*
X135910000Y-133210000D01*
X135910000Y-133210000D02*
X133560000Y-133210000D01*
%TO.C,C3*%
X120646267Y-122760000D02*
X120353733Y-122760000D01*
X120646267Y-123780000D02*
X120353733Y-123780000D01*
%TO.C,C4*%
X138190000Y-130753733D02*
X138190000Y-131046267D01*
X139210000Y-130753733D02*
X139210000Y-131046267D01*
%TO.C,ESC_DEBUG1*%
X116811000Y-105425000D02*
X116811000Y-110625000D01*
X121951000Y-105425000D02*
X116811000Y-105425000D01*
X121951000Y-105425000D02*
X121951000Y-108025000D01*
X121951000Y-108025000D02*
X124551000Y-108025000D01*
X123221000Y-105425000D02*
X124551000Y-105425000D01*
X124551000Y-105425000D02*
X124551000Y-106755000D01*
X124551000Y-108025000D02*
X124551000Y-110625000D01*
X124551000Y-110625000D02*
X116811000Y-110625000D01*
%TO.C,C8*%
X157270000Y-107883733D02*
X157270000Y-108176267D01*
X158290000Y-107883733D02*
X158290000Y-108176267D01*
%TO.C,R2*%
X120696724Y-117159500D02*
X120187276Y-117159500D01*
X120696724Y-118204500D02*
X120187276Y-118204500D01*
%TO.C,XIAO_L1*%
X138670000Y-108030000D02*
X138670000Y-123330000D01*
X138670000Y-108030000D02*
X141330000Y-108030000D01*
X138670000Y-123330000D02*
X141330000Y-123330000D01*
X140000000Y-105430000D02*
X141330000Y-105430000D01*
X141330000Y-105430000D02*
X141330000Y-106760000D01*
X141330000Y-108030000D02*
X141330000Y-123330000D01*
%TO.C,R4*%
X127277500Y-113054724D02*
X127277500Y-112545276D01*
X128322500Y-113054724D02*
X128322500Y-112545276D01*
%TO.C,XIAO_R1*%
X153910000Y-108030000D02*
X153910000Y-123330000D01*
X153910000Y-108030000D02*
X156570000Y-108030000D01*
X153910000Y-123330000D02*
X156570000Y-123330000D01*
X155240000Y-105430000D02*
X156570000Y-105430000D01*
X156570000Y-105430000D02*
X156570000Y-106760000D01*
X156570000Y-108030000D02*
X156570000Y-123330000D01*
%TO.C,U2*%
X120442000Y-118916000D02*
X119642000Y-118916000D01*
X120442000Y-118916000D02*
X121242000Y-118916000D01*
X120442000Y-122036000D02*
X119642000Y-122036000D01*
X120442000Y-122036000D02*
X121242000Y-122036000D01*
X119142000Y-118966000D02*
X118902000Y-118636000D01*
X119382000Y-118636000D01*
X119142000Y-118966000D01*
G36*
X119142000Y-118966000D02*
G01*
X118902000Y-118636000D01*
X119382000Y-118636000D01*
X119142000Y-118966000D01*
G37*
%TD*%
M02*
