%TF.GenerationSoftware,KiCad,Pcbnew,9.0.0*%
%TF.CreationDate,2025-05-03T14:05:23-04:00*%
%TF.ProjectId,Drone_ESC_Bridge,44726f6e-655f-4455-9343-5f4272696467,v1.1*%
%TF.SameCoordinates,Original*%
%TF.FileFunction,Copper,L2,Bot*%
%TF.FilePolarity,Positive*%
%FSLAX46Y46*%
G04 Gerber Fmt 4.6, Leading zero omitted, Abs format (unit mm)*
G04 Created by KiCad (PCBNEW 9.0.0) date 2025-05-03 14:05:23*
%MOMM*%
%LPD*%
G01*
G04 APERTURE LIST*
%TA.AperFunction,ComponentPad*%
%ADD10R,1.700000X1.700000*%
%TD*%
%TA.AperFunction,ComponentPad*%
%ADD11O,1.700000X1.700000*%
%TD*%
%TA.AperFunction,ViaPad*%
%ADD12C,0.600000*%
%TD*%
%TA.AperFunction,Conductor*%
%ADD13C,0.200000*%
%TD*%
G04 APERTURE END LIST*
D10*
%TO.P,SPI1,1,Pin_1*%
%TO.N,Net-(SPI1-Pin_1)*%
X153175000Y-129625000D03*
D11*
%TO.P,SPI1,2,Pin_2*%
%TO.N,Net-(SPI1-Pin_2)*%
X153175000Y-132165000D03*
%TO.P,SPI1,3,Pin_3*%
%TO.N,Net-(SPI1-Pin_3)*%
X150635000Y-129625000D03*
%TO.P,SPI1,4,Pin_4*%
%TO.N,Net-(SPI1-Pin_4)*%
X150635000Y-132165000D03*
%TD*%
D10*
%TO.P,JETSON_PWR1,1,Pin_1*%
%TO.N,+5V*%
X143775000Y-129625000D03*
D11*
%TO.P,JETSON_PWR1,2,Pin_2*%
%TO.N,GND*%
X143775000Y-132165000D03*
%TO.P,JETSON_PWR1,3,Pin_3*%
%TO.N,+5V*%
X141235000Y-129625000D03*
%TO.P,JETSON_PWR1,4,Pin_4*%
%TO.N,GND*%
X141235000Y-132165000D03*
%TD*%
D10*
%TO.P,VBUCK1,1,Pin_1*%
%TO.N,GND*%
X123495000Y-132419000D03*
D11*
%TO.P,VBUCK1,2,Pin_2*%
X120955000Y-132419000D03*
%TO.P,VBUCK1,3,Pin_3*%
%TO.N,Net-(Q1-S)*%
X123495000Y-129879000D03*
%TO.P,VBUCK1,4,Pin_4*%
X120955000Y-129879000D03*
%TD*%
D10*
%TO.P,ESC_DEBUG1,1,Pin_1*%
%TO.N,Net-(ESC1-Pin_6)*%
X123221000Y-106755000D03*
D11*
%TO.P,ESC_DEBUG1,2,Pin_2*%
%TO.N,Net-(ESC1-Pin_5)*%
X123221000Y-109295000D03*
%TO.P,ESC_DEBUG1,3,Pin_3*%
%TO.N,Net-(ESC1-Pin_8)*%
X120681000Y-106755000D03*
%TO.P,ESC_DEBUG1,4,Pin_4*%
%TO.N,Net-(ESC1-Pin_7)*%
X120681000Y-109295000D03*
%TO.P,ESC_DEBUG1,5,Pin_5*%
%TO.N,Net-(ESC1-Pin_1)*%
X118141000Y-106755000D03*
%TO.P,ESC_DEBUG1,6,Pin_6*%
%TO.N,GND*%
X118141000Y-109295000D03*
%TD*%
D10*
%TO.P,XIAO_L1,1,Pin_1*%
%TO.N,Net-(ESC1-Pin_8)*%
X140000000Y-106760000D03*
D11*
%TO.P,XIAO_L1,2,Pin_2*%
%TO.N,Net-(SPI1-Pin_3)*%
X140000000Y-109300000D03*
%TO.P,XIAO_L1,3,Pin_3*%
%TO.N,Net-(ESC1-Pin_7)*%
X140000000Y-111840000D03*
%TO.P,XIAO_L1,4,Pin_4*%
%TO.N,Net-(ESC1-Pin_6)*%
X140000000Y-114380000D03*
%TO.P,XIAO_L1,5,Pin_5*%
%TO.N,Net-(ESC1-Pin_5)*%
X140000000Y-116920000D03*
%TO.P,XIAO_L1,6,Pin_6*%
%TO.N,Net-(ESC1-Pin_4)*%
X140000000Y-119460000D03*
%TO.P,XIAO_L1,7,Pin_7*%
%TO.N,VSENSE*%
X140000000Y-122000000D03*
%TD*%
D10*
%TO.P,XIAO_R1,1,Pin_1*%
%TO.N,+5V*%
X155240000Y-106760000D03*
D11*
%TO.P,XIAO_R1,2,Pin_2*%
%TO.N,GND*%
X155240000Y-109300000D03*
%TO.P,XIAO_R1,3,Pin_3*%
%TO.N,unconnected-(XIAO_R1-Pin_3-Pad3)*%
X155240000Y-111840000D03*
%TO.P,XIAO_R1,4,Pin_4*%
%TO.N,Net-(SPI1-Pin_4)*%
X155240000Y-114380000D03*
%TO.P,XIAO_R1,5,Pin_5*%
%TO.N,Net-(SPI1-Pin_1)*%
X155240000Y-116920000D03*
%TO.P,XIAO_R1,6,Pin_6*%
%TO.N,Net-(SPI1-Pin_2)*%
X155240000Y-119460000D03*
%TO.P,XIAO_R1,7,Pin_7*%
%TO.N,Net-(XIAO_R1-Pin_7)*%
X155240000Y-122000000D03*
%TD*%
D12*
%TO.N,GND*%
X158600000Y-108700000D03*
X124752000Y-132914000D03*
X124752000Y-131898000D03*
X118500000Y-122800000D03*
X117000000Y-122200000D03*
X133700000Y-133800000D03*
X119672000Y-131898000D03*
X123990000Y-133676000D03*
X119700000Y-122100000D03*
X147100000Y-131500000D03*
X129600000Y-110900000D03*
X137900000Y-131500000D03*
X158600000Y-109500000D03*
X131300000Y-131200000D03*
X122974000Y-133676000D03*
X137900000Y-132400000D03*
X133700000Y-132500000D03*
X118900000Y-122100000D03*
X136300000Y-118500000D03*
X147100000Y-132400000D03*
X138700000Y-132700000D03*
X119672000Y-132914000D03*
X157780000Y-109800000D03*
X133700000Y-131200000D03*
X131300000Y-133800000D03*
X131300000Y-132500000D03*
X130086000Y-117166000D03*
X136300000Y-117800000D03*
X120434000Y-133676000D03*
X118500000Y-123700000D03*
X146300000Y-132700000D03*
X117800000Y-122200000D03*
X121450000Y-133676000D03*
X127800000Y-110900000D03*
%TO.N,VSENSE*%
X132400000Y-119400000D03*
%TO.N,Net-(XIAO_R1-Pin_7)*%
X131300000Y-113700000D03*
%TD*%
D13*
%TO.N,VSENSE*%
X132400000Y-119400000D02*
X132400000Y-121400000D01*
X133000000Y-122000000D02*
X140000000Y-122000000D01*
X132400000Y-121400000D02*
X133000000Y-122000000D01*
%TO.N,Net-(XIAO_R1-Pin_7)*%
X138200000Y-120700000D02*
X147100000Y-120700000D01*
X137500000Y-115700000D02*
X137500000Y-120000000D01*
X137500000Y-120000000D02*
X138200000Y-120700000D01*
X132700000Y-115100000D02*
X136900000Y-115100000D01*
X131300000Y-113700000D02*
X132700000Y-115100000D01*
X147100000Y-120700000D02*
X148400000Y-122000000D01*
X136900000Y-115100000D02*
X137500000Y-115700000D01*
X148400000Y-122000000D02*
X155240000Y-122000000D01*
%TD*%
%TA.AperFunction,Conductor*%
%TO.N,GND*%
G36*
X163672539Y-103738185D02*
G01*
X163718294Y-103790989D01*
X163729500Y-103842500D01*
X163729500Y-135593500D01*
X163709815Y-135660539D01*
X163657011Y-135706294D01*
X163605500Y-135717500D01*
X112854500Y-135717500D01*
X112787461Y-135697815D01*
X112741706Y-135645011D01*
X112730500Y-135593500D01*
X112730500Y-129772713D01*
X119604500Y-129772713D01*
X119604500Y-129985286D01*
X119629544Y-130143412D01*
X119637754Y-130195243D01*
X119682454Y-130332816D01*
X119703444Y-130397414D01*
X119799951Y-130586820D01*
X119924890Y-130758786D01*
X120075213Y-130909109D01*
X120247179Y-131034048D01*
X120247181Y-131034049D01*
X120247184Y-131034051D01*
X120436588Y-131130557D01*
X120638757Y-131196246D01*
X120848713Y-131229500D01*
X120848714Y-131229500D01*
X121061286Y-131229500D01*
X121061287Y-131229500D01*
X121271243Y-131196246D01*
X121473412Y-131130557D01*
X121662816Y-131034051D01*
X121743405Y-130975500D01*
X121834786Y-130909109D01*
X121834788Y-130909106D01*
X121834792Y-130909104D01*
X121985104Y-130758792D01*
X121985106Y-130758788D01*
X121985109Y-130758786D01*
X122110048Y-130586820D01*
X122110047Y-130586820D01*
X122110051Y-130586816D01*
X122114514Y-130578054D01*
X122162488Y-130527259D01*
X122230308Y-130510463D01*
X122296444Y-130532999D01*
X122335486Y-130578056D01*
X122339951Y-130586820D01*
X122464890Y-130758786D01*
X122615213Y-130909109D01*
X122787179Y-131034048D01*
X122787181Y-131034049D01*
X122787184Y-131034051D01*
X122976588Y-131130557D01*
X123178757Y-131196246D01*
X123388713Y-131229500D01*
X123388714Y-131229500D01*
X123601286Y-131229500D01*
X123601287Y-131229500D01*
X123811243Y-131196246D01*
X124013412Y-131130557D01*
X124202816Y-131034051D01*
X124283405Y-130975500D01*
X124374786Y-130909109D01*
X124374788Y-130909106D01*
X124374792Y-130909104D01*
X124525104Y-130758792D01*
X124525106Y-130758788D01*
X124525109Y-130758786D01*
X124650048Y-130586820D01*
X124650047Y-130586820D01*
X124650051Y-130586816D01*
X124746557Y-130397412D01*
X124812246Y-130195243D01*
X124845500Y-129985287D01*
X124845500Y-129772713D01*
X124812246Y-129562757D01*
X124797935Y-129518713D01*
X139884500Y-129518713D01*
X139884500Y-129731286D01*
X139917753Y-129941239D01*
X139983444Y-130143414D01*
X140079951Y-130332820D01*
X140204890Y-130504786D01*
X140355213Y-130655109D01*
X140527179Y-130780048D01*
X140527181Y-130780049D01*
X140527184Y-130780051D01*
X140716588Y-130876557D01*
X140918757Y-130942246D01*
X141128713Y-130975500D01*
X141128714Y-130975500D01*
X141341286Y-130975500D01*
X141341287Y-130975500D01*
X141551243Y-130942246D01*
X141753412Y-130876557D01*
X141942816Y-130780051D01*
X142114792Y-130655104D01*
X142228329Y-130541566D01*
X142289648Y-130508084D01*
X142359340Y-130513068D01*
X142415274Y-130554939D01*
X142432189Y-130585917D01*
X142481202Y-130717328D01*
X142481206Y-130717335D01*
X142567452Y-130832544D01*
X142567455Y-130832547D01*
X142682664Y-130918793D01*
X142682671Y-130918797D01*
X142817517Y-130969091D01*
X142817516Y-130969091D01*
X142824444Y-130969835D01*
X142877127Y-130975500D01*
X144672872Y-130975499D01*
X144732483Y-130969091D01*
X144867331Y-130918796D01*
X144982546Y-130832546D01*
X145068796Y-130717331D01*
X145119091Y-130582483D01*
X145125500Y-130522873D01*
X145125499Y-129518713D01*
X149284500Y-129518713D01*
X149284500Y-129731286D01*
X149317753Y-129941239D01*
X149383444Y-130143414D01*
X149479951Y-130332820D01*
X149604890Y-130504786D01*
X149755213Y-130655109D01*
X149927182Y-130780050D01*
X149935946Y-130784516D01*
X149986742Y-130832491D01*
X150003536Y-130900312D01*
X149980998Y-130966447D01*
X149935946Y-131005484D01*
X149927182Y-131009949D01*
X149755213Y-131134890D01*
X149604890Y-131285213D01*
X149479951Y-131457179D01*
X149383444Y-131646585D01*
X149317753Y-131848760D01*
X149284500Y-132058713D01*
X149284500Y-132271286D01*
X149317753Y-132481239D01*
X149383444Y-132683414D01*
X149479951Y-132872820D01*
X149604890Y-133044786D01*
X149755213Y-133195109D01*
X149927179Y-133320048D01*
X149927181Y-133320049D01*
X149927184Y-133320051D01*
X150116588Y-133416557D01*
X150318757Y-133482246D01*
X150528713Y-133515500D01*
X150528714Y-133515500D01*
X150741286Y-133515500D01*
X150741287Y-133515500D01*
X150951243Y-133482246D01*
X151153412Y-133416557D01*
X151342816Y-133320051D01*
X151364789Y-133304086D01*
X151514786Y-133195109D01*
X151514788Y-133195106D01*
X151514792Y-133195104D01*
X151665104Y-133044792D01*
X151665106Y-133044788D01*
X151665109Y-133044786D01*
X151790048Y-132872820D01*
X151790047Y-132872820D01*
X151790051Y-132872816D01*
X151794514Y-132864054D01*
X151842488Y-132813259D01*
X151910308Y-132796463D01*
X151976444Y-132818999D01*
X152015486Y-132864056D01*
X152019951Y-132872820D01*
X152144890Y-133044786D01*
X152295213Y-133195109D01*
X152467179Y-133320048D01*
X152467181Y-133320049D01*
X152467184Y-133320051D01*
X152656588Y-133416557D01*
X152858757Y-133482246D01*
X153068713Y-133515500D01*
X153068714Y-133515500D01*
X153281286Y-133515500D01*
X153281287Y-133515500D01*
X153491243Y-133482246D01*
X153693412Y-133416557D01*
X153882816Y-133320051D01*
X153904789Y-133304086D01*
X154054786Y-133195109D01*
X154054788Y-133195106D01*
X154054792Y-133195104D01*
X154205104Y-133044792D01*
X154205106Y-133044788D01*
X154205109Y-133044786D01*
X154330048Y-132872820D01*
X154330047Y-132872820D01*
X154330051Y-132872816D01*
X154426557Y-132683412D01*
X154492246Y-132481243D01*
X154525500Y-132271287D01*
X154525500Y-132058713D01*
X154492246Y-131848757D01*
X154426557Y-131646588D01*
X154330051Y-131457184D01*
X154330049Y-131457181D01*
X154330048Y-131457179D01*
X154205109Y-131285213D01*
X154091569Y-131171673D01*
X154058084Y-131110350D01*
X154063068Y-131040658D01*
X154104940Y-130984725D01*
X154135915Y-130967810D01*
X154267331Y-130918796D01*
X154382546Y-130832546D01*
X154468796Y-130717331D01*
X154519091Y-130582483D01*
X154525500Y-130522873D01*
X154525499Y-128727128D01*
X154519091Y-128667517D01*
X154517810Y-128664083D01*
X154468797Y-128532671D01*
X154468793Y-128532664D01*
X154382547Y-128417455D01*
X154382544Y-128417452D01*
X154267335Y-128331206D01*
X154267328Y-128331202D01*
X154132482Y-128280908D01*
X154132483Y-128280908D01*
X154072883Y-128274501D01*
X154072881Y-128274500D01*
X154072873Y-128274500D01*
X154072864Y-128274500D01*
X152277129Y-128274500D01*
X152277123Y-128274501D01*
X152217516Y-128280908D01*
X152082671Y-128331202D01*
X152082664Y-128331206D01*
X151967455Y-128417452D01*
X151967452Y-128417455D01*
X151881206Y-128532664D01*
X151881203Y-128532669D01*
X151832189Y-128664083D01*
X151790317Y-128720016D01*
X151724853Y-128744433D01*
X151656580Y-128729581D01*
X151628326Y-128708430D01*
X151514786Y-128594890D01*
X151342820Y-128469951D01*
X151153414Y-128373444D01*
X151153413Y-128373443D01*
X151153412Y-128373443D01*
X150951243Y-128307754D01*
X150951241Y-128307753D01*
X150951240Y-128307753D01*
X150789957Y-128282208D01*
X150741287Y-128274500D01*
X150528713Y-128274500D01*
X150480042Y-128282208D01*
X150318760Y-128307753D01*
X150116585Y-128373444D01*
X149927179Y-128469951D01*
X149755213Y-128594890D01*
X149604890Y-128745213D01*
X149479951Y-128917179D01*
X149383444Y-129106585D01*
X149317753Y-129308760D01*
X149284500Y-129518713D01*
X145125499Y-129518713D01*
X145125499Y-128727128D01*
X145119091Y-128667517D01*
X145117810Y-128664083D01*
X145068797Y-128532671D01*
X145068793Y-128532664D01*
X144982547Y-128417455D01*
X144982544Y-128417452D01*
X144867335Y-128331206D01*
X144867328Y-128331202D01*
X144732482Y-128280908D01*
X144732483Y-128280908D01*
X144672883Y-128274501D01*
X144672881Y-128274500D01*
X144672873Y-128274500D01*
X144672864Y-128274500D01*
X142877129Y-128274500D01*
X142877123Y-128274501D01*
X142817516Y-128280908D01*
X142682671Y-128331202D01*
X142682664Y-128331206D01*
X142567455Y-128417452D01*
X142567452Y-128417455D01*
X142481206Y-128532664D01*
X142481203Y-128532669D01*
X142432189Y-128664083D01*
X142390317Y-128720016D01*
X142324853Y-128744433D01*
X142256580Y-128729581D01*
X142228326Y-128708430D01*
X142114786Y-128594890D01*
X141942820Y-128469951D01*
X141753414Y-128373444D01*
X141753413Y-128373443D01*
X141753412Y-128373443D01*
X141551243Y-128307754D01*
X141551241Y-128307753D01*
X141551240Y-128307753D01*
X141389957Y-128282208D01*
X141341287Y-128274500D01*
X141128713Y-128274500D01*
X141080042Y-128282208D01*
X140918760Y-128307753D01*
X140716585Y-128373444D01*
X140527179Y-128469951D01*
X140355213Y-128594890D01*
X140204890Y-128745213D01*
X140079951Y-128917179D01*
X139983444Y-129106585D01*
X139917753Y-129308760D01*
X139884500Y-129518713D01*
X124797935Y-129518713D01*
X124746557Y-129360588D01*
X124650051Y-129171184D01*
X124650049Y-129171181D01*
X124650048Y-129171179D01*
X124525109Y-128999213D01*
X124374786Y-128848890D01*
X124202820Y-128723951D01*
X124013414Y-128627444D01*
X124013413Y-128627443D01*
X124013412Y-128627443D01*
X123811243Y-128561754D01*
X123811241Y-128561753D01*
X123811240Y-128561753D01*
X123627621Y-128532671D01*
X123601287Y-128528500D01*
X123388713Y-128528500D01*
X123362379Y-128532671D01*
X123178760Y-128561753D01*
X122976585Y-128627444D01*
X122787179Y-128723951D01*
X122615213Y-128848890D01*
X122464890Y-128999213D01*
X122339949Y-129171182D01*
X122335484Y-129179946D01*
X122287509Y-129230742D01*
X122219688Y-129247536D01*
X122153553Y-129224998D01*
X122114516Y-129179946D01*
X122110050Y-129171182D01*
X121985109Y-128999213D01*
X121834786Y-128848890D01*
X121662820Y-128723951D01*
X121473414Y-128627444D01*
X121473413Y-128627443D01*
X121473412Y-128627443D01*
X121271243Y-128561754D01*
X121271241Y-128561753D01*
X121271240Y-128561753D01*
X121087621Y-128532671D01*
X121061287Y-128528500D01*
X120848713Y-128528500D01*
X120822379Y-128532671D01*
X120638760Y-128561753D01*
X120436585Y-128627444D01*
X120247179Y-128723951D01*
X120075213Y-128848890D01*
X119924890Y-128999213D01*
X119799951Y-129171179D01*
X119703444Y-129360585D01*
X119637753Y-129562760D01*
X119604500Y-129772713D01*
X112730500Y-129772713D01*
X112730500Y-126096711D01*
X113879500Y-126096711D01*
X113879500Y-126339288D01*
X113911161Y-126579785D01*
X113973947Y-126814104D01*
X114066773Y-127038205D01*
X114066776Y-127038212D01*
X114188064Y-127248289D01*
X114188066Y-127248292D01*
X114188067Y-127248293D01*
X114335733Y-127440736D01*
X114335739Y-127440743D01*
X114507256Y-127612260D01*
X114507262Y-127612265D01*
X114699711Y-127759936D01*
X114909788Y-127881224D01*
X115133900Y-127974054D01*
X115368211Y-128036838D01*
X115548586Y-128060584D01*
X115608711Y-128068500D01*
X115608712Y-128068500D01*
X115851289Y-128068500D01*
X115899388Y-128062167D01*
X116091789Y-128036838D01*
X116326100Y-127974054D01*
X116550212Y-127881224D01*
X116760289Y-127759936D01*
X116952738Y-127612265D01*
X117124265Y-127440738D01*
X117271936Y-127248289D01*
X117393224Y-127038212D01*
X117486054Y-126814100D01*
X117548838Y-126579789D01*
X117580500Y-126339288D01*
X117580500Y-126096712D01*
X117548838Y-125856211D01*
X117486054Y-125621900D01*
X117393224Y-125397788D01*
X117271936Y-125187711D01*
X117124265Y-124995262D01*
X117124260Y-124995256D01*
X116952743Y-124823739D01*
X116952736Y-124823733D01*
X116760293Y-124676067D01*
X116760292Y-124676066D01*
X116760289Y-124676064D01*
X116550212Y-124554776D01*
X116550205Y-124554773D01*
X116326104Y-124461947D01*
X116091785Y-124399161D01*
X115851289Y-124367500D01*
X115851288Y-124367500D01*
X115608712Y-124367500D01*
X115608711Y-124367500D01*
X115368214Y-124399161D01*
X115133895Y-124461947D01*
X114909794Y-124554773D01*
X114909785Y-124554777D01*
X114699706Y-124676067D01*
X114507263Y-124823733D01*
X114507256Y-124823739D01*
X114335739Y-124995256D01*
X114335733Y-124995263D01*
X114188067Y-125187706D01*
X114066777Y-125397785D01*
X114066773Y-125397794D01*
X113973947Y-125621895D01*
X113911161Y-125856214D01*
X113879500Y-126096711D01*
X112730500Y-126096711D01*
X112730500Y-113621153D01*
X130499500Y-113621153D01*
X130499500Y-113778846D01*
X130530261Y-113933489D01*
X130530264Y-113933501D01*
X130590602Y-114079172D01*
X130590609Y-114079185D01*
X130678210Y-114210288D01*
X130678213Y-114210292D01*
X130789707Y-114321786D01*
X130789711Y-114321789D01*
X130920814Y-114409390D01*
X130920827Y-114409397D01*
X131050675Y-114463181D01*
X131066503Y-114469737D01*
X131131147Y-114482595D01*
X131221849Y-114500638D01*
X131283760Y-114533023D01*
X131285339Y-114534574D01*
X132215139Y-115464374D01*
X132215149Y-115464385D01*
X132219479Y-115468715D01*
X132219480Y-115468716D01*
X132331284Y-115580520D01*
X132401294Y-115620939D01*
X132418095Y-115630639D01*
X132418097Y-115630641D01*
X132442434Y-115644692D01*
X132468215Y-115659577D01*
X132620943Y-115700501D01*
X132620946Y-115700501D01*
X132786653Y-115700501D01*
X132786669Y-115700500D01*
X136599903Y-115700500D01*
X136629343Y-115709144D01*
X136659330Y-115715668D01*
X136664345Y-115719422D01*
X136666942Y-115720185D01*
X136687584Y-115736819D01*
X136863181Y-115912416D01*
X136896666Y-115973739D01*
X136899500Y-116000097D01*
X136899500Y-119913330D01*
X136899499Y-119913348D01*
X136899499Y-120079054D01*
X136899498Y-120079054D01*
X136940423Y-120231785D01*
X136969358Y-120281900D01*
X136969359Y-120281904D01*
X136969360Y-120281904D01*
X137019479Y-120368714D01*
X137019481Y-120368717D01*
X137138349Y-120487585D01*
X137138355Y-120487590D01*
X137719478Y-121068713D01*
X137719480Y-121068716D01*
X137831284Y-121180520D01*
X137832337Y-121181128D01*
X137838887Y-121187653D01*
X137851996Y-121211552D01*
X137868067Y-121233569D01*
X137868552Y-121241736D01*
X137872488Y-121248912D01*
X137870594Y-121276106D01*
X137872212Y-121303316D01*
X137868204Y-121310450D01*
X137867636Y-121318613D01*
X137851341Y-121340465D01*
X137837991Y-121364231D01*
X137830762Y-121368065D01*
X137825871Y-121374626D01*
X137800349Y-121384200D01*
X137776269Y-121396975D01*
X137762601Y-121398361D01*
X137760453Y-121399167D01*
X137758597Y-121398767D01*
X137751372Y-121399500D01*
X133300097Y-121399500D01*
X133233058Y-121379815D01*
X133212416Y-121363181D01*
X133036819Y-121187584D01*
X133003334Y-121126261D01*
X133000500Y-121099903D01*
X133000500Y-119979765D01*
X133020185Y-119912726D01*
X133021398Y-119910874D01*
X133109390Y-119779185D01*
X133109390Y-119779184D01*
X133109394Y-119779179D01*
X133169737Y-119633497D01*
X133200500Y-119478842D01*
X133200500Y-119321158D01*
X133200500Y-119321155D01*
X133200499Y-119321153D01*
X133169738Y-119166510D01*
X133169737Y-119166503D01*
X133160317Y-119143760D01*
X133109397Y-119020827D01*
X133109390Y-119020814D01*
X133021789Y-118889711D01*
X133021786Y-118889707D01*
X132910292Y-118778213D01*
X132910288Y-118778210D01*
X132779185Y-118690609D01*
X132779172Y-118690602D01*
X132633501Y-118630264D01*
X132633489Y-118630261D01*
X132478845Y-118599500D01*
X132478842Y-118599500D01*
X132321158Y-118599500D01*
X132321155Y-118599500D01*
X132166510Y-118630261D01*
X132166498Y-118630264D01*
X132020827Y-118690602D01*
X132020814Y-118690609D01*
X131889711Y-118778210D01*
X131889707Y-118778213D01*
X131778213Y-118889707D01*
X131778210Y-118889711D01*
X131690609Y-119020814D01*
X131690602Y-119020827D01*
X131630264Y-119166498D01*
X131630261Y-119166510D01*
X131599500Y-119321153D01*
X131599500Y-119478846D01*
X131630261Y-119633489D01*
X131630264Y-119633501D01*
X131690602Y-119779172D01*
X131690609Y-119779185D01*
X131778602Y-119910874D01*
X131799480Y-119977551D01*
X131799500Y-119979765D01*
X131799500Y-121313330D01*
X131799499Y-121313348D01*
X131799499Y-121479054D01*
X131799498Y-121479054D01*
X131840423Y-121631785D01*
X131869358Y-121681900D01*
X131869359Y-121681904D01*
X131869360Y-121681904D01*
X131919479Y-121768714D01*
X131919481Y-121768717D01*
X132038349Y-121887585D01*
X132038355Y-121887590D01*
X132515139Y-122364374D01*
X132515149Y-122364385D01*
X132519479Y-122368715D01*
X132519480Y-122368716D01*
X132631284Y-122480520D01*
X132696917Y-122518412D01*
X132718095Y-122530639D01*
X132718097Y-122530641D01*
X132756151Y-122552611D01*
X132768215Y-122559577D01*
X132920943Y-122600500D01*
X133079057Y-122600500D01*
X138714281Y-122600500D01*
X138781320Y-122620185D01*
X138824765Y-122668205D01*
X138844947Y-122707814D01*
X138844948Y-122707815D01*
X138969890Y-122879786D01*
X139120213Y-123030109D01*
X139292179Y-123155048D01*
X139292181Y-123155049D01*
X139292184Y-123155051D01*
X139481588Y-123251557D01*
X139683757Y-123317246D01*
X139893713Y-123350500D01*
X139893714Y-123350500D01*
X140106286Y-123350500D01*
X140106287Y-123350500D01*
X140316243Y-123317246D01*
X140518412Y-123251557D01*
X140707816Y-123155051D01*
X140729789Y-123139086D01*
X140879786Y-123030109D01*
X140879788Y-123030106D01*
X140879792Y-123030104D01*
X141030104Y-122879792D01*
X141030106Y-122879788D01*
X141030109Y-122879786D01*
X141155048Y-122707820D01*
X141155047Y-122707820D01*
X141155051Y-122707816D01*
X141251557Y-122518412D01*
X141317246Y-122316243D01*
X141350500Y-122106287D01*
X141350500Y-121893713D01*
X141317246Y-121683757D01*
X141251557Y-121481588D01*
X141251555Y-121481585D01*
X141251555Y-121481583D01*
X141251154Y-121480796D01*
X141251091Y-121480463D01*
X141249690Y-121477079D01*
X141250400Y-121476784D01*
X141238257Y-121412127D01*
X141264532Y-121347387D01*
X141321638Y-121307129D01*
X141361638Y-121300500D01*
X146799903Y-121300500D01*
X146866942Y-121320185D01*
X146887583Y-121336818D01*
X148031284Y-122480520D01*
X148031286Y-122480521D01*
X148031290Y-122480524D01*
X148168209Y-122559573D01*
X148168212Y-122559575D01*
X148168216Y-122559577D01*
X148320943Y-122600501D01*
X148320945Y-122600501D01*
X148486654Y-122600501D01*
X148486670Y-122600500D01*
X153954281Y-122600500D01*
X154021320Y-122620185D01*
X154064765Y-122668205D01*
X154084947Y-122707814D01*
X154084948Y-122707815D01*
X154209890Y-122879786D01*
X154360213Y-123030109D01*
X154532179Y-123155048D01*
X154532181Y-123155049D01*
X154532184Y-123155051D01*
X154721588Y-123251557D01*
X154923757Y-123317246D01*
X155133713Y-123350500D01*
X155133714Y-123350500D01*
X155346286Y-123350500D01*
X155346287Y-123350500D01*
X155556243Y-123317246D01*
X155758412Y-123251557D01*
X155947816Y-123155051D01*
X155969789Y-123139086D01*
X156119786Y-123030109D01*
X156119788Y-123030106D01*
X156119792Y-123030104D01*
X156270104Y-122879792D01*
X156270106Y-122879788D01*
X156270109Y-122879786D01*
X156395048Y-122707820D01*
X156395047Y-122707820D01*
X156395051Y-122707816D01*
X156491557Y-122518412D01*
X156557246Y-122316243D01*
X156590500Y-122106287D01*
X156590500Y-121893713D01*
X156557246Y-121683757D01*
X156491557Y-121481588D01*
X156395051Y-121292184D01*
X156395049Y-121292181D01*
X156395048Y-121292179D01*
X156270109Y-121120213D01*
X156119786Y-120969890D01*
X155947820Y-120844951D01*
X155947115Y-120844591D01*
X155939054Y-120840485D01*
X155888259Y-120792512D01*
X155871463Y-120724692D01*
X155893999Y-120658556D01*
X155939054Y-120619515D01*
X155947816Y-120615051D01*
X155969789Y-120599086D01*
X156119786Y-120490109D01*
X156119788Y-120490106D01*
X156119792Y-120490104D01*
X156270104Y-120339792D01*
X156270106Y-120339788D01*
X156270109Y-120339786D01*
X156395048Y-120167820D01*
X156395047Y-120167820D01*
X156395051Y-120167816D01*
X156491557Y-119978412D01*
X156557246Y-119776243D01*
X156590500Y-119566287D01*
X156590500Y-119353713D01*
X156557246Y-119143757D01*
X156491557Y-118941588D01*
X156395051Y-118752184D01*
X156395049Y-118752181D01*
X156395048Y-118752179D01*
X156270109Y-118580213D01*
X156119786Y-118429890D01*
X155947820Y-118304951D01*
X155947115Y-118304591D01*
X155939054Y-118300485D01*
X155888259Y-118252512D01*
X155871463Y-118184692D01*
X155893999Y-118118556D01*
X155939054Y-118079515D01*
X155947816Y-118075051D01*
X155969789Y-118059086D01*
X156119786Y-117950109D01*
X156119788Y-117950106D01*
X156119792Y-117950104D01*
X156270104Y-117799792D01*
X156270106Y-117799788D01*
X156270109Y-117799786D01*
X156395048Y-117627820D01*
X156395047Y-117627820D01*
X156395051Y-117627816D01*
X156491557Y-117438412D01*
X156557246Y-117236243D01*
X156590500Y-117026287D01*
X156590500Y-116813713D01*
X156557246Y-116603757D01*
X156491557Y-116401588D01*
X156395051Y-116212184D01*
X156395049Y-116212181D01*
X156395048Y-116212179D01*
X156270109Y-116040213D01*
X156119786Y-115889890D01*
X155947820Y-115764951D01*
X155947115Y-115764591D01*
X155939054Y-115760485D01*
X155888259Y-115712512D01*
X155871463Y-115644692D01*
X155893999Y-115578556D01*
X155939054Y-115539515D01*
X155947816Y-115535051D01*
X156039809Y-115468215D01*
X156119786Y-115410109D01*
X156119792Y-115410104D01*
X156119794Y-115410102D01*
X156270104Y-115259792D01*
X156270106Y-115259788D01*
X156270109Y-115259786D01*
X156395048Y-115087820D01*
X156395047Y-115087820D01*
X156395051Y-115087816D01*
X156491557Y-114898412D01*
X156557246Y-114696243D01*
X156590500Y-114486287D01*
X156590500Y-114273713D01*
X156557246Y-114063757D01*
X156491557Y-113861588D01*
X156395051Y-113672184D01*
X156395049Y-113672181D01*
X156395048Y-113672179D01*
X156270109Y-113500213D01*
X156119786Y-113349890D01*
X155947820Y-113224951D01*
X155947115Y-113224591D01*
X155939054Y-113220485D01*
X155932896Y-113214668D01*
X155924853Y-113212011D01*
X155907876Y-113191039D01*
X155888259Y-113172512D01*
X155886222Y-113164289D01*
X155880892Y-113157704D01*
X155877948Y-113130879D01*
X155871463Y-113104692D01*
X155874182Y-113096711D01*
X158879500Y-113096711D01*
X158879500Y-113339288D01*
X158911161Y-113579785D01*
X158973947Y-113814104D01*
X159023403Y-113933501D01*
X159066776Y-114038212D01*
X159188064Y-114248289D01*
X159188066Y-114248292D01*
X159188067Y-114248293D01*
X159335733Y-114440736D01*
X159335739Y-114440743D01*
X159507256Y-114612260D01*
X159507262Y-114612265D01*
X159699711Y-114759936D01*
X159909788Y-114881224D01*
X160133900Y-114974054D01*
X160368211Y-115036838D01*
X160548586Y-115060584D01*
X160608711Y-115068500D01*
X160608712Y-115068500D01*
X160851289Y-115068500D01*
X160899388Y-115062167D01*
X161091789Y-115036838D01*
X161326100Y-114974054D01*
X161550212Y-114881224D01*
X161760289Y-114759936D01*
X161952738Y-114612265D01*
X162124265Y-114440738D01*
X162271936Y-114248289D01*
X162393224Y-114038212D01*
X162486054Y-113814100D01*
X162548838Y-113579789D01*
X162580500Y-113339288D01*
X162580500Y-113096712D01*
X162548838Y-112856211D01*
X162486054Y-112621900D01*
X162393224Y-112397788D01*
X162271936Y-112187711D01*
X162124265Y-111995262D01*
X162124260Y-111995256D01*
X161952743Y-111823739D01*
X161952736Y-111823733D01*
X161760293Y-111676067D01*
X161760292Y-111676066D01*
X161760289Y-111676064D01*
X161550212Y-111554776D01*
X161475333Y-111523760D01*
X161326104Y-111461947D01*
X161091785Y-111399161D01*
X160851289Y-111367500D01*
X160851288Y-111367500D01*
X160608712Y-111367500D01*
X160608711Y-111367500D01*
X160368214Y-111399161D01*
X160133895Y-111461947D01*
X159909794Y-111554773D01*
X159909785Y-111554777D01*
X159699706Y-111676067D01*
X159507263Y-111823733D01*
X159507256Y-111823739D01*
X159335739Y-111995256D01*
X159335733Y-111995263D01*
X159188067Y-112187706D01*
X159066777Y-112397785D01*
X159066773Y-112397794D01*
X158973947Y-112621895D01*
X158911161Y-112856214D01*
X158879500Y-113096711D01*
X155874182Y-113096711D01*
X155874195Y-113096674D01*
X155873271Y-113088252D01*
X155885295Y-113064097D01*
X155893999Y-113038556D01*
X155901445Y-113031657D01*
X155904409Y-113025704D01*
X155923216Y-113011487D01*
X155931841Y-113003497D01*
X155935370Y-113001392D01*
X155947816Y-112995051D01*
X155956112Y-112989024D01*
X156119786Y-112870109D01*
X156119788Y-112870106D01*
X156119792Y-112870104D01*
X156270104Y-112719792D01*
X156270106Y-112719788D01*
X156270109Y-112719786D01*
X156395048Y-112547820D01*
X156395047Y-112547820D01*
X156395051Y-112547816D01*
X156491557Y-112358412D01*
X156557246Y-112156243D01*
X156590500Y-111946287D01*
X156590500Y-111733713D01*
X156557246Y-111523757D01*
X156491557Y-111321588D01*
X156395051Y-111132184D01*
X156395049Y-111132181D01*
X156395048Y-111132179D01*
X156270109Y-110960213D01*
X156119786Y-110809890D01*
X155947820Y-110684951D01*
X155758414Y-110588444D01*
X155758413Y-110588443D01*
X155758412Y-110588443D01*
X155556243Y-110522754D01*
X155556241Y-110522753D01*
X155556240Y-110522753D01*
X155394957Y-110497208D01*
X155346287Y-110489500D01*
X155133713Y-110489500D01*
X155085042Y-110497208D01*
X154923760Y-110522753D01*
X154721585Y-110588444D01*
X154532179Y-110684951D01*
X154360213Y-110809890D01*
X154209890Y-110960213D01*
X154084951Y-111132179D01*
X153988444Y-111321585D01*
X153922753Y-111523760D01*
X153889500Y-111733713D01*
X153889500Y-111946286D01*
X153922753Y-112156239D01*
X153988444Y-112358414D01*
X154084951Y-112547820D01*
X154209890Y-112719786D01*
X154360213Y-112870109D01*
X154532182Y-112995050D01*
X154540946Y-112999516D01*
X154591742Y-113047491D01*
X154608536Y-113115312D01*
X154585998Y-113181447D01*
X154540946Y-113220484D01*
X154532182Y-113224949D01*
X154360213Y-113349890D01*
X154209890Y-113500213D01*
X154084951Y-113672179D01*
X153988444Y-113861585D01*
X153922753Y-114063760D01*
X153899545Y-114210289D01*
X153889500Y-114273713D01*
X153889500Y-114486287D01*
X153922754Y-114696243D01*
X153982858Y-114881224D01*
X153988444Y-114898414D01*
X154084951Y-115087820D01*
X154209890Y-115259786D01*
X154360213Y-115410109D01*
X154532182Y-115535050D01*
X154540946Y-115539516D01*
X154591742Y-115587491D01*
X154608536Y-115655312D01*
X154585998Y-115721447D01*
X154540946Y-115760484D01*
X154532182Y-115764949D01*
X154360213Y-115889890D01*
X154209890Y-116040213D01*
X154084951Y-116212179D01*
X153988444Y-116401585D01*
X153922753Y-116603760D01*
X153889500Y-116813713D01*
X153889500Y-117026286D01*
X153922753Y-117236239D01*
X153988444Y-117438414D01*
X154084951Y-117627820D01*
X154209890Y-117799786D01*
X154360213Y-117950109D01*
X154532182Y-118075050D01*
X154540946Y-118079516D01*
X154591742Y-118127491D01*
X154608536Y-118195312D01*
X154585998Y-118261447D01*
X154540946Y-118300484D01*
X154532182Y-118304949D01*
X154360213Y-118429890D01*
X154209890Y-118580213D01*
X154084951Y-118752179D01*
X153988444Y-118941585D01*
X153922753Y-119143760D01*
X153889500Y-119353713D01*
X153889500Y-119566286D01*
X153914837Y-119726261D01*
X153922754Y-119776243D01*
X153988163Y-119977551D01*
X153988444Y-119978414D01*
X154084951Y-120167820D01*
X154209890Y-120339786D01*
X154360213Y-120490109D01*
X154532182Y-120615050D01*
X154540946Y-120619516D01*
X154591742Y-120667491D01*
X154608536Y-120735312D01*
X154585998Y-120801447D01*
X154540946Y-120840484D01*
X154532182Y-120844949D01*
X154360213Y-120969890D01*
X154209890Y-121120213D01*
X154084948Y-121292184D01*
X154084947Y-121292185D01*
X154064765Y-121331795D01*
X154016791Y-121382591D01*
X153954281Y-121399500D01*
X148700098Y-121399500D01*
X148633059Y-121379815D01*
X148612417Y-121363181D01*
X147587590Y-120338355D01*
X147587588Y-120338352D01*
X147468717Y-120219481D01*
X147468712Y-120219477D01*
X147379231Y-120167816D01*
X147331785Y-120140423D01*
X147179057Y-120099499D01*
X147020943Y-120099499D01*
X147013347Y-120099499D01*
X147013331Y-120099500D01*
X141382884Y-120099500D01*
X141315845Y-120079815D01*
X141270090Y-120027011D01*
X141260146Y-119957853D01*
X141264951Y-119937187D01*
X141317246Y-119776243D01*
X141350500Y-119566287D01*
X141350500Y-119353713D01*
X141317246Y-119143757D01*
X141251557Y-118941588D01*
X141155051Y-118752184D01*
X141155049Y-118752181D01*
X141155048Y-118752179D01*
X141030109Y-118580213D01*
X140879786Y-118429890D01*
X140707820Y-118304951D01*
X140707115Y-118304591D01*
X140699054Y-118300485D01*
X140648259Y-118252512D01*
X140631463Y-118184692D01*
X140653999Y-118118556D01*
X140699054Y-118079515D01*
X140707816Y-118075051D01*
X140729789Y-118059086D01*
X140879786Y-117950109D01*
X140879788Y-117950106D01*
X140879792Y-117950104D01*
X141030104Y-117799792D01*
X141030106Y-117799788D01*
X141030109Y-117799786D01*
X141155048Y-117627820D01*
X141155047Y-117627820D01*
X141155051Y-117627816D01*
X141251557Y-117438412D01*
X141317246Y-117236243D01*
X141350500Y-117026287D01*
X141350500Y-116813713D01*
X141317246Y-116603757D01*
X141251557Y-116401588D01*
X141155051Y-116212184D01*
X141155049Y-116212181D01*
X141155048Y-116212179D01*
X141030109Y-116040213D01*
X140879786Y-115889890D01*
X140707820Y-115764951D01*
X140707115Y-115764591D01*
X140699054Y-115760485D01*
X140648259Y-115712512D01*
X140631463Y-115644692D01*
X140653999Y-115578556D01*
X140699054Y-115539515D01*
X140707816Y-115535051D01*
X140799809Y-115468215D01*
X140879786Y-115410109D01*
X140879792Y-115410104D01*
X140879794Y-115410102D01*
X141030104Y-115259792D01*
X141030106Y-115259788D01*
X141030109Y-115259786D01*
X141155048Y-115087820D01*
X141155047Y-115087820D01*
X141155051Y-115087816D01*
X141251557Y-114898412D01*
X141317246Y-114696243D01*
X141350500Y-114486287D01*
X141350500Y-114273713D01*
X141317246Y-114063757D01*
X141251557Y-113861588D01*
X141155051Y-113672184D01*
X141155049Y-113672181D01*
X141155048Y-113672179D01*
X141030109Y-113500213D01*
X140879786Y-113349890D01*
X140707820Y-113224951D01*
X140707115Y-113224591D01*
X140699054Y-113220485D01*
X140648259Y-113172512D01*
X140631463Y-113104692D01*
X140653999Y-113038556D01*
X140699054Y-112999515D01*
X140707816Y-112995051D01*
X140729789Y-112979086D01*
X140879786Y-112870109D01*
X140879788Y-112870106D01*
X140879792Y-112870104D01*
X141030104Y-112719792D01*
X141030106Y-112719788D01*
X141030109Y-112719786D01*
X141155048Y-112547820D01*
X141155047Y-112547820D01*
X141155051Y-112547816D01*
X141251557Y-112358412D01*
X141317246Y-112156243D01*
X141350500Y-111946287D01*
X141350500Y-111733713D01*
X141317246Y-111523757D01*
X141251557Y-111321588D01*
X141155051Y-111132184D01*
X141155049Y-111132181D01*
X141155048Y-111132179D01*
X141030109Y-110960213D01*
X140879786Y-110809890D01*
X140707820Y-110684951D01*
X140707115Y-110684591D01*
X140699054Y-110680485D01*
X140648259Y-110632512D01*
X140631463Y-110564692D01*
X140653999Y-110498556D01*
X140699054Y-110459515D01*
X140707816Y-110455051D01*
X140729789Y-110439086D01*
X140879786Y-110330109D01*
X140879788Y-110330106D01*
X140879792Y-110330104D01*
X141030104Y-110179792D01*
X141030106Y-110179788D01*
X141030109Y-110179786D01*
X141155048Y-110007820D01*
X141155047Y-110007820D01*
X141155051Y-110007816D01*
X141251557Y-109818412D01*
X141317246Y-109616243D01*
X141350500Y-109406287D01*
X141350500Y-109193713D01*
X141317246Y-108983757D01*
X141251557Y-108781588D01*
X141155051Y-108592184D01*
X141155049Y-108592181D01*
X141155048Y-108592179D01*
X141030109Y-108420213D01*
X140916569Y-108306673D01*
X140883084Y-108245350D01*
X140888068Y-108175658D01*
X140929940Y-108119725D01*
X140960915Y-108102810D01*
X141092331Y-108053796D01*
X141207546Y-107967546D01*
X141293796Y-107852331D01*
X141344091Y-107717483D01*
X141350500Y-107657873D01*
X141350499Y-105862135D01*
X153889500Y-105862135D01*
X153889500Y-107657870D01*
X153889501Y-107657876D01*
X153895908Y-107717483D01*
X153946202Y-107852328D01*
X153946206Y-107852335D01*
X154032452Y-107967544D01*
X154032455Y-107967547D01*
X154147664Y-108053793D01*
X154147671Y-108053797D01*
X154282517Y-108104091D01*
X154282516Y-108104091D01*
X154289444Y-108104835D01*
X154342127Y-108110500D01*
X156137872Y-108110499D01*
X156197483Y-108104091D01*
X156332331Y-108053796D01*
X156447546Y-107967546D01*
X156533796Y-107852331D01*
X156584091Y-107717483D01*
X156590500Y-107657873D01*
X156590499Y-105862128D01*
X156584091Y-105802517D01*
X156580945Y-105794083D01*
X156533797Y-105667671D01*
X156533793Y-105667664D01*
X156447547Y-105552455D01*
X156447544Y-105552452D01*
X156332335Y-105466206D01*
X156332328Y-105466202D01*
X156197482Y-105415908D01*
X156197483Y-105415908D01*
X156137883Y-105409501D01*
X156137881Y-105409500D01*
X156137873Y-105409500D01*
X156137864Y-105409500D01*
X154342129Y-105409500D01*
X154342123Y-105409501D01*
X154282516Y-105415908D01*
X154147671Y-105466202D01*
X154147664Y-105466206D01*
X154032455Y-105552452D01*
X154032452Y-105552455D01*
X153946206Y-105667664D01*
X153946202Y-105667671D01*
X153895908Y-105802517D01*
X153890037Y-105857128D01*
X153889501Y-105862123D01*
X153889500Y-105862135D01*
X141350499Y-105862135D01*
X141350499Y-105862128D01*
X141344091Y-105802517D01*
X141340945Y-105794083D01*
X141293797Y-105667671D01*
X141293793Y-105667664D01*
X141207547Y-105552455D01*
X141207544Y-105552452D01*
X141092335Y-105466206D01*
X141092328Y-105466202D01*
X140957482Y-105415908D01*
X140957483Y-105415908D01*
X140897883Y-105409501D01*
X140897881Y-105409500D01*
X140897873Y-105409500D01*
X140897864Y-105409500D01*
X139102129Y-105409500D01*
X139102123Y-105409501D01*
X139042516Y-105415908D01*
X138907671Y-105466202D01*
X138907664Y-105466206D01*
X138792455Y-105552452D01*
X138792452Y-105552455D01*
X138706206Y-105667664D01*
X138706202Y-105667671D01*
X138655908Y-105802517D01*
X138650037Y-105857128D01*
X138649501Y-105862123D01*
X138649500Y-105862135D01*
X138649500Y-107657870D01*
X138649501Y-107657876D01*
X138655908Y-107717483D01*
X138706202Y-107852328D01*
X138706206Y-107852335D01*
X138792452Y-107967544D01*
X138792455Y-107967547D01*
X138907664Y-108053793D01*
X138907671Y-108053797D01*
X139039082Y-108102810D01*
X139095016Y-108144681D01*
X139119433Y-108210145D01*
X139104582Y-108278418D01*
X139083431Y-108306673D01*
X138969889Y-108420215D01*
X138844951Y-108592179D01*
X138748444Y-108781585D01*
X138682753Y-108983760D01*
X138650292Y-109188713D01*
X138649500Y-109193713D01*
X138649500Y-109406287D01*
X138682754Y-109616243D01*
X138746818Y-109813412D01*
X138748444Y-109818414D01*
X138844951Y-110007820D01*
X138969890Y-110179786D01*
X139120213Y-110330109D01*
X139292182Y-110455050D01*
X139300946Y-110459516D01*
X139351742Y-110507491D01*
X139368536Y-110575312D01*
X139345998Y-110641447D01*
X139300946Y-110680484D01*
X139292182Y-110684949D01*
X139120213Y-110809890D01*
X138969890Y-110960213D01*
X138844951Y-111132179D01*
X138748444Y-111321585D01*
X138682753Y-111523760D01*
X138649500Y-111733713D01*
X138649500Y-111946286D01*
X138682753Y-112156239D01*
X138748444Y-112358414D01*
X138844951Y-112547820D01*
X138969890Y-112719786D01*
X139120213Y-112870109D01*
X139292182Y-112995050D01*
X139300946Y-112999516D01*
X139351742Y-113047491D01*
X139368536Y-113115312D01*
X139345998Y-113181447D01*
X139300946Y-113220484D01*
X139292182Y-113224949D01*
X139120213Y-113349890D01*
X138969890Y-113500213D01*
X138844951Y-113672179D01*
X138748444Y-113861585D01*
X138682753Y-114063760D01*
X138659545Y-114210289D01*
X138649500Y-114273713D01*
X138649500Y-114486287D01*
X138682754Y-114696243D01*
X138742858Y-114881224D01*
X138748444Y-114898414D01*
X138844951Y-115087820D01*
X138969890Y-115259786D01*
X139120213Y-115410109D01*
X139292182Y-115535050D01*
X139300946Y-115539516D01*
X139351742Y-115587491D01*
X139368536Y-115655312D01*
X139345998Y-115721447D01*
X139300946Y-115760484D01*
X139292182Y-115764949D01*
X139120213Y-115889890D01*
X138969890Y-116040213D01*
X138844951Y-116212179D01*
X138748444Y-116401585D01*
X138682753Y-116603760D01*
X138649500Y-116813713D01*
X138649500Y-117026286D01*
X138682753Y-117236239D01*
X138748444Y-117438414D01*
X138844951Y-117627820D01*
X138969890Y-117799786D01*
X139120213Y-117950109D01*
X139292182Y-118075050D01*
X139300946Y-118079516D01*
X139351742Y-118127491D01*
X139368536Y-118195312D01*
X139345998Y-118261447D01*
X139300946Y-118300484D01*
X139292182Y-118304949D01*
X139120213Y-118429890D01*
X138969890Y-118580213D01*
X138844951Y-118752179D01*
X138748444Y-118941585D01*
X138682753Y-119143760D01*
X138649500Y-119353713D01*
X138649500Y-119566286D01*
X138674837Y-119726261D01*
X138682754Y-119776243D01*
X138735047Y-119937183D01*
X138735850Y-119965301D01*
X138739854Y-119993147D01*
X138736834Y-119999758D01*
X138737042Y-120007023D01*
X138722515Y-120031112D01*
X138710829Y-120056703D01*
X138704715Y-120060632D01*
X138700962Y-120066856D01*
X138675715Y-120079268D01*
X138652051Y-120094477D01*
X138641780Y-120095953D01*
X138638261Y-120097684D01*
X138617116Y-120099500D01*
X138500097Y-120099500D01*
X138433058Y-120079815D01*
X138412416Y-120063181D01*
X138136819Y-119787584D01*
X138103334Y-119726261D01*
X138100500Y-119699903D01*
X138100500Y-115620946D01*
X138100499Y-115620939D01*
X138089669Y-115580520D01*
X138059577Y-115468215D01*
X138026026Y-115410104D01*
X138026026Y-115410102D01*
X137980524Y-115331290D01*
X137980521Y-115331286D01*
X137980520Y-115331284D01*
X137868716Y-115219480D01*
X137868715Y-115219479D01*
X137864385Y-115215149D01*
X137864374Y-115215139D01*
X137387590Y-114738355D01*
X137387588Y-114738352D01*
X137268717Y-114619481D01*
X137268716Y-114619480D01*
X137181904Y-114569360D01*
X137181904Y-114569359D01*
X137181900Y-114569358D01*
X137131785Y-114540423D01*
X136979057Y-114499499D01*
X136820943Y-114499499D01*
X136813347Y-114499499D01*
X136813331Y-114499500D01*
X133000097Y-114499500D01*
X132933058Y-114479815D01*
X132912416Y-114463181D01*
X132134574Y-113685339D01*
X132101089Y-113624016D01*
X132100638Y-113621849D01*
X132069738Y-113466510D01*
X132069737Y-113466503D01*
X132069735Y-113466498D01*
X132009397Y-113320827D01*
X132009390Y-113320814D01*
X131921789Y-113189711D01*
X131921786Y-113189707D01*
X131810292Y-113078213D01*
X131810288Y-113078210D01*
X131679185Y-112990609D01*
X131679172Y-112990602D01*
X131533501Y-112930264D01*
X131533489Y-112930261D01*
X131378845Y-112899500D01*
X131378842Y-112899500D01*
X131221158Y-112899500D01*
X131221155Y-112899500D01*
X131066510Y-112930261D01*
X131066498Y-112930264D01*
X130920827Y-112990602D01*
X130920814Y-112990609D01*
X130789711Y-113078210D01*
X130789707Y-113078213D01*
X130678213Y-113189707D01*
X130678210Y-113189711D01*
X130590609Y-113320814D01*
X130590602Y-113320827D01*
X130530264Y-113466498D01*
X130530261Y-113466510D01*
X130499500Y-113621153D01*
X112730500Y-113621153D01*
X112730500Y-106648713D01*
X116790500Y-106648713D01*
X116790500Y-106861286D01*
X116823753Y-107071239D01*
X116889444Y-107273414D01*
X116985951Y-107462820D01*
X117110890Y-107634786D01*
X117261213Y-107785109D01*
X117433179Y-107910048D01*
X117433181Y-107910049D01*
X117433184Y-107910051D01*
X117622588Y-108006557D01*
X117824757Y-108072246D01*
X118034713Y-108105500D01*
X118034714Y-108105500D01*
X118247286Y-108105500D01*
X118247287Y-108105500D01*
X118457243Y-108072246D01*
X118659412Y-108006557D01*
X118848816Y-107910051D01*
X118928256Y-107852335D01*
X119020786Y-107785109D01*
X119020788Y-107785106D01*
X119020792Y-107785104D01*
X119171104Y-107634792D01*
X119171106Y-107634788D01*
X119171109Y-107634786D01*
X119296048Y-107462820D01*
X119296047Y-107462820D01*
X119296051Y-107462816D01*
X119300514Y-107454054D01*
X119348488Y-107403259D01*
X119416308Y-107386463D01*
X119482444Y-107408999D01*
X119521486Y-107454056D01*
X119525951Y-107462820D01*
X119650890Y-107634786D01*
X119801213Y-107785109D01*
X119973182Y-107910050D01*
X119981946Y-107914516D01*
X120032742Y-107962491D01*
X120049536Y-108030312D01*
X120026998Y-108096447D01*
X119981946Y-108135484D01*
X119973182Y-108139949D01*
X119801213Y-108264890D01*
X119650890Y-108415213D01*
X119525951Y-108587179D01*
X119429444Y-108776585D01*
X119363753Y-108978760D01*
X119330500Y-109188713D01*
X119330500Y-109401287D01*
X119363754Y-109611243D01*
X119365377Y-109616239D01*
X119429444Y-109813414D01*
X119525951Y-110002820D01*
X119650890Y-110174786D01*
X119801213Y-110325109D01*
X119973179Y-110450048D01*
X119973181Y-110450049D01*
X119973184Y-110450051D01*
X120162588Y-110546557D01*
X120364757Y-110612246D01*
X120574713Y-110645500D01*
X120574714Y-110645500D01*
X120787286Y-110645500D01*
X120787287Y-110645500D01*
X120997243Y-110612246D01*
X121199412Y-110546557D01*
X121388816Y-110450051D01*
X121410789Y-110434086D01*
X121560786Y-110325109D01*
X121560788Y-110325106D01*
X121560792Y-110325104D01*
X121711104Y-110174792D01*
X121711106Y-110174788D01*
X121711109Y-110174786D01*
X121836048Y-110002820D01*
X121836047Y-110002820D01*
X121836051Y-110002816D01*
X121840514Y-109994054D01*
X121888488Y-109943259D01*
X121956308Y-109926463D01*
X122022444Y-109948999D01*
X122061486Y-109994056D01*
X122065951Y-110002820D01*
X122190890Y-110174786D01*
X122341213Y-110325109D01*
X122513179Y-110450048D01*
X122513181Y-110450049D01*
X122513184Y-110450051D01*
X122702588Y-110546557D01*
X122904757Y-110612246D01*
X123114713Y-110645500D01*
X123114714Y-110645500D01*
X123327286Y-110645500D01*
X123327287Y-110645500D01*
X123537243Y-110612246D01*
X123739412Y-110546557D01*
X123928816Y-110450051D01*
X123950789Y-110434086D01*
X124100786Y-110325109D01*
X124100788Y-110325106D01*
X124100792Y-110325104D01*
X124251104Y-110174792D01*
X124251106Y-110174788D01*
X124251109Y-110174786D01*
X124376048Y-110002820D01*
X124376047Y-110002820D01*
X124376051Y-110002816D01*
X124472557Y-109813412D01*
X124538246Y-109611243D01*
X124571500Y-109401287D01*
X124571500Y-109188713D01*
X124538246Y-108978757D01*
X124472557Y-108776588D01*
X124376051Y-108587184D01*
X124376049Y-108587181D01*
X124376048Y-108587179D01*
X124251109Y-108415213D01*
X124137569Y-108301673D01*
X124104084Y-108240350D01*
X124109068Y-108170658D01*
X124150940Y-108114725D01*
X124181915Y-108097810D01*
X124313331Y-108048796D01*
X124428546Y-107962546D01*
X124514796Y-107847331D01*
X124565091Y-107712483D01*
X124571500Y-107652873D01*
X124571499Y-105857128D01*
X124566299Y-105808757D01*
X124565091Y-105797516D01*
X124514797Y-105662671D01*
X124514793Y-105662664D01*
X124428547Y-105547455D01*
X124428544Y-105547452D01*
X124313335Y-105461206D01*
X124313328Y-105461202D01*
X124178482Y-105410908D01*
X124178483Y-105410908D01*
X124118883Y-105404501D01*
X124118881Y-105404500D01*
X124118873Y-105404500D01*
X124118864Y-105404500D01*
X122323129Y-105404500D01*
X122323123Y-105404501D01*
X122263516Y-105410908D01*
X122128671Y-105461202D01*
X122128664Y-105461206D01*
X122013455Y-105547452D01*
X122013452Y-105547455D01*
X121927206Y-105662664D01*
X121927203Y-105662669D01*
X121878189Y-105794083D01*
X121836317Y-105850016D01*
X121770853Y-105874433D01*
X121702580Y-105859581D01*
X121674326Y-105838430D01*
X121560786Y-105724890D01*
X121388820Y-105599951D01*
X121199414Y-105503444D01*
X121199413Y-105503443D01*
X121199412Y-105503443D01*
X120997243Y-105437754D01*
X120997241Y-105437753D01*
X120997240Y-105437753D01*
X120835957Y-105412208D01*
X120787287Y-105404500D01*
X120574713Y-105404500D01*
X120526042Y-105412208D01*
X120364760Y-105437753D01*
X120162585Y-105503444D01*
X119973179Y-105599951D01*
X119801213Y-105724890D01*
X119650890Y-105875213D01*
X119525949Y-106047182D01*
X119521484Y-106055946D01*
X119473509Y-106106742D01*
X119405688Y-106123536D01*
X119339553Y-106100998D01*
X119300516Y-106055946D01*
X119296050Y-106047182D01*
X119171109Y-105875213D01*
X119020786Y-105724890D01*
X118848820Y-105599951D01*
X118659414Y-105503444D01*
X118659413Y-105503443D01*
X118659412Y-105503443D01*
X118457243Y-105437754D01*
X118457241Y-105437753D01*
X118457240Y-105437753D01*
X118295957Y-105412208D01*
X118247287Y-105404500D01*
X118034713Y-105404500D01*
X117986042Y-105412208D01*
X117824760Y-105437753D01*
X117622585Y-105503444D01*
X117433179Y-105599951D01*
X117261213Y-105724890D01*
X117110890Y-105875213D01*
X116985951Y-106047179D01*
X116889444Y-106236585D01*
X116823753Y-106438760D01*
X116790500Y-106648713D01*
X112730500Y-106648713D01*
X112730500Y-103842500D01*
X112750185Y-103775461D01*
X112802989Y-103729706D01*
X112854500Y-103718500D01*
X163605500Y-103718500D01*
X163672539Y-103738185D01*
G37*
%TD.AperFunction*%
%TD*%
M02*
