%TF.GenerationSoftware,KiCad,Pcbnew,8.0.4*%
%TF.CreationDate,2024-08-21T00:11:03-04:00*%
%TF.ProjectId,Drone_Motherboard,44726f6e-655f-44d6-9f74-686572626f61,rev?*%
%TF.SameCoordinates,Original*%
%TF.FileFunction,Legend,Bot*%
%TF.FilePolarity,Positive*%
%FSLAX46Y46*%
G04 Gerber Fmt 4.6, Leading zero omitted, Abs format (unit mm)*
G04 Created by KiCad (PCBNEW 8.0.4) date 2024-08-21 00:11:03*
%MOMM*%
%LPD*%
G01*
G04 APERTURE LIST*
%ADD10C,0.200000*%
%ADD11C,0.100000*%
G04 APERTURE END LIST*
D10*
X131050628Y-120517219D02*
X131050628Y-119517219D01*
X131050628Y-119517219D02*
X130812533Y-119517219D01*
X130812533Y-119517219D02*
X130669676Y-119564838D01*
X130669676Y-119564838D02*
X130574438Y-119660076D01*
X130574438Y-119660076D02*
X130526819Y-119755314D01*
X130526819Y-119755314D02*
X130479200Y-119945790D01*
X130479200Y-119945790D02*
X130479200Y-120088647D01*
X130479200Y-120088647D02*
X130526819Y-120279123D01*
X130526819Y-120279123D02*
X130574438Y-120374361D01*
X130574438Y-120374361D02*
X130669676Y-120469600D01*
X130669676Y-120469600D02*
X130812533Y-120517219D01*
X130812533Y-120517219D02*
X131050628Y-120517219D01*
X130050628Y-120517219D02*
X130050628Y-119850552D01*
X130050628Y-120041028D02*
X130003009Y-119945790D01*
X130003009Y-119945790D02*
X129955390Y-119898171D01*
X129955390Y-119898171D02*
X129860152Y-119850552D01*
X129860152Y-119850552D02*
X129764914Y-119850552D01*
X129288723Y-120517219D02*
X129383961Y-120469600D01*
X129383961Y-120469600D02*
X129431580Y-120421980D01*
X129431580Y-120421980D02*
X129479199Y-120326742D01*
X129479199Y-120326742D02*
X129479199Y-120041028D01*
X129479199Y-120041028D02*
X129431580Y-119945790D01*
X129431580Y-119945790D02*
X129383961Y-119898171D01*
X129383961Y-119898171D02*
X129288723Y-119850552D01*
X129288723Y-119850552D02*
X129145866Y-119850552D01*
X129145866Y-119850552D02*
X129050628Y-119898171D01*
X129050628Y-119898171D02*
X129003009Y-119945790D01*
X129003009Y-119945790D02*
X128955390Y-120041028D01*
X128955390Y-120041028D02*
X128955390Y-120326742D01*
X128955390Y-120326742D02*
X129003009Y-120421980D01*
X129003009Y-120421980D02*
X129050628Y-120469600D01*
X129050628Y-120469600D02*
X129145866Y-120517219D01*
X129145866Y-120517219D02*
X129288723Y-120517219D01*
X128526818Y-119850552D02*
X128526818Y-120517219D01*
X128526818Y-119945790D02*
X128479199Y-119898171D01*
X128479199Y-119898171D02*
X128383961Y-119850552D01*
X128383961Y-119850552D02*
X128241104Y-119850552D01*
X128241104Y-119850552D02*
X128145866Y-119898171D01*
X128145866Y-119898171D02*
X128098247Y-119993409D01*
X128098247Y-119993409D02*
X128098247Y-120517219D01*
X127241104Y-120469600D02*
X127336342Y-120517219D01*
X127336342Y-120517219D02*
X127526818Y-120517219D01*
X127526818Y-120517219D02*
X127622056Y-120469600D01*
X127622056Y-120469600D02*
X127669675Y-120374361D01*
X127669675Y-120374361D02*
X127669675Y-119993409D01*
X127669675Y-119993409D02*
X127622056Y-119898171D01*
X127622056Y-119898171D02*
X127526818Y-119850552D01*
X127526818Y-119850552D02*
X127336342Y-119850552D01*
X127336342Y-119850552D02*
X127241104Y-119898171D01*
X127241104Y-119898171D02*
X127193485Y-119993409D01*
X127193485Y-119993409D02*
X127193485Y-120088647D01*
X127193485Y-120088647D02*
X127669675Y-120183885D01*
X126003008Y-120517219D02*
X126003008Y-119517219D01*
X126003008Y-119517219D02*
X125669675Y-120231504D01*
X125669675Y-120231504D02*
X125336342Y-119517219D01*
X125336342Y-119517219D02*
X125336342Y-120517219D01*
X124717294Y-120517219D02*
X124812532Y-120469600D01*
X124812532Y-120469600D02*
X124860151Y-120421980D01*
X124860151Y-120421980D02*
X124907770Y-120326742D01*
X124907770Y-120326742D02*
X124907770Y-120041028D01*
X124907770Y-120041028D02*
X124860151Y-119945790D01*
X124860151Y-119945790D02*
X124812532Y-119898171D01*
X124812532Y-119898171D02*
X124717294Y-119850552D01*
X124717294Y-119850552D02*
X124574437Y-119850552D01*
X124574437Y-119850552D02*
X124479199Y-119898171D01*
X124479199Y-119898171D02*
X124431580Y-119945790D01*
X124431580Y-119945790D02*
X124383961Y-120041028D01*
X124383961Y-120041028D02*
X124383961Y-120326742D01*
X124383961Y-120326742D02*
X124431580Y-120421980D01*
X124431580Y-120421980D02*
X124479199Y-120469600D01*
X124479199Y-120469600D02*
X124574437Y-120517219D01*
X124574437Y-120517219D02*
X124717294Y-120517219D01*
X124098246Y-119850552D02*
X123717294Y-119850552D01*
X123955389Y-119517219D02*
X123955389Y-120374361D01*
X123955389Y-120374361D02*
X123907770Y-120469600D01*
X123907770Y-120469600D02*
X123812532Y-120517219D01*
X123812532Y-120517219D02*
X123717294Y-120517219D01*
X123383960Y-120517219D02*
X123383960Y-119517219D01*
X122955389Y-120517219D02*
X122955389Y-119993409D01*
X122955389Y-119993409D02*
X123003008Y-119898171D01*
X123003008Y-119898171D02*
X123098246Y-119850552D01*
X123098246Y-119850552D02*
X123241103Y-119850552D01*
X123241103Y-119850552D02*
X123336341Y-119898171D01*
X123336341Y-119898171D02*
X123383960Y-119945790D01*
X122098246Y-120469600D02*
X122193484Y-120517219D01*
X122193484Y-120517219D02*
X122383960Y-120517219D01*
X122383960Y-120517219D02*
X122479198Y-120469600D01*
X122479198Y-120469600D02*
X122526817Y-120374361D01*
X122526817Y-120374361D02*
X122526817Y-119993409D01*
X122526817Y-119993409D02*
X122479198Y-119898171D01*
X122479198Y-119898171D02*
X122383960Y-119850552D01*
X122383960Y-119850552D02*
X122193484Y-119850552D01*
X122193484Y-119850552D02*
X122098246Y-119898171D01*
X122098246Y-119898171D02*
X122050627Y-119993409D01*
X122050627Y-119993409D02*
X122050627Y-120088647D01*
X122050627Y-120088647D02*
X122526817Y-120183885D01*
X121622055Y-120517219D02*
X121622055Y-119850552D01*
X121622055Y-120041028D02*
X121574436Y-119945790D01*
X121574436Y-119945790D02*
X121526817Y-119898171D01*
X121526817Y-119898171D02*
X121431579Y-119850552D01*
X121431579Y-119850552D02*
X121336341Y-119850552D01*
X121003007Y-120517219D02*
X121003007Y-119517219D01*
X121003007Y-119898171D02*
X120907769Y-119850552D01*
X120907769Y-119850552D02*
X120717293Y-119850552D01*
X120717293Y-119850552D02*
X120622055Y-119898171D01*
X120622055Y-119898171D02*
X120574436Y-119945790D01*
X120574436Y-119945790D02*
X120526817Y-120041028D01*
X120526817Y-120041028D02*
X120526817Y-120326742D01*
X120526817Y-120326742D02*
X120574436Y-120421980D01*
X120574436Y-120421980D02*
X120622055Y-120469600D01*
X120622055Y-120469600D02*
X120717293Y-120517219D01*
X120717293Y-120517219D02*
X120907769Y-120517219D01*
X120907769Y-120517219D02*
X121003007Y-120469600D01*
X119955388Y-120517219D02*
X120050626Y-120469600D01*
X120050626Y-120469600D02*
X120098245Y-120421980D01*
X120098245Y-120421980D02*
X120145864Y-120326742D01*
X120145864Y-120326742D02*
X120145864Y-120041028D01*
X120145864Y-120041028D02*
X120098245Y-119945790D01*
X120098245Y-119945790D02*
X120050626Y-119898171D01*
X120050626Y-119898171D02*
X119955388Y-119850552D01*
X119955388Y-119850552D02*
X119812531Y-119850552D01*
X119812531Y-119850552D02*
X119717293Y-119898171D01*
X119717293Y-119898171D02*
X119669674Y-119945790D01*
X119669674Y-119945790D02*
X119622055Y-120041028D01*
X119622055Y-120041028D02*
X119622055Y-120326742D01*
X119622055Y-120326742D02*
X119669674Y-120421980D01*
X119669674Y-120421980D02*
X119717293Y-120469600D01*
X119717293Y-120469600D02*
X119812531Y-120517219D01*
X119812531Y-120517219D02*
X119955388Y-120517219D01*
X118764912Y-120517219D02*
X118764912Y-119993409D01*
X118764912Y-119993409D02*
X118812531Y-119898171D01*
X118812531Y-119898171D02*
X118907769Y-119850552D01*
X118907769Y-119850552D02*
X119098245Y-119850552D01*
X119098245Y-119850552D02*
X119193483Y-119898171D01*
X118764912Y-120469600D02*
X118860150Y-120517219D01*
X118860150Y-120517219D02*
X119098245Y-120517219D01*
X119098245Y-120517219D02*
X119193483Y-120469600D01*
X119193483Y-120469600D02*
X119241102Y-120374361D01*
X119241102Y-120374361D02*
X119241102Y-120279123D01*
X119241102Y-120279123D02*
X119193483Y-120183885D01*
X119193483Y-120183885D02*
X119098245Y-120136266D01*
X119098245Y-120136266D02*
X118860150Y-120136266D01*
X118860150Y-120136266D02*
X118764912Y-120088647D01*
X118288721Y-120517219D02*
X118288721Y-119850552D01*
X118288721Y-120041028D02*
X118241102Y-119945790D01*
X118241102Y-119945790D02*
X118193483Y-119898171D01*
X118193483Y-119898171D02*
X118098245Y-119850552D01*
X118098245Y-119850552D02*
X118003007Y-119850552D01*
X117241102Y-120517219D02*
X117241102Y-119517219D01*
X117241102Y-120469600D02*
X117336340Y-120517219D01*
X117336340Y-120517219D02*
X117526816Y-120517219D01*
X117526816Y-120517219D02*
X117622054Y-120469600D01*
X117622054Y-120469600D02*
X117669673Y-120421980D01*
X117669673Y-120421980D02*
X117717292Y-120326742D01*
X117717292Y-120326742D02*
X117717292Y-120041028D01*
X117717292Y-120041028D02*
X117669673Y-119945790D01*
X117669673Y-119945790D02*
X117622054Y-119898171D01*
X117622054Y-119898171D02*
X117526816Y-119850552D01*
X117526816Y-119850552D02*
X117336340Y-119850552D01*
X117336340Y-119850552D02*
X117241102Y-119898171D01*
X116145863Y-119517219D02*
X115812530Y-120517219D01*
X115812530Y-120517219D02*
X115479197Y-119517219D01*
X114622054Y-120517219D02*
X115193482Y-120517219D01*
X114907768Y-120517219D02*
X114907768Y-119517219D01*
X114907768Y-119517219D02*
X115003006Y-119660076D01*
X115003006Y-119660076D02*
X115098244Y-119755314D01*
X115098244Y-119755314D02*
X115193482Y-119802933D01*
D11*
X125523523Y-113156419D02*
X125523523Y-112156419D01*
X125523523Y-112156419D02*
X125190190Y-112870704D01*
X125190190Y-112870704D02*
X124856857Y-112156419D01*
X124856857Y-112156419D02*
X124856857Y-113156419D01*
X124428285Y-112251657D02*
X124380666Y-112204038D01*
X124380666Y-112204038D02*
X124285428Y-112156419D01*
X124285428Y-112156419D02*
X124047333Y-112156419D01*
X124047333Y-112156419D02*
X123952095Y-112204038D01*
X123952095Y-112204038D02*
X123904476Y-112251657D01*
X123904476Y-112251657D02*
X123856857Y-112346895D01*
X123856857Y-112346895D02*
X123856857Y-112442133D01*
X123856857Y-112442133D02*
X123904476Y-112584990D01*
X123904476Y-112584990D02*
X124475904Y-113156419D01*
X124475904Y-113156419D02*
X123856857Y-113156419D01*
X125523523Y-114934419D02*
X125523523Y-113934419D01*
X125523523Y-113934419D02*
X125190190Y-114648704D01*
X125190190Y-114648704D02*
X124856857Y-113934419D01*
X124856857Y-113934419D02*
X124856857Y-114934419D01*
X123856857Y-114934419D02*
X124428285Y-114934419D01*
X124142571Y-114934419D02*
X124142571Y-113934419D01*
X124142571Y-113934419D02*
X124237809Y-114077276D01*
X124237809Y-114077276D02*
X124333047Y-114172514D01*
X124333047Y-114172514D02*
X124428285Y-114220133D01*
X120904000Y-111760000D02*
X120904000Y-115316000D01*
X120387904Y-112156419D02*
X119816476Y-112156419D01*
X120102190Y-113156419D02*
X120102190Y-112156419D01*
X119006952Y-113156419D02*
X119483142Y-113156419D01*
X119483142Y-113156419D02*
X119483142Y-112156419D01*
X118673618Y-113156419D02*
X118673618Y-112156419D01*
X118673618Y-112156419D02*
X118340285Y-112870704D01*
X118340285Y-112870704D02*
X118006952Y-112156419D01*
X118006952Y-112156419D02*
X118006952Y-113156419D01*
X123444000Y-111760000D02*
X123444000Y-115316000D01*
X125984000Y-113538000D02*
X117348000Y-113538000D01*
X122983523Y-113156419D02*
X122983523Y-112156419D01*
X122983523Y-112156419D02*
X122650190Y-112870704D01*
X122650190Y-112870704D02*
X122316857Y-112156419D01*
X122316857Y-112156419D02*
X122316857Y-113156419D01*
X121412095Y-112489752D02*
X121412095Y-113156419D01*
X121650190Y-112108800D02*
X121888285Y-112823085D01*
X121888285Y-112823085D02*
X121269238Y-112823085D01*
X122983523Y-114934419D02*
X122983523Y-113934419D01*
X122983523Y-113934419D02*
X122650190Y-114648704D01*
X122650190Y-114648704D02*
X122316857Y-113934419D01*
X122316857Y-113934419D02*
X122316857Y-114934419D01*
X121935904Y-113934419D02*
X121316857Y-113934419D01*
X121316857Y-113934419D02*
X121650190Y-114315371D01*
X121650190Y-114315371D02*
X121507333Y-114315371D01*
X121507333Y-114315371D02*
X121412095Y-114362990D01*
X121412095Y-114362990D02*
X121364476Y-114410609D01*
X121364476Y-114410609D02*
X121316857Y-114505847D01*
X121316857Y-114505847D02*
X121316857Y-114743942D01*
X121316857Y-114743942D02*
X121364476Y-114839180D01*
X121364476Y-114839180D02*
X121412095Y-114886800D01*
X121412095Y-114886800D02*
X121507333Y-114934419D01*
X121507333Y-114934419D02*
X121793047Y-114934419D01*
X121793047Y-114934419D02*
X121888285Y-114886800D01*
X121888285Y-114886800D02*
X121935904Y-114839180D01*
X119887904Y-113982038D02*
X119983142Y-113934419D01*
X119983142Y-113934419D02*
X120125999Y-113934419D01*
X120125999Y-113934419D02*
X120268856Y-113982038D01*
X120268856Y-113982038D02*
X120364094Y-114077276D01*
X120364094Y-114077276D02*
X120411713Y-114172514D01*
X120411713Y-114172514D02*
X120459332Y-114362990D01*
X120459332Y-114362990D02*
X120459332Y-114505847D01*
X120459332Y-114505847D02*
X120411713Y-114696323D01*
X120411713Y-114696323D02*
X120364094Y-114791561D01*
X120364094Y-114791561D02*
X120268856Y-114886800D01*
X120268856Y-114886800D02*
X120125999Y-114934419D01*
X120125999Y-114934419D02*
X120030761Y-114934419D01*
X120030761Y-114934419D02*
X119887904Y-114886800D01*
X119887904Y-114886800D02*
X119840285Y-114839180D01*
X119840285Y-114839180D02*
X119840285Y-114505847D01*
X119840285Y-114505847D02*
X120030761Y-114505847D01*
X119411713Y-114934419D02*
X119411713Y-113934419D01*
X119411713Y-113934419D02*
X118840285Y-114934419D01*
X118840285Y-114934419D02*
X118840285Y-113934419D01*
X118364094Y-114934419D02*
X118364094Y-113934419D01*
X118364094Y-113934419D02*
X118125999Y-113934419D01*
X118125999Y-113934419D02*
X117983142Y-113982038D01*
X117983142Y-113982038D02*
X117887904Y-114077276D01*
X117887904Y-114077276D02*
X117840285Y-114172514D01*
X117840285Y-114172514D02*
X117792666Y-114362990D01*
X117792666Y-114362990D02*
X117792666Y-114505847D01*
X117792666Y-114505847D02*
X117840285Y-114696323D01*
X117840285Y-114696323D02*
X117887904Y-114791561D01*
X117887904Y-114791561D02*
X117983142Y-114886800D01*
X117983142Y-114886800D02*
X118125999Y-114934419D01*
X118125999Y-114934419D02*
X118364094Y-114934419D01*
X117348000Y-115316000D02*
X125984000Y-115316000D01*
X125984000Y-111760000D01*
X117348000Y-111760000D01*
X117348000Y-115316000D01*
X120650000Y-128524000D02*
X125730000Y-128524000D01*
X125730000Y-124968000D01*
X120650000Y-124968000D01*
X120650000Y-128524000D01*
X123380476Y-125364419D02*
X123856666Y-125364419D01*
X123856666Y-125364419D02*
X123904285Y-125840609D01*
X123904285Y-125840609D02*
X123856666Y-125792990D01*
X123856666Y-125792990D02*
X123761428Y-125745371D01*
X123761428Y-125745371D02*
X123523333Y-125745371D01*
X123523333Y-125745371D02*
X123428095Y-125792990D01*
X123428095Y-125792990D02*
X123380476Y-125840609D01*
X123380476Y-125840609D02*
X123332857Y-125935847D01*
X123332857Y-125935847D02*
X123332857Y-126173942D01*
X123332857Y-126173942D02*
X123380476Y-126269180D01*
X123380476Y-126269180D02*
X123428095Y-126316800D01*
X123428095Y-126316800D02*
X123523333Y-126364419D01*
X123523333Y-126364419D02*
X123761428Y-126364419D01*
X123761428Y-126364419D02*
X123856666Y-126316800D01*
X123856666Y-126316800D02*
X123904285Y-126269180D01*
X123047142Y-125364419D02*
X122713809Y-126364419D01*
X122713809Y-126364419D02*
X122380476Y-125364419D01*
X125730000Y-126746000D02*
X120650000Y-126746000D01*
X123951904Y-127190038D02*
X124047142Y-127142419D01*
X124047142Y-127142419D02*
X124189999Y-127142419D01*
X124189999Y-127142419D02*
X124332856Y-127190038D01*
X124332856Y-127190038D02*
X124428094Y-127285276D01*
X124428094Y-127285276D02*
X124475713Y-127380514D01*
X124475713Y-127380514D02*
X124523332Y-127570990D01*
X124523332Y-127570990D02*
X124523332Y-127713847D01*
X124523332Y-127713847D02*
X124475713Y-127904323D01*
X124475713Y-127904323D02*
X124428094Y-127999561D01*
X124428094Y-127999561D02*
X124332856Y-128094800D01*
X124332856Y-128094800D02*
X124189999Y-128142419D01*
X124189999Y-128142419D02*
X124094761Y-128142419D01*
X124094761Y-128142419D02*
X123951904Y-128094800D01*
X123951904Y-128094800D02*
X123904285Y-128047180D01*
X123904285Y-128047180D02*
X123904285Y-127713847D01*
X123904285Y-127713847D02*
X124094761Y-127713847D01*
X123475713Y-128142419D02*
X123475713Y-127142419D01*
X123475713Y-127142419D02*
X122904285Y-128142419D01*
X122904285Y-128142419D02*
X122904285Y-127142419D01*
X122428094Y-128142419D02*
X122428094Y-127142419D01*
X122428094Y-127142419D02*
X122189999Y-127142419D01*
X122189999Y-127142419D02*
X122047142Y-127190038D01*
X122047142Y-127190038D02*
X121951904Y-127285276D01*
X121951904Y-127285276D02*
X121904285Y-127380514D01*
X121904285Y-127380514D02*
X121856666Y-127570990D01*
X121856666Y-127570990D02*
X121856666Y-127713847D01*
X121856666Y-127713847D02*
X121904285Y-127904323D01*
X121904285Y-127904323D02*
X121951904Y-127999561D01*
X121951904Y-127999561D02*
X122047142Y-128094800D01*
X122047142Y-128094800D02*
X122189999Y-128142419D01*
X122189999Y-128142419D02*
X122428094Y-128142419D01*
X154344666Y-128047180D02*
X154392285Y-128094800D01*
X154392285Y-128094800D02*
X154535142Y-128142419D01*
X154535142Y-128142419D02*
X154630380Y-128142419D01*
X154630380Y-128142419D02*
X154773237Y-128094800D01*
X154773237Y-128094800D02*
X154868475Y-127999561D01*
X154868475Y-127999561D02*
X154916094Y-127904323D01*
X154916094Y-127904323D02*
X154963713Y-127713847D01*
X154963713Y-127713847D02*
X154963713Y-127570990D01*
X154963713Y-127570990D02*
X154916094Y-127380514D01*
X154916094Y-127380514D02*
X154868475Y-127285276D01*
X154868475Y-127285276D02*
X154773237Y-127190038D01*
X154773237Y-127190038D02*
X154630380Y-127142419D01*
X154630380Y-127142419D02*
X154535142Y-127142419D01*
X154535142Y-127142419D02*
X154392285Y-127190038D01*
X154392285Y-127190038D02*
X154344666Y-127237657D01*
X153963713Y-128094800D02*
X153820856Y-128142419D01*
X153820856Y-128142419D02*
X153582761Y-128142419D01*
X153582761Y-128142419D02*
X153487523Y-128094800D01*
X153487523Y-128094800D02*
X153439904Y-128047180D01*
X153439904Y-128047180D02*
X153392285Y-127951942D01*
X153392285Y-127951942D02*
X153392285Y-127856704D01*
X153392285Y-127856704D02*
X153439904Y-127761466D01*
X153439904Y-127761466D02*
X153487523Y-127713847D01*
X153487523Y-127713847D02*
X153582761Y-127666228D01*
X153582761Y-127666228D02*
X153773237Y-127618609D01*
X153773237Y-127618609D02*
X153868475Y-127570990D01*
X153868475Y-127570990D02*
X153916094Y-127523371D01*
X153916094Y-127523371D02*
X153963713Y-127428133D01*
X153963713Y-127428133D02*
X153963713Y-127332895D01*
X153963713Y-127332895D02*
X153916094Y-127237657D01*
X153916094Y-127237657D02*
X153868475Y-127190038D01*
X153868475Y-127190038D02*
X153773237Y-127142419D01*
X153773237Y-127142419D02*
X153535142Y-127142419D01*
X153535142Y-127142419D02*
X153392285Y-127190038D01*
X152146000Y-128524000D02*
X160274000Y-128524000D01*
X160274000Y-124968000D01*
X152146000Y-124968000D01*
X152146000Y-128524000D01*
X159813427Y-128142419D02*
X159813427Y-127142419D01*
X159813427Y-127142419D02*
X159480094Y-127856704D01*
X159480094Y-127856704D02*
X159146761Y-127142419D01*
X159146761Y-127142419D02*
X159146761Y-128142419D01*
X158480094Y-127142419D02*
X158289618Y-127142419D01*
X158289618Y-127142419D02*
X158194380Y-127190038D01*
X158194380Y-127190038D02*
X158099142Y-127285276D01*
X158099142Y-127285276D02*
X158051523Y-127475752D01*
X158051523Y-127475752D02*
X158051523Y-127809085D01*
X158051523Y-127809085D02*
X158099142Y-127999561D01*
X158099142Y-127999561D02*
X158194380Y-128094800D01*
X158194380Y-128094800D02*
X158289618Y-128142419D01*
X158289618Y-128142419D02*
X158480094Y-128142419D01*
X158480094Y-128142419D02*
X158575332Y-128094800D01*
X158575332Y-128094800D02*
X158670570Y-127999561D01*
X158670570Y-127999561D02*
X158718189Y-127809085D01*
X158718189Y-127809085D02*
X158718189Y-127475752D01*
X158718189Y-127475752D02*
X158670570Y-127285276D01*
X158670570Y-127285276D02*
X158575332Y-127190038D01*
X158575332Y-127190038D02*
X158480094Y-127142419D01*
X157670570Y-128094800D02*
X157527713Y-128142419D01*
X157527713Y-128142419D02*
X157289618Y-128142419D01*
X157289618Y-128142419D02*
X157194380Y-128094800D01*
X157194380Y-128094800D02*
X157146761Y-128047180D01*
X157146761Y-128047180D02*
X157099142Y-127951942D01*
X157099142Y-127951942D02*
X157099142Y-127856704D01*
X157099142Y-127856704D02*
X157146761Y-127761466D01*
X157146761Y-127761466D02*
X157194380Y-127713847D01*
X157194380Y-127713847D02*
X157289618Y-127666228D01*
X157289618Y-127666228D02*
X157480094Y-127618609D01*
X157480094Y-127618609D02*
X157575332Y-127570990D01*
X157575332Y-127570990D02*
X157622951Y-127523371D01*
X157622951Y-127523371D02*
X157670570Y-127428133D01*
X157670570Y-127428133D02*
X157670570Y-127332895D01*
X157670570Y-127332895D02*
X157622951Y-127237657D01*
X157622951Y-127237657D02*
X157575332Y-127190038D01*
X157575332Y-127190038D02*
X157480094Y-127142419D01*
X157480094Y-127142419D02*
X157241999Y-127142419D01*
X157241999Y-127142419D02*
X157099142Y-127190038D01*
X156670570Y-128142419D02*
X156670570Y-127142419D01*
X160274000Y-126746000D02*
X152146000Y-126746000D01*
X159813427Y-126364419D02*
X159813427Y-125364419D01*
X159813427Y-125364419D02*
X159480094Y-126078704D01*
X159480094Y-126078704D02*
X159146761Y-125364419D01*
X159146761Y-125364419D02*
X159146761Y-126364419D01*
X158670570Y-126364419D02*
X158670570Y-125364419D01*
X158241999Y-126316800D02*
X158099142Y-126364419D01*
X158099142Y-126364419D02*
X157861047Y-126364419D01*
X157861047Y-126364419D02*
X157765809Y-126316800D01*
X157765809Y-126316800D02*
X157718190Y-126269180D01*
X157718190Y-126269180D02*
X157670571Y-126173942D01*
X157670571Y-126173942D02*
X157670571Y-126078704D01*
X157670571Y-126078704D02*
X157718190Y-125983466D01*
X157718190Y-125983466D02*
X157765809Y-125935847D01*
X157765809Y-125935847D02*
X157861047Y-125888228D01*
X157861047Y-125888228D02*
X158051523Y-125840609D01*
X158051523Y-125840609D02*
X158146761Y-125792990D01*
X158146761Y-125792990D02*
X158194380Y-125745371D01*
X158194380Y-125745371D02*
X158241999Y-125650133D01*
X158241999Y-125650133D02*
X158241999Y-125554895D01*
X158241999Y-125554895D02*
X158194380Y-125459657D01*
X158194380Y-125459657D02*
X158146761Y-125412038D01*
X158146761Y-125412038D02*
X158051523Y-125364419D01*
X158051523Y-125364419D02*
X157813428Y-125364419D01*
X157813428Y-125364419D02*
X157670571Y-125412038D01*
X157051523Y-125364419D02*
X156861047Y-125364419D01*
X156861047Y-125364419D02*
X156765809Y-125412038D01*
X156765809Y-125412038D02*
X156670571Y-125507276D01*
X156670571Y-125507276D02*
X156622952Y-125697752D01*
X156622952Y-125697752D02*
X156622952Y-126031085D01*
X156622952Y-126031085D02*
X156670571Y-126221561D01*
X156670571Y-126221561D02*
X156765809Y-126316800D01*
X156765809Y-126316800D02*
X156861047Y-126364419D01*
X156861047Y-126364419D02*
X157051523Y-126364419D01*
X157051523Y-126364419D02*
X157146761Y-126316800D01*
X157146761Y-126316800D02*
X157241999Y-126221561D01*
X157241999Y-126221561D02*
X157289618Y-126031085D01*
X157289618Y-126031085D02*
X157289618Y-125697752D01*
X157289618Y-125697752D02*
X157241999Y-125507276D01*
X157241999Y-125507276D02*
X157146761Y-125412038D01*
X157146761Y-125412038D02*
X157051523Y-125364419D01*
X155463713Y-126311800D02*
X155320856Y-126359419D01*
X155320856Y-126359419D02*
X155082761Y-126359419D01*
X155082761Y-126359419D02*
X154987523Y-126311800D01*
X154987523Y-126311800D02*
X154939904Y-126264180D01*
X154939904Y-126264180D02*
X154892285Y-126168942D01*
X154892285Y-126168942D02*
X154892285Y-126073704D01*
X154892285Y-126073704D02*
X154939904Y-125978466D01*
X154939904Y-125978466D02*
X154987523Y-125930847D01*
X154987523Y-125930847D02*
X155082761Y-125883228D01*
X155082761Y-125883228D02*
X155273237Y-125835609D01*
X155273237Y-125835609D02*
X155368475Y-125787990D01*
X155368475Y-125787990D02*
X155416094Y-125740371D01*
X155416094Y-125740371D02*
X155463713Y-125645133D01*
X155463713Y-125645133D02*
X155463713Y-125549895D01*
X155463713Y-125549895D02*
X155416094Y-125454657D01*
X155416094Y-125454657D02*
X155368475Y-125407038D01*
X155368475Y-125407038D02*
X155273237Y-125359419D01*
X155273237Y-125359419D02*
X155035142Y-125359419D01*
X155035142Y-125359419D02*
X154892285Y-125407038D01*
X153892285Y-126264180D02*
X153939904Y-126311800D01*
X153939904Y-126311800D02*
X154082761Y-126359419D01*
X154082761Y-126359419D02*
X154177999Y-126359419D01*
X154177999Y-126359419D02*
X154320856Y-126311800D01*
X154320856Y-126311800D02*
X154416094Y-126216561D01*
X154416094Y-126216561D02*
X154463713Y-126121323D01*
X154463713Y-126121323D02*
X154511332Y-125930847D01*
X154511332Y-125930847D02*
X154511332Y-125787990D01*
X154511332Y-125787990D02*
X154463713Y-125597514D01*
X154463713Y-125597514D02*
X154416094Y-125502276D01*
X154416094Y-125502276D02*
X154320856Y-125407038D01*
X154320856Y-125407038D02*
X154177999Y-125359419D01*
X154177999Y-125359419D02*
X154082761Y-125359419D01*
X154082761Y-125359419D02*
X153939904Y-125407038D01*
X153939904Y-125407038D02*
X153892285Y-125454657D01*
X153463713Y-126359419D02*
X153463713Y-125359419D01*
X152892285Y-126359419D02*
X153320856Y-125787990D01*
X152892285Y-125359419D02*
X153463713Y-125930847D01*
X156210000Y-124968000D02*
X156210000Y-128524000D01*
X148590000Y-126746000D02*
X143510000Y-126746000D01*
X143510000Y-128524000D02*
X148590000Y-128524000D01*
X148590000Y-124968000D01*
X143510000Y-124968000D01*
X143510000Y-128524000D01*
X146811904Y-127190038D02*
X146907142Y-127142419D01*
X146907142Y-127142419D02*
X147049999Y-127142419D01*
X147049999Y-127142419D02*
X147192856Y-127190038D01*
X147192856Y-127190038D02*
X147288094Y-127285276D01*
X147288094Y-127285276D02*
X147335713Y-127380514D01*
X147335713Y-127380514D02*
X147383332Y-127570990D01*
X147383332Y-127570990D02*
X147383332Y-127713847D01*
X147383332Y-127713847D02*
X147335713Y-127904323D01*
X147335713Y-127904323D02*
X147288094Y-127999561D01*
X147288094Y-127999561D02*
X147192856Y-128094800D01*
X147192856Y-128094800D02*
X147049999Y-128142419D01*
X147049999Y-128142419D02*
X146954761Y-128142419D01*
X146954761Y-128142419D02*
X146811904Y-128094800D01*
X146811904Y-128094800D02*
X146764285Y-128047180D01*
X146764285Y-128047180D02*
X146764285Y-127713847D01*
X146764285Y-127713847D02*
X146954761Y-127713847D01*
X146335713Y-128142419D02*
X146335713Y-127142419D01*
X146335713Y-127142419D02*
X145764285Y-128142419D01*
X145764285Y-128142419D02*
X145764285Y-127142419D01*
X145288094Y-128142419D02*
X145288094Y-127142419D01*
X145288094Y-127142419D02*
X145049999Y-127142419D01*
X145049999Y-127142419D02*
X144907142Y-127190038D01*
X144907142Y-127190038D02*
X144811904Y-127285276D01*
X144811904Y-127285276D02*
X144764285Y-127380514D01*
X144764285Y-127380514D02*
X144716666Y-127570990D01*
X144716666Y-127570990D02*
X144716666Y-127713847D01*
X144716666Y-127713847D02*
X144764285Y-127904323D01*
X144764285Y-127904323D02*
X144811904Y-127999561D01*
X144811904Y-127999561D02*
X144907142Y-128094800D01*
X144907142Y-128094800D02*
X145049999Y-128142419D01*
X145049999Y-128142419D02*
X145288094Y-128142419D01*
X146240476Y-125364419D02*
X146716666Y-125364419D01*
X146716666Y-125364419D02*
X146764285Y-125840609D01*
X146764285Y-125840609D02*
X146716666Y-125792990D01*
X146716666Y-125792990D02*
X146621428Y-125745371D01*
X146621428Y-125745371D02*
X146383333Y-125745371D01*
X146383333Y-125745371D02*
X146288095Y-125792990D01*
X146288095Y-125792990D02*
X146240476Y-125840609D01*
X146240476Y-125840609D02*
X146192857Y-125935847D01*
X146192857Y-125935847D02*
X146192857Y-126173942D01*
X146192857Y-126173942D02*
X146240476Y-126269180D01*
X146240476Y-126269180D02*
X146288095Y-126316800D01*
X146288095Y-126316800D02*
X146383333Y-126364419D01*
X146383333Y-126364419D02*
X146621428Y-126364419D01*
X146621428Y-126364419D02*
X146716666Y-126316800D01*
X146716666Y-126316800D02*
X146764285Y-126269180D01*
X145907142Y-125364419D02*
X145573809Y-126364419D01*
X145573809Y-126364419D02*
X145240476Y-125364419D01*
M02*
