%TF.GenerationSoftware,KiCad,Pcbnew,8.0.4*%
%TF.CreationDate,2024-08-21T00:11:03-04:00*%
%TF.ProjectId,Drone_Motherboard,44726f6e-655f-44d6-9f74-686572626f61,rev?*%
%TF.SameCoordinates,Original*%
%TF.FileFunction,Legend,Top*%
%TF.FilePolarity,Positive*%
%FSLAX46Y46*%
G04 Gerber Fmt 4.6, Leading zero omitted, Abs format (unit mm)*
G04 Created by KiCad (PCBNEW 8.0.4) date 2024-08-21 00:11:03*
%MOMM*%
%LPD*%
G01*
G04 APERTURE LIST*
%ADD10C,0.100000*%
%ADD11C,0.150000*%
%ADD12C,0.120000*%
G04 APERTURE END LIST*
D10*
X156210000Y-128524000D02*
X156210000Y-124968000D01*
X160274000Y-126746000D02*
X152146000Y-126746000D01*
X120904000Y-115316000D02*
X120904000Y-111760000D01*
X117348000Y-111760000D02*
X125984000Y-111760000D01*
X125984000Y-115316000D01*
X117348000Y-115316000D01*
X117348000Y-111760000D01*
X125730000Y-126746000D02*
X120650000Y-126746000D01*
X125984000Y-113538000D02*
X117348000Y-113538000D01*
X152146000Y-124968000D02*
X160274000Y-124968000D01*
X160274000Y-128524000D01*
X152146000Y-128524000D01*
X152146000Y-124968000D01*
X143510000Y-124968000D02*
X148590000Y-124968000D01*
X148590000Y-128524000D01*
X143510000Y-128524000D01*
X143510000Y-124968000D01*
X123444000Y-115316000D02*
X123444000Y-111760000D01*
X120650000Y-124968000D02*
X125730000Y-124968000D01*
X125730000Y-128524000D01*
X120650000Y-128524000D01*
X120650000Y-124968000D01*
X148590000Y-126746000D02*
X143510000Y-126746000D01*
X145288095Y-127190038D02*
X145192857Y-127142419D01*
X145192857Y-127142419D02*
X145050000Y-127142419D01*
X145050000Y-127142419D02*
X144907143Y-127190038D01*
X144907143Y-127190038D02*
X144811905Y-127285276D01*
X144811905Y-127285276D02*
X144764286Y-127380514D01*
X144764286Y-127380514D02*
X144716667Y-127570990D01*
X144716667Y-127570990D02*
X144716667Y-127713847D01*
X144716667Y-127713847D02*
X144764286Y-127904323D01*
X144764286Y-127904323D02*
X144811905Y-127999561D01*
X144811905Y-127999561D02*
X144907143Y-128094800D01*
X144907143Y-128094800D02*
X145050000Y-128142419D01*
X145050000Y-128142419D02*
X145145238Y-128142419D01*
X145145238Y-128142419D02*
X145288095Y-128094800D01*
X145288095Y-128094800D02*
X145335714Y-128047180D01*
X145335714Y-128047180D02*
X145335714Y-127713847D01*
X145335714Y-127713847D02*
X145145238Y-127713847D01*
X145764286Y-128142419D02*
X145764286Y-127142419D01*
X145764286Y-127142419D02*
X146335714Y-128142419D01*
X146335714Y-128142419D02*
X146335714Y-127142419D01*
X146811905Y-128142419D02*
X146811905Y-127142419D01*
X146811905Y-127142419D02*
X147050000Y-127142419D01*
X147050000Y-127142419D02*
X147192857Y-127190038D01*
X147192857Y-127190038D02*
X147288095Y-127285276D01*
X147288095Y-127285276D02*
X147335714Y-127380514D01*
X147335714Y-127380514D02*
X147383333Y-127570990D01*
X147383333Y-127570990D02*
X147383333Y-127713847D01*
X147383333Y-127713847D02*
X147335714Y-127904323D01*
X147335714Y-127904323D02*
X147288095Y-127999561D01*
X147288095Y-127999561D02*
X147192857Y-128094800D01*
X147192857Y-128094800D02*
X147050000Y-128142419D01*
X147050000Y-128142419D02*
X146811905Y-128142419D01*
X123904476Y-114934419D02*
X123904476Y-113934419D01*
X123904476Y-113934419D02*
X124237809Y-114648704D01*
X124237809Y-114648704D02*
X124571142Y-113934419D01*
X124571142Y-113934419D02*
X124571142Y-114934419D01*
X125571142Y-114934419D02*
X124999714Y-114934419D01*
X125285428Y-114934419D02*
X125285428Y-113934419D01*
X125285428Y-113934419D02*
X125190190Y-114077276D01*
X125190190Y-114077276D02*
X125094952Y-114172514D01*
X125094952Y-114172514D02*
X124999714Y-114220133D01*
X122428095Y-127190038D02*
X122332857Y-127142419D01*
X122332857Y-127142419D02*
X122190000Y-127142419D01*
X122190000Y-127142419D02*
X122047143Y-127190038D01*
X122047143Y-127190038D02*
X121951905Y-127285276D01*
X121951905Y-127285276D02*
X121904286Y-127380514D01*
X121904286Y-127380514D02*
X121856667Y-127570990D01*
X121856667Y-127570990D02*
X121856667Y-127713847D01*
X121856667Y-127713847D02*
X121904286Y-127904323D01*
X121904286Y-127904323D02*
X121951905Y-127999561D01*
X121951905Y-127999561D02*
X122047143Y-128094800D01*
X122047143Y-128094800D02*
X122190000Y-128142419D01*
X122190000Y-128142419D02*
X122285238Y-128142419D01*
X122285238Y-128142419D02*
X122428095Y-128094800D01*
X122428095Y-128094800D02*
X122475714Y-128047180D01*
X122475714Y-128047180D02*
X122475714Y-127713847D01*
X122475714Y-127713847D02*
X122285238Y-127713847D01*
X122904286Y-128142419D02*
X122904286Y-127142419D01*
X122904286Y-127142419D02*
X123475714Y-128142419D01*
X123475714Y-128142419D02*
X123475714Y-127142419D01*
X123951905Y-128142419D02*
X123951905Y-127142419D01*
X123951905Y-127142419D02*
X124190000Y-127142419D01*
X124190000Y-127142419D02*
X124332857Y-127190038D01*
X124332857Y-127190038D02*
X124428095Y-127285276D01*
X124428095Y-127285276D02*
X124475714Y-127380514D01*
X124475714Y-127380514D02*
X124523333Y-127570990D01*
X124523333Y-127570990D02*
X124523333Y-127713847D01*
X124523333Y-127713847D02*
X124475714Y-127904323D01*
X124475714Y-127904323D02*
X124428095Y-127999561D01*
X124428095Y-127999561D02*
X124332857Y-128094800D01*
X124332857Y-128094800D02*
X124190000Y-128142419D01*
X124190000Y-128142419D02*
X123951905Y-128142419D01*
X122999523Y-125364419D02*
X122523333Y-125364419D01*
X122523333Y-125364419D02*
X122475714Y-125840609D01*
X122475714Y-125840609D02*
X122523333Y-125792990D01*
X122523333Y-125792990D02*
X122618571Y-125745371D01*
X122618571Y-125745371D02*
X122856666Y-125745371D01*
X122856666Y-125745371D02*
X122951904Y-125792990D01*
X122951904Y-125792990D02*
X122999523Y-125840609D01*
X122999523Y-125840609D02*
X123047142Y-125935847D01*
X123047142Y-125935847D02*
X123047142Y-126173942D01*
X123047142Y-126173942D02*
X122999523Y-126269180D01*
X122999523Y-126269180D02*
X122951904Y-126316800D01*
X122951904Y-126316800D02*
X122856666Y-126364419D01*
X122856666Y-126364419D02*
X122618571Y-126364419D01*
X122618571Y-126364419D02*
X122523333Y-126316800D01*
X122523333Y-126316800D02*
X122475714Y-126269180D01*
X123332857Y-125364419D02*
X123666190Y-126364419D01*
X123666190Y-126364419D02*
X123999523Y-125364419D01*
X154011333Y-128047180D02*
X153963714Y-128094800D01*
X153963714Y-128094800D02*
X153820857Y-128142419D01*
X153820857Y-128142419D02*
X153725619Y-128142419D01*
X153725619Y-128142419D02*
X153582762Y-128094800D01*
X153582762Y-128094800D02*
X153487524Y-127999561D01*
X153487524Y-127999561D02*
X153439905Y-127904323D01*
X153439905Y-127904323D02*
X153392286Y-127713847D01*
X153392286Y-127713847D02*
X153392286Y-127570990D01*
X153392286Y-127570990D02*
X153439905Y-127380514D01*
X153439905Y-127380514D02*
X153487524Y-127285276D01*
X153487524Y-127285276D02*
X153582762Y-127190038D01*
X153582762Y-127190038D02*
X153725619Y-127142419D01*
X153725619Y-127142419D02*
X153820857Y-127142419D01*
X153820857Y-127142419D02*
X153963714Y-127190038D01*
X153963714Y-127190038D02*
X154011333Y-127237657D01*
X154392286Y-128094800D02*
X154535143Y-128142419D01*
X154535143Y-128142419D02*
X154773238Y-128142419D01*
X154773238Y-128142419D02*
X154868476Y-128094800D01*
X154868476Y-128094800D02*
X154916095Y-128047180D01*
X154916095Y-128047180D02*
X154963714Y-127951942D01*
X154963714Y-127951942D02*
X154963714Y-127856704D01*
X154963714Y-127856704D02*
X154916095Y-127761466D01*
X154916095Y-127761466D02*
X154868476Y-127713847D01*
X154868476Y-127713847D02*
X154773238Y-127666228D01*
X154773238Y-127666228D02*
X154582762Y-127618609D01*
X154582762Y-127618609D02*
X154487524Y-127570990D01*
X154487524Y-127570990D02*
X154439905Y-127523371D01*
X154439905Y-127523371D02*
X154392286Y-127428133D01*
X154392286Y-127428133D02*
X154392286Y-127332895D01*
X154392286Y-127332895D02*
X154439905Y-127237657D01*
X154439905Y-127237657D02*
X154487524Y-127190038D01*
X154487524Y-127190038D02*
X154582762Y-127142419D01*
X154582762Y-127142419D02*
X154820857Y-127142419D01*
X154820857Y-127142419D02*
X154963714Y-127190038D01*
X156670572Y-126359419D02*
X156670572Y-125359419D01*
X156670572Y-125359419D02*
X157003905Y-126073704D01*
X157003905Y-126073704D02*
X157337238Y-125359419D01*
X157337238Y-125359419D02*
X157337238Y-126359419D01*
X157813429Y-126359419D02*
X157813429Y-125359419D01*
X158242000Y-126311800D02*
X158384857Y-126359419D01*
X158384857Y-126359419D02*
X158622952Y-126359419D01*
X158622952Y-126359419D02*
X158718190Y-126311800D01*
X158718190Y-126311800D02*
X158765809Y-126264180D01*
X158765809Y-126264180D02*
X158813428Y-126168942D01*
X158813428Y-126168942D02*
X158813428Y-126073704D01*
X158813428Y-126073704D02*
X158765809Y-125978466D01*
X158765809Y-125978466D02*
X158718190Y-125930847D01*
X158718190Y-125930847D02*
X158622952Y-125883228D01*
X158622952Y-125883228D02*
X158432476Y-125835609D01*
X158432476Y-125835609D02*
X158337238Y-125787990D01*
X158337238Y-125787990D02*
X158289619Y-125740371D01*
X158289619Y-125740371D02*
X158242000Y-125645133D01*
X158242000Y-125645133D02*
X158242000Y-125549895D01*
X158242000Y-125549895D02*
X158289619Y-125454657D01*
X158289619Y-125454657D02*
X158337238Y-125407038D01*
X158337238Y-125407038D02*
X158432476Y-125359419D01*
X158432476Y-125359419D02*
X158670571Y-125359419D01*
X158670571Y-125359419D02*
X158813428Y-125407038D01*
X159432476Y-125359419D02*
X159622952Y-125359419D01*
X159622952Y-125359419D02*
X159718190Y-125407038D01*
X159718190Y-125407038D02*
X159813428Y-125502276D01*
X159813428Y-125502276D02*
X159861047Y-125692752D01*
X159861047Y-125692752D02*
X159861047Y-126026085D01*
X159861047Y-126026085D02*
X159813428Y-126216561D01*
X159813428Y-126216561D02*
X159718190Y-126311800D01*
X159718190Y-126311800D02*
X159622952Y-126359419D01*
X159622952Y-126359419D02*
X159432476Y-126359419D01*
X159432476Y-126359419D02*
X159337238Y-126311800D01*
X159337238Y-126311800D02*
X159242000Y-126216561D01*
X159242000Y-126216561D02*
X159194381Y-126026085D01*
X159194381Y-126026085D02*
X159194381Y-125692752D01*
X159194381Y-125692752D02*
X159242000Y-125502276D01*
X159242000Y-125502276D02*
X159337238Y-125407038D01*
X159337238Y-125407038D02*
X159432476Y-125359419D01*
X121364476Y-114934419D02*
X121364476Y-113934419D01*
X121364476Y-113934419D02*
X121697809Y-114648704D01*
X121697809Y-114648704D02*
X122031142Y-113934419D01*
X122031142Y-113934419D02*
X122031142Y-114934419D01*
X122412095Y-113934419D02*
X123031142Y-113934419D01*
X123031142Y-113934419D02*
X122697809Y-114315371D01*
X122697809Y-114315371D02*
X122840666Y-114315371D01*
X122840666Y-114315371D02*
X122935904Y-114362990D01*
X122935904Y-114362990D02*
X122983523Y-114410609D01*
X122983523Y-114410609D02*
X123031142Y-114505847D01*
X123031142Y-114505847D02*
X123031142Y-114743942D01*
X123031142Y-114743942D02*
X122983523Y-114839180D01*
X122983523Y-114839180D02*
X122935904Y-114886800D01*
X122935904Y-114886800D02*
X122840666Y-114934419D01*
X122840666Y-114934419D02*
X122554952Y-114934419D01*
X122554952Y-114934419D02*
X122459714Y-114886800D01*
X122459714Y-114886800D02*
X122412095Y-114839180D01*
X152892286Y-126316800D02*
X153035143Y-126364419D01*
X153035143Y-126364419D02*
X153273238Y-126364419D01*
X153273238Y-126364419D02*
X153368476Y-126316800D01*
X153368476Y-126316800D02*
X153416095Y-126269180D01*
X153416095Y-126269180D02*
X153463714Y-126173942D01*
X153463714Y-126173942D02*
X153463714Y-126078704D01*
X153463714Y-126078704D02*
X153416095Y-125983466D01*
X153416095Y-125983466D02*
X153368476Y-125935847D01*
X153368476Y-125935847D02*
X153273238Y-125888228D01*
X153273238Y-125888228D02*
X153082762Y-125840609D01*
X153082762Y-125840609D02*
X152987524Y-125792990D01*
X152987524Y-125792990D02*
X152939905Y-125745371D01*
X152939905Y-125745371D02*
X152892286Y-125650133D01*
X152892286Y-125650133D02*
X152892286Y-125554895D01*
X152892286Y-125554895D02*
X152939905Y-125459657D01*
X152939905Y-125459657D02*
X152987524Y-125412038D01*
X152987524Y-125412038D02*
X153082762Y-125364419D01*
X153082762Y-125364419D02*
X153320857Y-125364419D01*
X153320857Y-125364419D02*
X153463714Y-125412038D01*
X154463714Y-126269180D02*
X154416095Y-126316800D01*
X154416095Y-126316800D02*
X154273238Y-126364419D01*
X154273238Y-126364419D02*
X154178000Y-126364419D01*
X154178000Y-126364419D02*
X154035143Y-126316800D01*
X154035143Y-126316800D02*
X153939905Y-126221561D01*
X153939905Y-126221561D02*
X153892286Y-126126323D01*
X153892286Y-126126323D02*
X153844667Y-125935847D01*
X153844667Y-125935847D02*
X153844667Y-125792990D01*
X153844667Y-125792990D02*
X153892286Y-125602514D01*
X153892286Y-125602514D02*
X153939905Y-125507276D01*
X153939905Y-125507276D02*
X154035143Y-125412038D01*
X154035143Y-125412038D02*
X154178000Y-125364419D01*
X154178000Y-125364419D02*
X154273238Y-125364419D01*
X154273238Y-125364419D02*
X154416095Y-125412038D01*
X154416095Y-125412038D02*
X154463714Y-125459657D01*
X154892286Y-126364419D02*
X154892286Y-125364419D01*
X155463714Y-126364419D02*
X155035143Y-125792990D01*
X155463714Y-125364419D02*
X154892286Y-125935847D01*
X123904476Y-113156419D02*
X123904476Y-112156419D01*
X123904476Y-112156419D02*
X124237809Y-112870704D01*
X124237809Y-112870704D02*
X124571142Y-112156419D01*
X124571142Y-112156419D02*
X124571142Y-113156419D01*
X124999714Y-112251657D02*
X125047333Y-112204038D01*
X125047333Y-112204038D02*
X125142571Y-112156419D01*
X125142571Y-112156419D02*
X125380666Y-112156419D01*
X125380666Y-112156419D02*
X125475904Y-112204038D01*
X125475904Y-112204038D02*
X125523523Y-112251657D01*
X125523523Y-112251657D02*
X125571142Y-112346895D01*
X125571142Y-112346895D02*
X125571142Y-112442133D01*
X125571142Y-112442133D02*
X125523523Y-112584990D01*
X125523523Y-112584990D02*
X124952095Y-113156419D01*
X124952095Y-113156419D02*
X125571142Y-113156419D01*
X121364476Y-113156419D02*
X121364476Y-112156419D01*
X121364476Y-112156419D02*
X121697809Y-112870704D01*
X121697809Y-112870704D02*
X122031142Y-112156419D01*
X122031142Y-112156419D02*
X122031142Y-113156419D01*
X122935904Y-112489752D02*
X122935904Y-113156419D01*
X122697809Y-112108800D02*
X122459714Y-112823085D01*
X122459714Y-112823085D02*
X123078761Y-112823085D01*
X145859523Y-125364419D02*
X145383333Y-125364419D01*
X145383333Y-125364419D02*
X145335714Y-125840609D01*
X145335714Y-125840609D02*
X145383333Y-125792990D01*
X145383333Y-125792990D02*
X145478571Y-125745371D01*
X145478571Y-125745371D02*
X145716666Y-125745371D01*
X145716666Y-125745371D02*
X145811904Y-125792990D01*
X145811904Y-125792990D02*
X145859523Y-125840609D01*
X145859523Y-125840609D02*
X145907142Y-125935847D01*
X145907142Y-125935847D02*
X145907142Y-126173942D01*
X145907142Y-126173942D02*
X145859523Y-126269180D01*
X145859523Y-126269180D02*
X145811904Y-126316800D01*
X145811904Y-126316800D02*
X145716666Y-126364419D01*
X145716666Y-126364419D02*
X145478571Y-126364419D01*
X145478571Y-126364419D02*
X145383333Y-126316800D01*
X145383333Y-126316800D02*
X145335714Y-126269180D01*
X146192857Y-125364419D02*
X146526190Y-126364419D01*
X146526190Y-126364419D02*
X146859523Y-125364419D01*
X118364095Y-113982038D02*
X118268857Y-113934419D01*
X118268857Y-113934419D02*
X118126000Y-113934419D01*
X118126000Y-113934419D02*
X117983143Y-113982038D01*
X117983143Y-113982038D02*
X117887905Y-114077276D01*
X117887905Y-114077276D02*
X117840286Y-114172514D01*
X117840286Y-114172514D02*
X117792667Y-114362990D01*
X117792667Y-114362990D02*
X117792667Y-114505847D01*
X117792667Y-114505847D02*
X117840286Y-114696323D01*
X117840286Y-114696323D02*
X117887905Y-114791561D01*
X117887905Y-114791561D02*
X117983143Y-114886800D01*
X117983143Y-114886800D02*
X118126000Y-114934419D01*
X118126000Y-114934419D02*
X118221238Y-114934419D01*
X118221238Y-114934419D02*
X118364095Y-114886800D01*
X118364095Y-114886800D02*
X118411714Y-114839180D01*
X118411714Y-114839180D02*
X118411714Y-114505847D01*
X118411714Y-114505847D02*
X118221238Y-114505847D01*
X118840286Y-114934419D02*
X118840286Y-113934419D01*
X118840286Y-113934419D02*
X119411714Y-114934419D01*
X119411714Y-114934419D02*
X119411714Y-113934419D01*
X119887905Y-114934419D02*
X119887905Y-113934419D01*
X119887905Y-113934419D02*
X120126000Y-113934419D01*
X120126000Y-113934419D02*
X120268857Y-113982038D01*
X120268857Y-113982038D02*
X120364095Y-114077276D01*
X120364095Y-114077276D02*
X120411714Y-114172514D01*
X120411714Y-114172514D02*
X120459333Y-114362990D01*
X120459333Y-114362990D02*
X120459333Y-114505847D01*
X120459333Y-114505847D02*
X120411714Y-114696323D01*
X120411714Y-114696323D02*
X120364095Y-114791561D01*
X120364095Y-114791561D02*
X120268857Y-114886800D01*
X120268857Y-114886800D02*
X120126000Y-114934419D01*
X120126000Y-114934419D02*
X119887905Y-114934419D01*
X117864095Y-112156419D02*
X118435523Y-112156419D01*
X118149809Y-113156419D02*
X118149809Y-112156419D01*
X119245047Y-113156419D02*
X118768857Y-113156419D01*
X118768857Y-113156419D02*
X118768857Y-112156419D01*
X119578381Y-113156419D02*
X119578381Y-112156419D01*
X119578381Y-112156419D02*
X119911714Y-112870704D01*
X119911714Y-112870704D02*
X120245047Y-112156419D01*
X120245047Y-112156419D02*
X120245047Y-113156419D01*
X156670572Y-128142419D02*
X156670572Y-127142419D01*
X156670572Y-127142419D02*
X157003905Y-127856704D01*
X157003905Y-127856704D02*
X157337238Y-127142419D01*
X157337238Y-127142419D02*
X157337238Y-128142419D01*
X158003905Y-127142419D02*
X158194381Y-127142419D01*
X158194381Y-127142419D02*
X158289619Y-127190038D01*
X158289619Y-127190038D02*
X158384857Y-127285276D01*
X158384857Y-127285276D02*
X158432476Y-127475752D01*
X158432476Y-127475752D02*
X158432476Y-127809085D01*
X158432476Y-127809085D02*
X158384857Y-127999561D01*
X158384857Y-127999561D02*
X158289619Y-128094800D01*
X158289619Y-128094800D02*
X158194381Y-128142419D01*
X158194381Y-128142419D02*
X158003905Y-128142419D01*
X158003905Y-128142419D02*
X157908667Y-128094800D01*
X157908667Y-128094800D02*
X157813429Y-127999561D01*
X157813429Y-127999561D02*
X157765810Y-127809085D01*
X157765810Y-127809085D02*
X157765810Y-127475752D01*
X157765810Y-127475752D02*
X157813429Y-127285276D01*
X157813429Y-127285276D02*
X157908667Y-127190038D01*
X157908667Y-127190038D02*
X158003905Y-127142419D01*
X158813429Y-128094800D02*
X158956286Y-128142419D01*
X158956286Y-128142419D02*
X159194381Y-128142419D01*
X159194381Y-128142419D02*
X159289619Y-128094800D01*
X159289619Y-128094800D02*
X159337238Y-128047180D01*
X159337238Y-128047180D02*
X159384857Y-127951942D01*
X159384857Y-127951942D02*
X159384857Y-127856704D01*
X159384857Y-127856704D02*
X159337238Y-127761466D01*
X159337238Y-127761466D02*
X159289619Y-127713847D01*
X159289619Y-127713847D02*
X159194381Y-127666228D01*
X159194381Y-127666228D02*
X159003905Y-127618609D01*
X159003905Y-127618609D02*
X158908667Y-127570990D01*
X158908667Y-127570990D02*
X158861048Y-127523371D01*
X158861048Y-127523371D02*
X158813429Y-127428133D01*
X158813429Y-127428133D02*
X158813429Y-127332895D01*
X158813429Y-127332895D02*
X158861048Y-127237657D01*
X158861048Y-127237657D02*
X158908667Y-127190038D01*
X158908667Y-127190038D02*
X159003905Y-127142419D01*
X159003905Y-127142419D02*
X159242000Y-127142419D01*
X159242000Y-127142419D02*
X159384857Y-127190038D01*
X159813429Y-128142419D02*
X159813429Y-127142419D01*
D11*
X133183333Y-124914819D02*
X132850000Y-124438628D01*
X132611905Y-124914819D02*
X132611905Y-123914819D01*
X132611905Y-123914819D02*
X132992857Y-123914819D01*
X132992857Y-123914819D02*
X133088095Y-123962438D01*
X133088095Y-123962438D02*
X133135714Y-124010057D01*
X133135714Y-124010057D02*
X133183333Y-124105295D01*
X133183333Y-124105295D02*
X133183333Y-124248152D01*
X133183333Y-124248152D02*
X133135714Y-124343390D01*
X133135714Y-124343390D02*
X133088095Y-124391009D01*
X133088095Y-124391009D02*
X132992857Y-124438628D01*
X132992857Y-124438628D02*
X132611905Y-124438628D01*
X134135714Y-124914819D02*
X133564286Y-124914819D01*
X133850000Y-124914819D02*
X133850000Y-123914819D01*
X133850000Y-123914819D02*
X133754762Y-124057676D01*
X133754762Y-124057676D02*
X133659524Y-124152914D01*
X133659524Y-124152914D02*
X133564286Y-124200533D01*
X154710000Y-136043200D02*
X154852857Y-136090819D01*
X154852857Y-136090819D02*
X155090952Y-136090819D01*
X155090952Y-136090819D02*
X155186190Y-136043200D01*
X155186190Y-136043200D02*
X155233809Y-135995580D01*
X155233809Y-135995580D02*
X155281428Y-135900342D01*
X155281428Y-135900342D02*
X155281428Y-135805104D01*
X155281428Y-135805104D02*
X155233809Y-135709866D01*
X155233809Y-135709866D02*
X155186190Y-135662247D01*
X155186190Y-135662247D02*
X155090952Y-135614628D01*
X155090952Y-135614628D02*
X154900476Y-135567009D01*
X154900476Y-135567009D02*
X154805238Y-135519390D01*
X154805238Y-135519390D02*
X154757619Y-135471771D01*
X154757619Y-135471771D02*
X154710000Y-135376533D01*
X154710000Y-135376533D02*
X154710000Y-135281295D01*
X154710000Y-135281295D02*
X154757619Y-135186057D01*
X154757619Y-135186057D02*
X154805238Y-135138438D01*
X154805238Y-135138438D02*
X154900476Y-135090819D01*
X154900476Y-135090819D02*
X155138571Y-135090819D01*
X155138571Y-135090819D02*
X155281428Y-135138438D01*
X155710000Y-136090819D02*
X155710000Y-135090819D01*
X155710000Y-135090819D02*
X156090952Y-135090819D01*
X156090952Y-135090819D02*
X156186190Y-135138438D01*
X156186190Y-135138438D02*
X156233809Y-135186057D01*
X156233809Y-135186057D02*
X156281428Y-135281295D01*
X156281428Y-135281295D02*
X156281428Y-135424152D01*
X156281428Y-135424152D02*
X156233809Y-135519390D01*
X156233809Y-135519390D02*
X156186190Y-135567009D01*
X156186190Y-135567009D02*
X156090952Y-135614628D01*
X156090952Y-135614628D02*
X155710000Y-135614628D01*
X156710000Y-136090819D02*
X156710000Y-135090819D01*
X157709999Y-136090819D02*
X157138571Y-136090819D01*
X157424285Y-136090819D02*
X157424285Y-135090819D01*
X157424285Y-135090819D02*
X157329047Y-135233676D01*
X157329047Y-135233676D02*
X157233809Y-135328914D01*
X157233809Y-135328914D02*
X157138571Y-135376533D01*
X141407142Y-135085819D02*
X141407142Y-135800104D01*
X141407142Y-135800104D02*
X141359523Y-135942961D01*
X141359523Y-135942961D02*
X141264285Y-136038200D01*
X141264285Y-136038200D02*
X141121428Y-136085819D01*
X141121428Y-136085819D02*
X141026190Y-136085819D01*
X141883333Y-135562009D02*
X142216666Y-135562009D01*
X142359523Y-136085819D02*
X141883333Y-136085819D01*
X141883333Y-136085819D02*
X141883333Y-135085819D01*
X141883333Y-135085819D02*
X142359523Y-135085819D01*
X142645238Y-135085819D02*
X143216666Y-135085819D01*
X142930952Y-136085819D02*
X142930952Y-135085819D01*
X143502381Y-136038200D02*
X143645238Y-136085819D01*
X143645238Y-136085819D02*
X143883333Y-136085819D01*
X143883333Y-136085819D02*
X143978571Y-136038200D01*
X143978571Y-136038200D02*
X144026190Y-135990580D01*
X144026190Y-135990580D02*
X144073809Y-135895342D01*
X144073809Y-135895342D02*
X144073809Y-135800104D01*
X144073809Y-135800104D02*
X144026190Y-135704866D01*
X144026190Y-135704866D02*
X143978571Y-135657247D01*
X143978571Y-135657247D02*
X143883333Y-135609628D01*
X143883333Y-135609628D02*
X143692857Y-135562009D01*
X143692857Y-135562009D02*
X143597619Y-135514390D01*
X143597619Y-135514390D02*
X143550000Y-135466771D01*
X143550000Y-135466771D02*
X143502381Y-135371533D01*
X143502381Y-135371533D02*
X143502381Y-135276295D01*
X143502381Y-135276295D02*
X143550000Y-135181057D01*
X143550000Y-135181057D02*
X143597619Y-135133438D01*
X143597619Y-135133438D02*
X143692857Y-135085819D01*
X143692857Y-135085819D02*
X143930952Y-135085819D01*
X143930952Y-135085819D02*
X144073809Y-135133438D01*
X144692857Y-135085819D02*
X144883333Y-135085819D01*
X144883333Y-135085819D02*
X144978571Y-135133438D01*
X144978571Y-135133438D02*
X145073809Y-135228676D01*
X145073809Y-135228676D02*
X145121428Y-135419152D01*
X145121428Y-135419152D02*
X145121428Y-135752485D01*
X145121428Y-135752485D02*
X145073809Y-135942961D01*
X145073809Y-135942961D02*
X144978571Y-136038200D01*
X144978571Y-136038200D02*
X144883333Y-136085819D01*
X144883333Y-136085819D02*
X144692857Y-136085819D01*
X144692857Y-136085819D02*
X144597619Y-136038200D01*
X144597619Y-136038200D02*
X144502381Y-135942961D01*
X144502381Y-135942961D02*
X144454762Y-135752485D01*
X144454762Y-135752485D02*
X144454762Y-135419152D01*
X144454762Y-135419152D02*
X144502381Y-135228676D01*
X144502381Y-135228676D02*
X144597619Y-135133438D01*
X144597619Y-135133438D02*
X144692857Y-135085819D01*
X145550000Y-136085819D02*
X145550000Y-135085819D01*
X145550000Y-135085819D02*
X146121428Y-136085819D01*
X146121428Y-136085819D02*
X146121428Y-135085819D01*
X146359524Y-136181057D02*
X147121428Y-136181057D01*
X147359524Y-136085819D02*
X147359524Y-135085819D01*
X147359524Y-135085819D02*
X147740476Y-135085819D01*
X147740476Y-135085819D02*
X147835714Y-135133438D01*
X147835714Y-135133438D02*
X147883333Y-135181057D01*
X147883333Y-135181057D02*
X147930952Y-135276295D01*
X147930952Y-135276295D02*
X147930952Y-135419152D01*
X147930952Y-135419152D02*
X147883333Y-135514390D01*
X147883333Y-135514390D02*
X147835714Y-135562009D01*
X147835714Y-135562009D02*
X147740476Y-135609628D01*
X147740476Y-135609628D02*
X147359524Y-135609628D01*
X148264286Y-135085819D02*
X148502381Y-136085819D01*
X148502381Y-136085819D02*
X148692857Y-135371533D01*
X148692857Y-135371533D02*
X148883333Y-136085819D01*
X148883333Y-136085819D02*
X149121429Y-135085819D01*
X150073809Y-136085819D02*
X149740476Y-135609628D01*
X149502381Y-136085819D02*
X149502381Y-135085819D01*
X149502381Y-135085819D02*
X149883333Y-135085819D01*
X149883333Y-135085819D02*
X149978571Y-135133438D01*
X149978571Y-135133438D02*
X150026190Y-135181057D01*
X150026190Y-135181057D02*
X150073809Y-135276295D01*
X150073809Y-135276295D02*
X150073809Y-135419152D01*
X150073809Y-135419152D02*
X150026190Y-135514390D01*
X150026190Y-135514390D02*
X149978571Y-135562009D01*
X149978571Y-135562009D02*
X149883333Y-135609628D01*
X149883333Y-135609628D02*
X149502381Y-135609628D01*
X151026190Y-136085819D02*
X150454762Y-136085819D01*
X150740476Y-136085819D02*
X150740476Y-135085819D01*
X150740476Y-135085819D02*
X150645238Y-135228676D01*
X150645238Y-135228676D02*
X150550000Y-135323914D01*
X150550000Y-135323914D02*
X150454762Y-135371533D01*
X130413333Y-105343009D02*
X130746666Y-105343009D01*
X130889523Y-105866819D02*
X130413333Y-105866819D01*
X130413333Y-105866819D02*
X130413333Y-104866819D01*
X130413333Y-104866819D02*
X130889523Y-104866819D01*
X131270476Y-105819200D02*
X131413333Y-105866819D01*
X131413333Y-105866819D02*
X131651428Y-105866819D01*
X131651428Y-105866819D02*
X131746666Y-105819200D01*
X131746666Y-105819200D02*
X131794285Y-105771580D01*
X131794285Y-105771580D02*
X131841904Y-105676342D01*
X131841904Y-105676342D02*
X131841904Y-105581104D01*
X131841904Y-105581104D02*
X131794285Y-105485866D01*
X131794285Y-105485866D02*
X131746666Y-105438247D01*
X131746666Y-105438247D02*
X131651428Y-105390628D01*
X131651428Y-105390628D02*
X131460952Y-105343009D01*
X131460952Y-105343009D02*
X131365714Y-105295390D01*
X131365714Y-105295390D02*
X131318095Y-105247771D01*
X131318095Y-105247771D02*
X131270476Y-105152533D01*
X131270476Y-105152533D02*
X131270476Y-105057295D01*
X131270476Y-105057295D02*
X131318095Y-104962057D01*
X131318095Y-104962057D02*
X131365714Y-104914438D01*
X131365714Y-104914438D02*
X131460952Y-104866819D01*
X131460952Y-104866819D02*
X131699047Y-104866819D01*
X131699047Y-104866819D02*
X131841904Y-104914438D01*
X132841904Y-105771580D02*
X132794285Y-105819200D01*
X132794285Y-105819200D02*
X132651428Y-105866819D01*
X132651428Y-105866819D02*
X132556190Y-105866819D01*
X132556190Y-105866819D02*
X132413333Y-105819200D01*
X132413333Y-105819200D02*
X132318095Y-105723961D01*
X132318095Y-105723961D02*
X132270476Y-105628723D01*
X132270476Y-105628723D02*
X132222857Y-105438247D01*
X132222857Y-105438247D02*
X132222857Y-105295390D01*
X132222857Y-105295390D02*
X132270476Y-105104914D01*
X132270476Y-105104914D02*
X132318095Y-105009676D01*
X132318095Y-105009676D02*
X132413333Y-104914438D01*
X132413333Y-104914438D02*
X132556190Y-104866819D01*
X132556190Y-104866819D02*
X132651428Y-104866819D01*
X132651428Y-104866819D02*
X132794285Y-104914438D01*
X132794285Y-104914438D02*
X132841904Y-104962057D01*
X133794285Y-105866819D02*
X133222857Y-105866819D01*
X133508571Y-105866819D02*
X133508571Y-104866819D01*
X133508571Y-104866819D02*
X133413333Y-105009676D01*
X133413333Y-105009676D02*
X133318095Y-105104914D01*
X133318095Y-105104914D02*
X133222857Y-105152533D01*
X117199580Y-121324666D02*
X117247200Y-121372285D01*
X117247200Y-121372285D02*
X117294819Y-121515142D01*
X117294819Y-121515142D02*
X117294819Y-121610380D01*
X117294819Y-121610380D02*
X117247200Y-121753237D01*
X117247200Y-121753237D02*
X117151961Y-121848475D01*
X117151961Y-121848475D02*
X117056723Y-121896094D01*
X117056723Y-121896094D02*
X116866247Y-121943713D01*
X116866247Y-121943713D02*
X116723390Y-121943713D01*
X116723390Y-121943713D02*
X116532914Y-121896094D01*
X116532914Y-121896094D02*
X116437676Y-121848475D01*
X116437676Y-121848475D02*
X116342438Y-121753237D01*
X116342438Y-121753237D02*
X116294819Y-121610380D01*
X116294819Y-121610380D02*
X116294819Y-121515142D01*
X116294819Y-121515142D02*
X116342438Y-121372285D01*
X116342438Y-121372285D02*
X116390057Y-121324666D01*
X116294819Y-120467523D02*
X116294819Y-120657999D01*
X116294819Y-120657999D02*
X116342438Y-120753237D01*
X116342438Y-120753237D02*
X116390057Y-120800856D01*
X116390057Y-120800856D02*
X116532914Y-120896094D01*
X116532914Y-120896094D02*
X116723390Y-120943713D01*
X116723390Y-120943713D02*
X117104342Y-120943713D01*
X117104342Y-120943713D02*
X117199580Y-120896094D01*
X117199580Y-120896094D02*
X117247200Y-120848475D01*
X117247200Y-120848475D02*
X117294819Y-120753237D01*
X117294819Y-120753237D02*
X117294819Y-120562761D01*
X117294819Y-120562761D02*
X117247200Y-120467523D01*
X117247200Y-120467523D02*
X117199580Y-120419904D01*
X117199580Y-120419904D02*
X117104342Y-120372285D01*
X117104342Y-120372285D02*
X116866247Y-120372285D01*
X116866247Y-120372285D02*
X116771009Y-120419904D01*
X116771009Y-120419904D02*
X116723390Y-120467523D01*
X116723390Y-120467523D02*
X116675771Y-120562761D01*
X116675771Y-120562761D02*
X116675771Y-120753237D01*
X116675771Y-120753237D02*
X116723390Y-120848475D01*
X116723390Y-120848475D02*
X116771009Y-120896094D01*
X116771009Y-120896094D02*
X116866247Y-120943713D01*
X136231333Y-115929580D02*
X136183714Y-115977200D01*
X136183714Y-115977200D02*
X136040857Y-116024819D01*
X136040857Y-116024819D02*
X135945619Y-116024819D01*
X135945619Y-116024819D02*
X135802762Y-115977200D01*
X135802762Y-115977200D02*
X135707524Y-115881961D01*
X135707524Y-115881961D02*
X135659905Y-115786723D01*
X135659905Y-115786723D02*
X135612286Y-115596247D01*
X135612286Y-115596247D02*
X135612286Y-115453390D01*
X135612286Y-115453390D02*
X135659905Y-115262914D01*
X135659905Y-115262914D02*
X135707524Y-115167676D01*
X135707524Y-115167676D02*
X135802762Y-115072438D01*
X135802762Y-115072438D02*
X135945619Y-115024819D01*
X135945619Y-115024819D02*
X136040857Y-115024819D01*
X136040857Y-115024819D02*
X136183714Y-115072438D01*
X136183714Y-115072438D02*
X136231333Y-115120057D01*
X136612286Y-115120057D02*
X136659905Y-115072438D01*
X136659905Y-115072438D02*
X136755143Y-115024819D01*
X136755143Y-115024819D02*
X136993238Y-115024819D01*
X136993238Y-115024819D02*
X137088476Y-115072438D01*
X137088476Y-115072438D02*
X137136095Y-115120057D01*
X137136095Y-115120057D02*
X137183714Y-115215295D01*
X137183714Y-115215295D02*
X137183714Y-115310533D01*
X137183714Y-115310533D02*
X137136095Y-115453390D01*
X137136095Y-115453390D02*
X136564667Y-116024819D01*
X136564667Y-116024819D02*
X137183714Y-116024819D01*
X150219580Y-129452666D02*
X150267200Y-129500285D01*
X150267200Y-129500285D02*
X150314819Y-129643142D01*
X150314819Y-129643142D02*
X150314819Y-129738380D01*
X150314819Y-129738380D02*
X150267200Y-129881237D01*
X150267200Y-129881237D02*
X150171961Y-129976475D01*
X150171961Y-129976475D02*
X150076723Y-130024094D01*
X150076723Y-130024094D02*
X149886247Y-130071713D01*
X149886247Y-130071713D02*
X149743390Y-130071713D01*
X149743390Y-130071713D02*
X149552914Y-130024094D01*
X149552914Y-130024094D02*
X149457676Y-129976475D01*
X149457676Y-129976475D02*
X149362438Y-129881237D01*
X149362438Y-129881237D02*
X149314819Y-129738380D01*
X149314819Y-129738380D02*
X149314819Y-129643142D01*
X149314819Y-129643142D02*
X149362438Y-129500285D01*
X149362438Y-129500285D02*
X149410057Y-129452666D01*
X150314819Y-128500285D02*
X150314819Y-129071713D01*
X150314819Y-128785999D02*
X149314819Y-128785999D01*
X149314819Y-128785999D02*
X149457676Y-128881237D01*
X149457676Y-128881237D02*
X149552914Y-128976475D01*
X149552914Y-128976475D02*
X149600533Y-129071713D01*
X120356667Y-135090819D02*
X120690000Y-136090819D01*
X120690000Y-136090819D02*
X121023333Y-135090819D01*
X121690000Y-135567009D02*
X121832857Y-135614628D01*
X121832857Y-135614628D02*
X121880476Y-135662247D01*
X121880476Y-135662247D02*
X121928095Y-135757485D01*
X121928095Y-135757485D02*
X121928095Y-135900342D01*
X121928095Y-135900342D02*
X121880476Y-135995580D01*
X121880476Y-135995580D02*
X121832857Y-136043200D01*
X121832857Y-136043200D02*
X121737619Y-136090819D01*
X121737619Y-136090819D02*
X121356667Y-136090819D01*
X121356667Y-136090819D02*
X121356667Y-135090819D01*
X121356667Y-135090819D02*
X121690000Y-135090819D01*
X121690000Y-135090819D02*
X121785238Y-135138438D01*
X121785238Y-135138438D02*
X121832857Y-135186057D01*
X121832857Y-135186057D02*
X121880476Y-135281295D01*
X121880476Y-135281295D02*
X121880476Y-135376533D01*
X121880476Y-135376533D02*
X121832857Y-135471771D01*
X121832857Y-135471771D02*
X121785238Y-135519390D01*
X121785238Y-135519390D02*
X121690000Y-135567009D01*
X121690000Y-135567009D02*
X121356667Y-135567009D01*
X122356667Y-135090819D02*
X122356667Y-135900342D01*
X122356667Y-135900342D02*
X122404286Y-135995580D01*
X122404286Y-135995580D02*
X122451905Y-136043200D01*
X122451905Y-136043200D02*
X122547143Y-136090819D01*
X122547143Y-136090819D02*
X122737619Y-136090819D01*
X122737619Y-136090819D02*
X122832857Y-136043200D01*
X122832857Y-136043200D02*
X122880476Y-135995580D01*
X122880476Y-135995580D02*
X122928095Y-135900342D01*
X122928095Y-135900342D02*
X122928095Y-135090819D01*
X123975714Y-135995580D02*
X123928095Y-136043200D01*
X123928095Y-136043200D02*
X123785238Y-136090819D01*
X123785238Y-136090819D02*
X123690000Y-136090819D01*
X123690000Y-136090819D02*
X123547143Y-136043200D01*
X123547143Y-136043200D02*
X123451905Y-135947961D01*
X123451905Y-135947961D02*
X123404286Y-135852723D01*
X123404286Y-135852723D02*
X123356667Y-135662247D01*
X123356667Y-135662247D02*
X123356667Y-135519390D01*
X123356667Y-135519390D02*
X123404286Y-135328914D01*
X123404286Y-135328914D02*
X123451905Y-135233676D01*
X123451905Y-135233676D02*
X123547143Y-135138438D01*
X123547143Y-135138438D02*
X123690000Y-135090819D01*
X123690000Y-135090819D02*
X123785238Y-135090819D01*
X123785238Y-135090819D02*
X123928095Y-135138438D01*
X123928095Y-135138438D02*
X123975714Y-135186057D01*
X124404286Y-136090819D02*
X124404286Y-135090819D01*
X124975714Y-136090819D02*
X124547143Y-135519390D01*
X124975714Y-135090819D02*
X124404286Y-135662247D01*
X125928095Y-136090819D02*
X125356667Y-136090819D01*
X125642381Y-136090819D02*
X125642381Y-135090819D01*
X125642381Y-135090819D02*
X125547143Y-135233676D01*
X125547143Y-135233676D02*
X125451905Y-135328914D01*
X125451905Y-135328914D02*
X125356667Y-135376533D01*
X132588095Y-115024819D02*
X132588095Y-115834342D01*
X132588095Y-115834342D02*
X132635714Y-115929580D01*
X132635714Y-115929580D02*
X132683333Y-115977200D01*
X132683333Y-115977200D02*
X132778571Y-116024819D01*
X132778571Y-116024819D02*
X132969047Y-116024819D01*
X132969047Y-116024819D02*
X133064285Y-115977200D01*
X133064285Y-115977200D02*
X133111904Y-115929580D01*
X133111904Y-115929580D02*
X133159523Y-115834342D01*
X133159523Y-115834342D02*
X133159523Y-115024819D01*
X134159523Y-116024819D02*
X133588095Y-116024819D01*
X133873809Y-116024819D02*
X133873809Y-115024819D01*
X133873809Y-115024819D02*
X133778571Y-115167676D01*
X133778571Y-115167676D02*
X133683333Y-115262914D01*
X133683333Y-115262914D02*
X133588095Y-115310533D01*
X125888761Y-120258057D02*
X125793523Y-120210438D01*
X125793523Y-120210438D02*
X125698285Y-120115200D01*
X125698285Y-120115200D02*
X125555428Y-119972342D01*
X125555428Y-119972342D02*
X125460190Y-119924723D01*
X125460190Y-119924723D02*
X125364952Y-119924723D01*
X125412571Y-120162819D02*
X125317333Y-120115200D01*
X125317333Y-120115200D02*
X125222095Y-120019961D01*
X125222095Y-120019961D02*
X125174476Y-119829485D01*
X125174476Y-119829485D02*
X125174476Y-119496152D01*
X125174476Y-119496152D02*
X125222095Y-119305676D01*
X125222095Y-119305676D02*
X125317333Y-119210438D01*
X125317333Y-119210438D02*
X125412571Y-119162819D01*
X125412571Y-119162819D02*
X125603047Y-119162819D01*
X125603047Y-119162819D02*
X125698285Y-119210438D01*
X125698285Y-119210438D02*
X125793523Y-119305676D01*
X125793523Y-119305676D02*
X125841142Y-119496152D01*
X125841142Y-119496152D02*
X125841142Y-119829485D01*
X125841142Y-119829485D02*
X125793523Y-120019961D01*
X125793523Y-120019961D02*
X125698285Y-120115200D01*
X125698285Y-120115200D02*
X125603047Y-120162819D01*
X125603047Y-120162819D02*
X125412571Y-120162819D01*
X126793523Y-120162819D02*
X126222095Y-120162819D01*
X126507809Y-120162819D02*
X126507809Y-119162819D01*
X126507809Y-119162819D02*
X126412571Y-119305676D01*
X126412571Y-119305676D02*
X126317333Y-119400914D01*
X126317333Y-119400914D02*
X126222095Y-119448533D01*
X133437333Y-135233580D02*
X133389714Y-135281200D01*
X133389714Y-135281200D02*
X133246857Y-135328819D01*
X133246857Y-135328819D02*
X133151619Y-135328819D01*
X133151619Y-135328819D02*
X133008762Y-135281200D01*
X133008762Y-135281200D02*
X132913524Y-135185961D01*
X132913524Y-135185961D02*
X132865905Y-135090723D01*
X132865905Y-135090723D02*
X132818286Y-134900247D01*
X132818286Y-134900247D02*
X132818286Y-134757390D01*
X132818286Y-134757390D02*
X132865905Y-134566914D01*
X132865905Y-134566914D02*
X132913524Y-134471676D01*
X132913524Y-134471676D02*
X133008762Y-134376438D01*
X133008762Y-134376438D02*
X133151619Y-134328819D01*
X133151619Y-134328819D02*
X133246857Y-134328819D01*
X133246857Y-134328819D02*
X133389714Y-134376438D01*
X133389714Y-134376438D02*
X133437333Y-134424057D01*
X134342095Y-134328819D02*
X133865905Y-134328819D01*
X133865905Y-134328819D02*
X133818286Y-134805009D01*
X133818286Y-134805009D02*
X133865905Y-134757390D01*
X133865905Y-134757390D02*
X133961143Y-134709771D01*
X133961143Y-134709771D02*
X134199238Y-134709771D01*
X134199238Y-134709771D02*
X134294476Y-134757390D01*
X134294476Y-134757390D02*
X134342095Y-134805009D01*
X134342095Y-134805009D02*
X134389714Y-134900247D01*
X134389714Y-134900247D02*
X134389714Y-135138342D01*
X134389714Y-135138342D02*
X134342095Y-135233580D01*
X134342095Y-135233580D02*
X134294476Y-135281200D01*
X134294476Y-135281200D02*
X134199238Y-135328819D01*
X134199238Y-135328819D02*
X133961143Y-135328819D01*
X133961143Y-135328819D02*
X133865905Y-135281200D01*
X133865905Y-135281200D02*
X133818286Y-135233580D01*
X118705333Y-124311580D02*
X118657714Y-124359200D01*
X118657714Y-124359200D02*
X118514857Y-124406819D01*
X118514857Y-124406819D02*
X118419619Y-124406819D01*
X118419619Y-124406819D02*
X118276762Y-124359200D01*
X118276762Y-124359200D02*
X118181524Y-124263961D01*
X118181524Y-124263961D02*
X118133905Y-124168723D01*
X118133905Y-124168723D02*
X118086286Y-123978247D01*
X118086286Y-123978247D02*
X118086286Y-123835390D01*
X118086286Y-123835390D02*
X118133905Y-123644914D01*
X118133905Y-123644914D02*
X118181524Y-123549676D01*
X118181524Y-123549676D02*
X118276762Y-123454438D01*
X118276762Y-123454438D02*
X118419619Y-123406819D01*
X118419619Y-123406819D02*
X118514857Y-123406819D01*
X118514857Y-123406819D02*
X118657714Y-123454438D01*
X118657714Y-123454438D02*
X118705333Y-123502057D01*
X119038667Y-123406819D02*
X119657714Y-123406819D01*
X119657714Y-123406819D02*
X119324381Y-123787771D01*
X119324381Y-123787771D02*
X119467238Y-123787771D01*
X119467238Y-123787771D02*
X119562476Y-123835390D01*
X119562476Y-123835390D02*
X119610095Y-123883009D01*
X119610095Y-123883009D02*
X119657714Y-123978247D01*
X119657714Y-123978247D02*
X119657714Y-124216342D01*
X119657714Y-124216342D02*
X119610095Y-124311580D01*
X119610095Y-124311580D02*
X119562476Y-124359200D01*
X119562476Y-124359200D02*
X119467238Y-124406819D01*
X119467238Y-124406819D02*
X119181524Y-124406819D01*
X119181524Y-124406819D02*
X119086286Y-124359200D01*
X119086286Y-124359200D02*
X119038667Y-124311580D01*
X142599580Y-129452666D02*
X142647200Y-129500285D01*
X142647200Y-129500285D02*
X142694819Y-129643142D01*
X142694819Y-129643142D02*
X142694819Y-129738380D01*
X142694819Y-129738380D02*
X142647200Y-129881237D01*
X142647200Y-129881237D02*
X142551961Y-129976475D01*
X142551961Y-129976475D02*
X142456723Y-130024094D01*
X142456723Y-130024094D02*
X142266247Y-130071713D01*
X142266247Y-130071713D02*
X142123390Y-130071713D01*
X142123390Y-130071713D02*
X141932914Y-130024094D01*
X141932914Y-130024094D02*
X141837676Y-129976475D01*
X141837676Y-129976475D02*
X141742438Y-129881237D01*
X141742438Y-129881237D02*
X141694819Y-129738380D01*
X141694819Y-129738380D02*
X141694819Y-129643142D01*
X141694819Y-129643142D02*
X141742438Y-129500285D01*
X141742438Y-129500285D02*
X141790057Y-129452666D01*
X142028152Y-128595523D02*
X142694819Y-128595523D01*
X141647200Y-128833618D02*
X142361485Y-129071713D01*
X142361485Y-129071713D02*
X142361485Y-128452666D01*
X117396190Y-105087009D02*
X117729523Y-105087009D01*
X117872380Y-105610819D02*
X117396190Y-105610819D01*
X117396190Y-105610819D02*
X117396190Y-104610819D01*
X117396190Y-104610819D02*
X117872380Y-104610819D01*
X118253333Y-105563200D02*
X118396190Y-105610819D01*
X118396190Y-105610819D02*
X118634285Y-105610819D01*
X118634285Y-105610819D02*
X118729523Y-105563200D01*
X118729523Y-105563200D02*
X118777142Y-105515580D01*
X118777142Y-105515580D02*
X118824761Y-105420342D01*
X118824761Y-105420342D02*
X118824761Y-105325104D01*
X118824761Y-105325104D02*
X118777142Y-105229866D01*
X118777142Y-105229866D02*
X118729523Y-105182247D01*
X118729523Y-105182247D02*
X118634285Y-105134628D01*
X118634285Y-105134628D02*
X118443809Y-105087009D01*
X118443809Y-105087009D02*
X118348571Y-105039390D01*
X118348571Y-105039390D02*
X118300952Y-104991771D01*
X118300952Y-104991771D02*
X118253333Y-104896533D01*
X118253333Y-104896533D02*
X118253333Y-104801295D01*
X118253333Y-104801295D02*
X118300952Y-104706057D01*
X118300952Y-104706057D02*
X118348571Y-104658438D01*
X118348571Y-104658438D02*
X118443809Y-104610819D01*
X118443809Y-104610819D02*
X118681904Y-104610819D01*
X118681904Y-104610819D02*
X118824761Y-104658438D01*
X119824761Y-105515580D02*
X119777142Y-105563200D01*
X119777142Y-105563200D02*
X119634285Y-105610819D01*
X119634285Y-105610819D02*
X119539047Y-105610819D01*
X119539047Y-105610819D02*
X119396190Y-105563200D01*
X119396190Y-105563200D02*
X119300952Y-105467961D01*
X119300952Y-105467961D02*
X119253333Y-105372723D01*
X119253333Y-105372723D02*
X119205714Y-105182247D01*
X119205714Y-105182247D02*
X119205714Y-105039390D01*
X119205714Y-105039390D02*
X119253333Y-104848914D01*
X119253333Y-104848914D02*
X119300952Y-104753676D01*
X119300952Y-104753676D02*
X119396190Y-104658438D01*
X119396190Y-104658438D02*
X119539047Y-104610819D01*
X119539047Y-104610819D02*
X119634285Y-104610819D01*
X119634285Y-104610819D02*
X119777142Y-104658438D01*
X119777142Y-104658438D02*
X119824761Y-104706057D01*
X120015238Y-105706057D02*
X120777142Y-105706057D01*
X121015238Y-105610819D02*
X121015238Y-104610819D01*
X121015238Y-104610819D02*
X121253333Y-104610819D01*
X121253333Y-104610819D02*
X121396190Y-104658438D01*
X121396190Y-104658438D02*
X121491428Y-104753676D01*
X121491428Y-104753676D02*
X121539047Y-104848914D01*
X121539047Y-104848914D02*
X121586666Y-105039390D01*
X121586666Y-105039390D02*
X121586666Y-105182247D01*
X121586666Y-105182247D02*
X121539047Y-105372723D01*
X121539047Y-105372723D02*
X121491428Y-105467961D01*
X121491428Y-105467961D02*
X121396190Y-105563200D01*
X121396190Y-105563200D02*
X121253333Y-105610819D01*
X121253333Y-105610819D02*
X121015238Y-105610819D01*
X122015238Y-105087009D02*
X122348571Y-105087009D01*
X122491428Y-105610819D02*
X122015238Y-105610819D01*
X122015238Y-105610819D02*
X122015238Y-104610819D01*
X122015238Y-104610819D02*
X122491428Y-104610819D01*
X123253333Y-105087009D02*
X123396190Y-105134628D01*
X123396190Y-105134628D02*
X123443809Y-105182247D01*
X123443809Y-105182247D02*
X123491428Y-105277485D01*
X123491428Y-105277485D02*
X123491428Y-105420342D01*
X123491428Y-105420342D02*
X123443809Y-105515580D01*
X123443809Y-105515580D02*
X123396190Y-105563200D01*
X123396190Y-105563200D02*
X123300952Y-105610819D01*
X123300952Y-105610819D02*
X122920000Y-105610819D01*
X122920000Y-105610819D02*
X122920000Y-104610819D01*
X122920000Y-104610819D02*
X123253333Y-104610819D01*
X123253333Y-104610819D02*
X123348571Y-104658438D01*
X123348571Y-104658438D02*
X123396190Y-104706057D01*
X123396190Y-104706057D02*
X123443809Y-104801295D01*
X123443809Y-104801295D02*
X123443809Y-104896533D01*
X123443809Y-104896533D02*
X123396190Y-104991771D01*
X123396190Y-104991771D02*
X123348571Y-105039390D01*
X123348571Y-105039390D02*
X123253333Y-105087009D01*
X123253333Y-105087009D02*
X122920000Y-105087009D01*
X123920000Y-104610819D02*
X123920000Y-105420342D01*
X123920000Y-105420342D02*
X123967619Y-105515580D01*
X123967619Y-105515580D02*
X124015238Y-105563200D01*
X124015238Y-105563200D02*
X124110476Y-105610819D01*
X124110476Y-105610819D02*
X124300952Y-105610819D01*
X124300952Y-105610819D02*
X124396190Y-105563200D01*
X124396190Y-105563200D02*
X124443809Y-105515580D01*
X124443809Y-105515580D02*
X124491428Y-105420342D01*
X124491428Y-105420342D02*
X124491428Y-104610819D01*
X125491428Y-104658438D02*
X125396190Y-104610819D01*
X125396190Y-104610819D02*
X125253333Y-104610819D01*
X125253333Y-104610819D02*
X125110476Y-104658438D01*
X125110476Y-104658438D02*
X125015238Y-104753676D01*
X125015238Y-104753676D02*
X124967619Y-104848914D01*
X124967619Y-104848914D02*
X124920000Y-105039390D01*
X124920000Y-105039390D02*
X124920000Y-105182247D01*
X124920000Y-105182247D02*
X124967619Y-105372723D01*
X124967619Y-105372723D02*
X125015238Y-105467961D01*
X125015238Y-105467961D02*
X125110476Y-105563200D01*
X125110476Y-105563200D02*
X125253333Y-105610819D01*
X125253333Y-105610819D02*
X125348571Y-105610819D01*
X125348571Y-105610819D02*
X125491428Y-105563200D01*
X125491428Y-105563200D02*
X125539047Y-105515580D01*
X125539047Y-105515580D02*
X125539047Y-105182247D01*
X125539047Y-105182247D02*
X125348571Y-105182247D01*
X126491428Y-105610819D02*
X125920000Y-105610819D01*
X126205714Y-105610819D02*
X126205714Y-104610819D01*
X126205714Y-104610819D02*
X126110476Y-104753676D01*
X126110476Y-104753676D02*
X126015238Y-104848914D01*
X126015238Y-104848914D02*
X125920000Y-104896533D01*
X160633580Y-108878666D02*
X160681200Y-108926285D01*
X160681200Y-108926285D02*
X160728819Y-109069142D01*
X160728819Y-109069142D02*
X160728819Y-109164380D01*
X160728819Y-109164380D02*
X160681200Y-109307237D01*
X160681200Y-109307237D02*
X160585961Y-109402475D01*
X160585961Y-109402475D02*
X160490723Y-109450094D01*
X160490723Y-109450094D02*
X160300247Y-109497713D01*
X160300247Y-109497713D02*
X160157390Y-109497713D01*
X160157390Y-109497713D02*
X159966914Y-109450094D01*
X159966914Y-109450094D02*
X159871676Y-109402475D01*
X159871676Y-109402475D02*
X159776438Y-109307237D01*
X159776438Y-109307237D02*
X159728819Y-109164380D01*
X159728819Y-109164380D02*
X159728819Y-109069142D01*
X159728819Y-109069142D02*
X159776438Y-108926285D01*
X159776438Y-108926285D02*
X159824057Y-108878666D01*
X159728819Y-108545332D02*
X159728819Y-107878666D01*
X159728819Y-107878666D02*
X160728819Y-108307237D01*
X123785333Y-118818819D02*
X123452000Y-118342628D01*
X123213905Y-118818819D02*
X123213905Y-117818819D01*
X123213905Y-117818819D02*
X123594857Y-117818819D01*
X123594857Y-117818819D02*
X123690095Y-117866438D01*
X123690095Y-117866438D02*
X123737714Y-117914057D01*
X123737714Y-117914057D02*
X123785333Y-118009295D01*
X123785333Y-118009295D02*
X123785333Y-118152152D01*
X123785333Y-118152152D02*
X123737714Y-118247390D01*
X123737714Y-118247390D02*
X123690095Y-118295009D01*
X123690095Y-118295009D02*
X123594857Y-118342628D01*
X123594857Y-118342628D02*
X123213905Y-118342628D01*
X124166286Y-117914057D02*
X124213905Y-117866438D01*
X124213905Y-117866438D02*
X124309143Y-117818819D01*
X124309143Y-117818819D02*
X124547238Y-117818819D01*
X124547238Y-117818819D02*
X124642476Y-117866438D01*
X124642476Y-117866438D02*
X124690095Y-117914057D01*
X124690095Y-117914057D02*
X124737714Y-118009295D01*
X124737714Y-118009295D02*
X124737714Y-118104533D01*
X124737714Y-118104533D02*
X124690095Y-118247390D01*
X124690095Y-118247390D02*
X124118667Y-118818819D01*
X124118667Y-118818819D02*
X124737714Y-118818819D01*
X142964819Y-117847713D02*
X143964819Y-117181047D01*
X142964819Y-117181047D02*
X143964819Y-117847713D01*
X143964819Y-116800094D02*
X142964819Y-116800094D01*
X143679104Y-116371523D02*
X143679104Y-115895333D01*
X143964819Y-116466761D02*
X142964819Y-116133428D01*
X142964819Y-116133428D02*
X143964819Y-115800095D01*
X142964819Y-115276285D02*
X142964819Y-115085809D01*
X142964819Y-115085809D02*
X143012438Y-114990571D01*
X143012438Y-114990571D02*
X143107676Y-114895333D01*
X143107676Y-114895333D02*
X143298152Y-114847714D01*
X143298152Y-114847714D02*
X143631485Y-114847714D01*
X143631485Y-114847714D02*
X143821961Y-114895333D01*
X143821961Y-114895333D02*
X143917200Y-114990571D01*
X143917200Y-114990571D02*
X143964819Y-115085809D01*
X143964819Y-115085809D02*
X143964819Y-115276285D01*
X143964819Y-115276285D02*
X143917200Y-115371523D01*
X143917200Y-115371523D02*
X143821961Y-115466761D01*
X143821961Y-115466761D02*
X143631485Y-115514380D01*
X143631485Y-115514380D02*
X143298152Y-115514380D01*
X143298152Y-115514380D02*
X143107676Y-115466761D01*
X143107676Y-115466761D02*
X143012438Y-115371523D01*
X143012438Y-115371523D02*
X142964819Y-115276285D01*
X144060057Y-114657238D02*
X144060057Y-113895333D01*
X143964819Y-113181047D02*
X143964819Y-113657237D01*
X143964819Y-113657237D02*
X142964819Y-113657237D01*
X143964819Y-112323904D02*
X143964819Y-112895332D01*
X143964819Y-112609618D02*
X142964819Y-112609618D01*
X142964819Y-112609618D02*
X143107676Y-112704856D01*
X143107676Y-112704856D02*
X143202914Y-112800094D01*
X143202914Y-112800094D02*
X143250533Y-112895332D01*
X153124819Y-117942951D02*
X154124819Y-117276285D01*
X153124819Y-117276285D02*
X154124819Y-117942951D01*
X154124819Y-116895332D02*
X153124819Y-116895332D01*
X153839104Y-116466761D02*
X153839104Y-115990571D01*
X154124819Y-116561999D02*
X153124819Y-116228666D01*
X153124819Y-116228666D02*
X154124819Y-115895333D01*
X153124819Y-115371523D02*
X153124819Y-115181047D01*
X153124819Y-115181047D02*
X153172438Y-115085809D01*
X153172438Y-115085809D02*
X153267676Y-114990571D01*
X153267676Y-114990571D02*
X153458152Y-114942952D01*
X153458152Y-114942952D02*
X153791485Y-114942952D01*
X153791485Y-114942952D02*
X153981961Y-114990571D01*
X153981961Y-114990571D02*
X154077200Y-115085809D01*
X154077200Y-115085809D02*
X154124819Y-115181047D01*
X154124819Y-115181047D02*
X154124819Y-115371523D01*
X154124819Y-115371523D02*
X154077200Y-115466761D01*
X154077200Y-115466761D02*
X153981961Y-115561999D01*
X153981961Y-115561999D02*
X153791485Y-115609618D01*
X153791485Y-115609618D02*
X153458152Y-115609618D01*
X153458152Y-115609618D02*
X153267676Y-115561999D01*
X153267676Y-115561999D02*
X153172438Y-115466761D01*
X153172438Y-115466761D02*
X153124819Y-115371523D01*
X154220057Y-114752476D02*
X154220057Y-113990571D01*
X154124819Y-113181047D02*
X153648628Y-113514380D01*
X154124819Y-113752475D02*
X153124819Y-113752475D01*
X153124819Y-113752475D02*
X153124819Y-113371523D01*
X153124819Y-113371523D02*
X153172438Y-113276285D01*
X153172438Y-113276285D02*
X153220057Y-113228666D01*
X153220057Y-113228666D02*
X153315295Y-113181047D01*
X153315295Y-113181047D02*
X153458152Y-113181047D01*
X153458152Y-113181047D02*
X153553390Y-113228666D01*
X153553390Y-113228666D02*
X153601009Y-113276285D01*
X153601009Y-113276285D02*
X153648628Y-113371523D01*
X153648628Y-113371523D02*
X153648628Y-113752475D01*
X154124819Y-112228666D02*
X154124819Y-112800094D01*
X154124819Y-112514380D02*
X153124819Y-112514380D01*
X153124819Y-112514380D02*
X153267676Y-112609618D01*
X153267676Y-112609618D02*
X153362914Y-112704856D01*
X153362914Y-112704856D02*
X153410533Y-112800094D01*
X117856095Y-118072819D02*
X117856095Y-118882342D01*
X117856095Y-118882342D02*
X117903714Y-118977580D01*
X117903714Y-118977580D02*
X117951333Y-119025200D01*
X117951333Y-119025200D02*
X118046571Y-119072819D01*
X118046571Y-119072819D02*
X118237047Y-119072819D01*
X118237047Y-119072819D02*
X118332285Y-119025200D01*
X118332285Y-119025200D02*
X118379904Y-118977580D01*
X118379904Y-118977580D02*
X118427523Y-118882342D01*
X118427523Y-118882342D02*
X118427523Y-118072819D01*
X118856095Y-118168057D02*
X118903714Y-118120438D01*
X118903714Y-118120438D02*
X118998952Y-118072819D01*
X118998952Y-118072819D02*
X119237047Y-118072819D01*
X119237047Y-118072819D02*
X119332285Y-118120438D01*
X119332285Y-118120438D02*
X119379904Y-118168057D01*
X119379904Y-118168057D02*
X119427523Y-118263295D01*
X119427523Y-118263295D02*
X119427523Y-118358533D01*
X119427523Y-118358533D02*
X119379904Y-118501390D01*
X119379904Y-118501390D02*
X118808476Y-119072819D01*
X118808476Y-119072819D02*
X119427523Y-119072819D01*
D12*
%TO.C,R1*%
X131822936Y-120814000D02*
X134877064Y-120814000D01*
X131822936Y-123534000D02*
X134877064Y-123534000D01*
%TO.C,SPI1*%
X153615000Y-129221000D02*
X153615000Y-134421000D01*
X156215000Y-129221000D02*
X153615000Y-129221000D01*
X156215000Y-129221000D02*
X156215000Y-131821000D01*
X156215000Y-131821000D02*
X158815000Y-131821000D01*
X157485000Y-129221000D02*
X158815000Y-129221000D01*
X158815000Y-129221000D02*
X158815000Y-130551000D01*
X158815000Y-131821000D02*
X158815000Y-134421000D01*
X158815000Y-134421000D02*
X153615000Y-134421000D01*
%TO.C,JETSON_PWR1*%
X143455000Y-129221000D02*
X143455000Y-134421000D01*
X146055000Y-129221000D02*
X143455000Y-129221000D01*
X146055000Y-129221000D02*
X146055000Y-131821000D01*
X146055000Y-131821000D02*
X148655000Y-131821000D01*
X147325000Y-129221000D02*
X148655000Y-129221000D01*
X148655000Y-129221000D02*
X148655000Y-130551000D01*
X148655000Y-131821000D02*
X148655000Y-134421000D01*
X148655000Y-134421000D02*
X143455000Y-134421000D01*
%TO.C,ESC1*%
X126970000Y-108672000D02*
X126970000Y-109822000D01*
X126970000Y-109822000D02*
X128020000Y-109822000D01*
X128020000Y-109822000D02*
X128020000Y-110812000D01*
X128140000Y-106702000D02*
X136020000Y-106702000D01*
X137190000Y-108672000D02*
X137190000Y-109822000D01*
X137190000Y-109822000D02*
X136140000Y-109822000D01*
%TO.C,C6*%
X117854000Y-121011733D02*
X117854000Y-121304267D01*
X118874000Y-121011733D02*
X118874000Y-121304267D01*
%TO.C,C2*%
X135888000Y-117709733D02*
X135888000Y-118002267D01*
X136908000Y-117709733D02*
X136908000Y-118002267D01*
%TO.C,C1*%
X149355000Y-131674733D02*
X149355000Y-131967267D01*
X150375000Y-131674733D02*
X150375000Y-131967267D01*
%TO.C,VBUCK1*%
X120595000Y-134431000D02*
X120595000Y-129231000D01*
X123195000Y-131831000D02*
X123195000Y-134431000D01*
X123195000Y-134431000D02*
X120595000Y-134431000D01*
X125795000Y-129231000D02*
X120595000Y-129231000D01*
X125795000Y-131831000D02*
X123195000Y-131831000D01*
X125795000Y-131831000D02*
X125795000Y-129231000D01*
X125795000Y-133101000D02*
X125795000Y-134431000D01*
X125795000Y-134431000D02*
X124465000Y-134431000D01*
%TO.C,U1*%
X133350000Y-116296000D02*
X132550000Y-116296000D01*
X133350000Y-116296000D02*
X134150000Y-116296000D01*
X133350000Y-119416000D02*
X132550000Y-119416000D01*
X133350000Y-119416000D02*
X134150000Y-119416000D01*
X132050000Y-116346000D02*
X131810000Y-116016000D01*
X132290000Y-116016000D01*
X132050000Y-116346000D01*
G36*
X132050000Y-116346000D02*
G01*
X131810000Y-116016000D01*
X132290000Y-116016000D01*
X132050000Y-116346000D01*
G37*
%TO.C,Q1*%
X125984000Y-120548000D02*
X125184000Y-120548000D01*
X125984000Y-120548000D02*
X126784000Y-120548000D01*
X125984000Y-123668000D02*
X125184000Y-123668000D01*
X125984000Y-123668000D02*
X126784000Y-123668000D01*
X124684000Y-120598000D02*
X124444000Y-120268000D01*
X124924000Y-120268000D01*
X124684000Y-120598000D01*
G36*
X124684000Y-120598000D02*
G01*
X124444000Y-120268000D01*
X124924000Y-120268000D01*
X124684000Y-120598000D01*
G37*
%TO.C,C5*%
X132480000Y-128210437D02*
X132480000Y-133966000D01*
X132480000Y-133966000D02*
X134830000Y-133966000D01*
X133544437Y-127146000D02*
X132480000Y-128210437D01*
X133544437Y-127146000D02*
X134830000Y-127146000D01*
X137737500Y-126118500D02*
X137737500Y-126906000D01*
X138131250Y-126512250D02*
X137343750Y-126512250D01*
X138235563Y-127146000D02*
X136950000Y-127146000D01*
X138235563Y-127146000D02*
X139300000Y-128210437D01*
X139300000Y-128210437D02*
X139300000Y-133966000D01*
X139300000Y-133966000D02*
X136950000Y-133966000D01*
%TO.C,C3*%
X121812267Y-123442000D02*
X121519733Y-123442000D01*
X121812267Y-124462000D02*
X121519733Y-124462000D01*
%TO.C,C4*%
X141735000Y-131674733D02*
X141735000Y-131967267D01*
X142755000Y-131674733D02*
X142755000Y-131967267D01*
%TO.C,ESC_DEBUG1*%
X117781000Y-106107000D02*
X117781000Y-111307000D01*
X122921000Y-106107000D02*
X117781000Y-106107000D01*
X122921000Y-106107000D02*
X122921000Y-108707000D01*
X122921000Y-108707000D02*
X125521000Y-108707000D01*
X124191000Y-106107000D02*
X125521000Y-106107000D01*
X125521000Y-106107000D02*
X125521000Y-107437000D01*
X125521000Y-108707000D02*
X125521000Y-111307000D01*
X125521000Y-111307000D02*
X117781000Y-111307000D01*
%TO.C,C7*%
X158240000Y-108565733D02*
X158240000Y-108858267D01*
X159260000Y-108565733D02*
X159260000Y-108858267D01*
%TO.C,R2*%
X121666724Y-117841500D02*
X121157276Y-117841500D01*
X121666724Y-118886500D02*
X121157276Y-118886500D01*
%TO.C,XIAO_L1*%
X139640000Y-108712000D02*
X139640000Y-124012000D01*
X139640000Y-108712000D02*
X142300000Y-108712000D01*
X139640000Y-124012000D02*
X142300000Y-124012000D01*
X140970000Y-106112000D02*
X142300000Y-106112000D01*
X142300000Y-106112000D02*
X142300000Y-107442000D01*
X142300000Y-108712000D02*
X142300000Y-124012000D01*
%TO.C,XIAO_R1*%
X154880000Y-108712000D02*
X154880000Y-124012000D01*
X154880000Y-108712000D02*
X157540000Y-108712000D01*
X154880000Y-124012000D02*
X157540000Y-124012000D01*
X156210000Y-106112000D02*
X157540000Y-106112000D01*
X157540000Y-106112000D02*
X157540000Y-107442000D01*
X157540000Y-108712000D02*
X157540000Y-124012000D01*
%TO.C,U2*%
X121412000Y-119598000D02*
X120612000Y-119598000D01*
X121412000Y-119598000D02*
X122212000Y-119598000D01*
X121412000Y-122718000D02*
X120612000Y-122718000D01*
X121412000Y-122718000D02*
X122212000Y-122718000D01*
X120112000Y-119648000D02*
X119872000Y-119318000D01*
X120352000Y-119318000D01*
X120112000Y-119648000D01*
G36*
X120112000Y-119648000D02*
G01*
X119872000Y-119318000D01*
X120352000Y-119318000D01*
X120112000Y-119648000D01*
G37*
%TD*%
M02*
